%TF.GenerationSoftware,KiCad,Pcbnew,8.0.1*%
%TF.CreationDate,2024-04-01T02:15:42+02:00*%
%TF.ProjectId,ef_hbmob,65665f68-626d-46f6-922e-6b696361645f,rev?*%
%TF.SameCoordinates,Original*%
%TF.FileFunction,Legend,Top*%
%TF.FilePolarity,Positive*%
%FSLAX46Y46*%
G04 Gerber Fmt 4.6, Leading zero omitted, Abs format (unit mm)*
G04 Created by KiCad (PCBNEW 8.0.1) date 2024-04-01 02:15:42*
%MOMM*%
%LPD*%
G01*
G04 APERTURE LIST*
%ADD10C,0.250000*%
%ADD11C,0.150000*%
%ADD12C,0.254000*%
%ADD13C,0.120000*%
%ADD14C,0.080000*%
%ADD15C,0.160000*%
%ADD16C,0.300000*%
G04 APERTURE END LIST*
D10*
X83650157Y-82822106D02*
X83602537Y-82964963D01*
X83602537Y-82964963D02*
X83602537Y-83203058D01*
X83602537Y-83203058D02*
X83650157Y-83298296D01*
X83650157Y-83298296D02*
X83697776Y-83345915D01*
X83697776Y-83345915D02*
X83793014Y-83393534D01*
X83793014Y-83393534D02*
X83888252Y-83393534D01*
X83888252Y-83393534D02*
X83983490Y-83345915D01*
X83983490Y-83345915D02*
X84031109Y-83298296D01*
X84031109Y-83298296D02*
X84078728Y-83203058D01*
X84078728Y-83203058D02*
X84126347Y-83012582D01*
X84126347Y-83012582D02*
X84173966Y-82917344D01*
X84173966Y-82917344D02*
X84221585Y-82869725D01*
X84221585Y-82869725D02*
X84316823Y-82822106D01*
X84316823Y-82822106D02*
X84412061Y-82822106D01*
X84412061Y-82822106D02*
X84507299Y-82869725D01*
X84507299Y-82869725D02*
X84554918Y-82917344D01*
X84554918Y-82917344D02*
X84602537Y-83012582D01*
X84602537Y-83012582D02*
X84602537Y-83250677D01*
X84602537Y-83250677D02*
X84554918Y-83393534D01*
X84602537Y-83726868D02*
X83602537Y-83964963D01*
X83602537Y-83964963D02*
X84316823Y-84155439D01*
X84316823Y-84155439D02*
X83602537Y-84345915D01*
X83602537Y-84345915D02*
X84602537Y-84584011D01*
X83602537Y-84964963D02*
X84602537Y-84964963D01*
X84602537Y-84964963D02*
X84602537Y-85203058D01*
X84602537Y-85203058D02*
X84554918Y-85345915D01*
X84554918Y-85345915D02*
X84459680Y-85441153D01*
X84459680Y-85441153D02*
X84364442Y-85488772D01*
X84364442Y-85488772D02*
X84173966Y-85536391D01*
X84173966Y-85536391D02*
X84031109Y-85536391D01*
X84031109Y-85536391D02*
X83840633Y-85488772D01*
X83840633Y-85488772D02*
X83745395Y-85441153D01*
X83745395Y-85441153D02*
X83650157Y-85345915D01*
X83650157Y-85345915D02*
X83602537Y-85203058D01*
X83602537Y-85203058D02*
X83602537Y-84964963D01*
X83602537Y-85964963D02*
X84602537Y-85964963D01*
X84602537Y-86631629D02*
X84602537Y-86822105D01*
X84602537Y-86822105D02*
X84554918Y-86917343D01*
X84554918Y-86917343D02*
X84459680Y-87012581D01*
X84459680Y-87012581D02*
X84269204Y-87060200D01*
X84269204Y-87060200D02*
X83935871Y-87060200D01*
X83935871Y-87060200D02*
X83745395Y-87012581D01*
X83745395Y-87012581D02*
X83650157Y-86917343D01*
X83650157Y-86917343D02*
X83602537Y-86822105D01*
X83602537Y-86822105D02*
X83602537Y-86631629D01*
X83602537Y-86631629D02*
X83650157Y-86536391D01*
X83650157Y-86536391D02*
X83745395Y-86441153D01*
X83745395Y-86441153D02*
X83935871Y-86393534D01*
X83935871Y-86393534D02*
X84269204Y-86393534D01*
X84269204Y-86393534D02*
X84459680Y-86441153D01*
X84459680Y-86441153D02*
X84554918Y-86536391D01*
X84554918Y-86536391D02*
X84602537Y-86631629D01*
X87054918Y-83393534D02*
X87102537Y-83298296D01*
X87102537Y-83298296D02*
X87102537Y-83155439D01*
X87102537Y-83155439D02*
X87054918Y-83012582D01*
X87054918Y-83012582D02*
X86959680Y-82917344D01*
X86959680Y-82917344D02*
X86864442Y-82869725D01*
X86864442Y-82869725D02*
X86673966Y-82822106D01*
X86673966Y-82822106D02*
X86531109Y-82822106D01*
X86531109Y-82822106D02*
X86340633Y-82869725D01*
X86340633Y-82869725D02*
X86245395Y-82917344D01*
X86245395Y-82917344D02*
X86150157Y-83012582D01*
X86150157Y-83012582D02*
X86102537Y-83155439D01*
X86102537Y-83155439D02*
X86102537Y-83250677D01*
X86102537Y-83250677D02*
X86150157Y-83393534D01*
X86150157Y-83393534D02*
X86197776Y-83441153D01*
X86197776Y-83441153D02*
X86531109Y-83441153D01*
X86531109Y-83441153D02*
X86531109Y-83250677D01*
X86102537Y-83869725D02*
X87102537Y-83869725D01*
X87102537Y-83869725D02*
X86102537Y-84441153D01*
X86102537Y-84441153D02*
X87102537Y-84441153D01*
X86102537Y-84917344D02*
X87102537Y-84917344D01*
X87102537Y-84917344D02*
X87102537Y-85155439D01*
X87102537Y-85155439D02*
X87054918Y-85298296D01*
X87054918Y-85298296D02*
X86959680Y-85393534D01*
X86959680Y-85393534D02*
X86864442Y-85441153D01*
X86864442Y-85441153D02*
X86673966Y-85488772D01*
X86673966Y-85488772D02*
X86531109Y-85488772D01*
X86531109Y-85488772D02*
X86340633Y-85441153D01*
X86340633Y-85441153D02*
X86245395Y-85393534D01*
X86245395Y-85393534D02*
X86150157Y-85298296D01*
X86150157Y-85298296D02*
X86102537Y-85155439D01*
X86102537Y-85155439D02*
X86102537Y-84917344D01*
X112602537Y-83274487D02*
X112602537Y-83893534D01*
X112602537Y-83893534D02*
X112221585Y-83560201D01*
X112221585Y-83560201D02*
X112221585Y-83703058D01*
X112221585Y-83703058D02*
X112173966Y-83798296D01*
X112173966Y-83798296D02*
X112126347Y-83845915D01*
X112126347Y-83845915D02*
X112031109Y-83893534D01*
X112031109Y-83893534D02*
X111793014Y-83893534D01*
X111793014Y-83893534D02*
X111697776Y-83845915D01*
X111697776Y-83845915D02*
X111650157Y-83798296D01*
X111650157Y-83798296D02*
X111602537Y-83703058D01*
X111602537Y-83703058D02*
X111602537Y-83417344D01*
X111602537Y-83417344D02*
X111650157Y-83322106D01*
X111650157Y-83322106D02*
X111697776Y-83274487D01*
X111697776Y-84322106D02*
X111650157Y-84369725D01*
X111650157Y-84369725D02*
X111602537Y-84322106D01*
X111602537Y-84322106D02*
X111650157Y-84274487D01*
X111650157Y-84274487D02*
X111697776Y-84322106D01*
X111697776Y-84322106D02*
X111602537Y-84322106D01*
X112602537Y-84703058D02*
X112602537Y-85322105D01*
X112602537Y-85322105D02*
X112221585Y-84988772D01*
X112221585Y-84988772D02*
X112221585Y-85131629D01*
X112221585Y-85131629D02*
X112173966Y-85226867D01*
X112173966Y-85226867D02*
X112126347Y-85274486D01*
X112126347Y-85274486D02*
X112031109Y-85322105D01*
X112031109Y-85322105D02*
X111793014Y-85322105D01*
X111793014Y-85322105D02*
X111697776Y-85274486D01*
X111697776Y-85274486D02*
X111650157Y-85226867D01*
X111650157Y-85226867D02*
X111602537Y-85131629D01*
X111602537Y-85131629D02*
X111602537Y-84845915D01*
X111602537Y-84845915D02*
X111650157Y-84750677D01*
X111650157Y-84750677D02*
X111697776Y-84703058D01*
X112602537Y-85607820D02*
X111602537Y-85941153D01*
X111602537Y-85941153D02*
X112602537Y-86274486D01*
X116635380Y-83893534D02*
X116635380Y-83322106D01*
X116635380Y-83607820D02*
X117635380Y-83607820D01*
X117635380Y-83607820D02*
X117492523Y-83512582D01*
X117492523Y-83512582D02*
X117397285Y-83417344D01*
X117397285Y-83417344D02*
X117349666Y-83322106D01*
X117635380Y-84750677D02*
X117635380Y-84560201D01*
X117635380Y-84560201D02*
X117587761Y-84464963D01*
X117587761Y-84464963D02*
X117540142Y-84417344D01*
X117540142Y-84417344D02*
X117397285Y-84322106D01*
X117397285Y-84322106D02*
X117206809Y-84274487D01*
X117206809Y-84274487D02*
X116825857Y-84274487D01*
X116825857Y-84274487D02*
X116730619Y-84322106D01*
X116730619Y-84322106D02*
X116683000Y-84369725D01*
X116683000Y-84369725D02*
X116635380Y-84464963D01*
X116635380Y-84464963D02*
X116635380Y-84655439D01*
X116635380Y-84655439D02*
X116683000Y-84750677D01*
X116683000Y-84750677D02*
X116730619Y-84798296D01*
X116730619Y-84798296D02*
X116825857Y-84845915D01*
X116825857Y-84845915D02*
X117063952Y-84845915D01*
X117063952Y-84845915D02*
X117159190Y-84798296D01*
X117159190Y-84798296D02*
X117206809Y-84750677D01*
X117206809Y-84750677D02*
X117254428Y-84655439D01*
X117254428Y-84655439D02*
X117254428Y-84464963D01*
X117254428Y-84464963D02*
X117206809Y-84369725D01*
X117206809Y-84369725D02*
X117159190Y-84322106D01*
X117159190Y-84322106D02*
X117063952Y-84274487D01*
X81150157Y-82822106D02*
X81102537Y-82964963D01*
X81102537Y-82964963D02*
X81102537Y-83203058D01*
X81102537Y-83203058D02*
X81150157Y-83298296D01*
X81150157Y-83298296D02*
X81197776Y-83345915D01*
X81197776Y-83345915D02*
X81293014Y-83393534D01*
X81293014Y-83393534D02*
X81388252Y-83393534D01*
X81388252Y-83393534D02*
X81483490Y-83345915D01*
X81483490Y-83345915D02*
X81531109Y-83298296D01*
X81531109Y-83298296D02*
X81578728Y-83203058D01*
X81578728Y-83203058D02*
X81626347Y-83012582D01*
X81626347Y-83012582D02*
X81673966Y-82917344D01*
X81673966Y-82917344D02*
X81721585Y-82869725D01*
X81721585Y-82869725D02*
X81816823Y-82822106D01*
X81816823Y-82822106D02*
X81912061Y-82822106D01*
X81912061Y-82822106D02*
X82007299Y-82869725D01*
X82007299Y-82869725D02*
X82054918Y-82917344D01*
X82054918Y-82917344D02*
X82102537Y-83012582D01*
X82102537Y-83012582D02*
X82102537Y-83250677D01*
X82102537Y-83250677D02*
X82054918Y-83393534D01*
X82102537Y-83726868D02*
X81102537Y-83964963D01*
X81102537Y-83964963D02*
X81816823Y-84155439D01*
X81816823Y-84155439D02*
X81102537Y-84345915D01*
X81102537Y-84345915D02*
X82102537Y-84584011D01*
X81102537Y-84964963D02*
X82102537Y-84964963D01*
X82102537Y-84964963D02*
X82102537Y-85203058D01*
X82102537Y-85203058D02*
X82054918Y-85345915D01*
X82054918Y-85345915D02*
X81959680Y-85441153D01*
X81959680Y-85441153D02*
X81864442Y-85488772D01*
X81864442Y-85488772D02*
X81673966Y-85536391D01*
X81673966Y-85536391D02*
X81531109Y-85536391D01*
X81531109Y-85536391D02*
X81340633Y-85488772D01*
X81340633Y-85488772D02*
X81245395Y-85441153D01*
X81245395Y-85441153D02*
X81150157Y-85345915D01*
X81150157Y-85345915D02*
X81102537Y-85203058D01*
X81102537Y-85203058D02*
X81102537Y-84964963D01*
X81197776Y-86536391D02*
X81150157Y-86488772D01*
X81150157Y-86488772D02*
X81102537Y-86345915D01*
X81102537Y-86345915D02*
X81102537Y-86250677D01*
X81102537Y-86250677D02*
X81150157Y-86107820D01*
X81150157Y-86107820D02*
X81245395Y-86012582D01*
X81245395Y-86012582D02*
X81340633Y-85964963D01*
X81340633Y-85964963D02*
X81531109Y-85917344D01*
X81531109Y-85917344D02*
X81673966Y-85917344D01*
X81673966Y-85917344D02*
X81864442Y-85964963D01*
X81864442Y-85964963D02*
X81959680Y-86012582D01*
X81959680Y-86012582D02*
X82054918Y-86107820D01*
X82054918Y-86107820D02*
X82102537Y-86250677D01*
X82102537Y-86250677D02*
X82102537Y-86345915D01*
X82102537Y-86345915D02*
X82054918Y-86488772D01*
X82054918Y-86488772D02*
X82007299Y-86536391D01*
X81102537Y-87441153D02*
X81102537Y-86964963D01*
X81102537Y-86964963D02*
X82102537Y-86964963D01*
X81102537Y-87774487D02*
X82102537Y-87774487D01*
X81102537Y-88345915D02*
X81673966Y-87917344D01*
X82102537Y-88345915D02*
X81531109Y-87774487D01*
X119602537Y-83893534D02*
X119602537Y-83322106D01*
X119602537Y-83607820D02*
X120602537Y-83607820D01*
X120602537Y-83607820D02*
X120459680Y-83512582D01*
X120459680Y-83512582D02*
X120364442Y-83417344D01*
X120364442Y-83417344D02*
X120316823Y-83322106D01*
X120602537Y-84798296D02*
X120602537Y-84322106D01*
X120602537Y-84322106D02*
X120126347Y-84274487D01*
X120126347Y-84274487D02*
X120173966Y-84322106D01*
X120173966Y-84322106D02*
X120221585Y-84417344D01*
X120221585Y-84417344D02*
X120221585Y-84655439D01*
X120221585Y-84655439D02*
X120173966Y-84750677D01*
X120173966Y-84750677D02*
X120126347Y-84798296D01*
X120126347Y-84798296D02*
X120031109Y-84845915D01*
X120031109Y-84845915D02*
X119793014Y-84845915D01*
X119793014Y-84845915D02*
X119697776Y-84798296D01*
X119697776Y-84798296D02*
X119650157Y-84750677D01*
X119650157Y-84750677D02*
X119602537Y-84655439D01*
X119602537Y-84655439D02*
X119602537Y-84417344D01*
X119602537Y-84417344D02*
X119650157Y-84322106D01*
X119650157Y-84322106D02*
X119697776Y-84274487D01*
X110054918Y-83893534D02*
X110102537Y-83798296D01*
X110102537Y-83798296D02*
X110102537Y-83655439D01*
X110102537Y-83655439D02*
X110054918Y-83512582D01*
X110054918Y-83512582D02*
X109959680Y-83417344D01*
X109959680Y-83417344D02*
X109864442Y-83369725D01*
X109864442Y-83369725D02*
X109673966Y-83322106D01*
X109673966Y-83322106D02*
X109531109Y-83322106D01*
X109531109Y-83322106D02*
X109340633Y-83369725D01*
X109340633Y-83369725D02*
X109245395Y-83417344D01*
X109245395Y-83417344D02*
X109150157Y-83512582D01*
X109150157Y-83512582D02*
X109102537Y-83655439D01*
X109102537Y-83655439D02*
X109102537Y-83750677D01*
X109102537Y-83750677D02*
X109150157Y-83893534D01*
X109150157Y-83893534D02*
X109197776Y-83941153D01*
X109197776Y-83941153D02*
X109531109Y-83941153D01*
X109531109Y-83941153D02*
X109531109Y-83750677D01*
X109102537Y-84369725D02*
X110102537Y-84369725D01*
X110102537Y-84369725D02*
X109102537Y-84941153D01*
X109102537Y-84941153D02*
X110102537Y-84941153D01*
X109102537Y-85417344D02*
X110102537Y-85417344D01*
X110102537Y-85417344D02*
X110102537Y-85655439D01*
X110102537Y-85655439D02*
X110054918Y-85798296D01*
X110054918Y-85798296D02*
X109959680Y-85893534D01*
X109959680Y-85893534D02*
X109864442Y-85941153D01*
X109864442Y-85941153D02*
X109673966Y-85988772D01*
X109673966Y-85988772D02*
X109531109Y-85988772D01*
X109531109Y-85988772D02*
X109340633Y-85941153D01*
X109340633Y-85941153D02*
X109245395Y-85893534D01*
X109245395Y-85893534D02*
X109150157Y-85798296D01*
X109150157Y-85798296D02*
X109102537Y-85655439D01*
X109102537Y-85655439D02*
X109102537Y-85417344D01*
X128102537Y-83560201D02*
X128102537Y-83655439D01*
X128102537Y-83655439D02*
X128054918Y-83750677D01*
X128054918Y-83750677D02*
X128007299Y-83798296D01*
X128007299Y-83798296D02*
X127912061Y-83845915D01*
X127912061Y-83845915D02*
X127721585Y-83893534D01*
X127721585Y-83893534D02*
X127483490Y-83893534D01*
X127483490Y-83893534D02*
X127293014Y-83845915D01*
X127293014Y-83845915D02*
X127197776Y-83798296D01*
X127197776Y-83798296D02*
X127150157Y-83750677D01*
X127150157Y-83750677D02*
X127102537Y-83655439D01*
X127102537Y-83655439D02*
X127102537Y-83560201D01*
X127102537Y-83560201D02*
X127150157Y-83464963D01*
X127150157Y-83464963D02*
X127197776Y-83417344D01*
X127197776Y-83417344D02*
X127293014Y-83369725D01*
X127293014Y-83369725D02*
X127483490Y-83322106D01*
X127483490Y-83322106D02*
X127721585Y-83322106D01*
X127721585Y-83322106D02*
X127912061Y-83369725D01*
X127912061Y-83369725D02*
X128007299Y-83417344D01*
X128007299Y-83417344D02*
X128054918Y-83464963D01*
X128054918Y-83464963D02*
X128102537Y-83560201D01*
X128102537Y-84750677D02*
X128102537Y-84560201D01*
X128102537Y-84560201D02*
X128054918Y-84464963D01*
X128054918Y-84464963D02*
X128007299Y-84417344D01*
X128007299Y-84417344D02*
X127864442Y-84322106D01*
X127864442Y-84322106D02*
X127673966Y-84274487D01*
X127673966Y-84274487D02*
X127293014Y-84274487D01*
X127293014Y-84274487D02*
X127197776Y-84322106D01*
X127197776Y-84322106D02*
X127150157Y-84369725D01*
X127150157Y-84369725D02*
X127102537Y-84464963D01*
X127102537Y-84464963D02*
X127102537Y-84655439D01*
X127102537Y-84655439D02*
X127150157Y-84750677D01*
X127150157Y-84750677D02*
X127197776Y-84798296D01*
X127197776Y-84798296D02*
X127293014Y-84845915D01*
X127293014Y-84845915D02*
X127531109Y-84845915D01*
X127531109Y-84845915D02*
X127626347Y-84798296D01*
X127626347Y-84798296D02*
X127673966Y-84750677D01*
X127673966Y-84750677D02*
X127721585Y-84655439D01*
X127721585Y-84655439D02*
X127721585Y-84464963D01*
X127721585Y-84464963D02*
X127673966Y-84369725D01*
X127673966Y-84369725D02*
X127626347Y-84322106D01*
X127626347Y-84322106D02*
X127531109Y-84274487D01*
X133102537Y-83560201D02*
X133102537Y-83655439D01*
X133102537Y-83655439D02*
X133054918Y-83750677D01*
X133054918Y-83750677D02*
X133007299Y-83798296D01*
X133007299Y-83798296D02*
X132912061Y-83845915D01*
X132912061Y-83845915D02*
X132721585Y-83893534D01*
X132721585Y-83893534D02*
X132483490Y-83893534D01*
X132483490Y-83893534D02*
X132293014Y-83845915D01*
X132293014Y-83845915D02*
X132197776Y-83798296D01*
X132197776Y-83798296D02*
X132150157Y-83750677D01*
X132150157Y-83750677D02*
X132102537Y-83655439D01*
X132102537Y-83655439D02*
X132102537Y-83560201D01*
X132102537Y-83560201D02*
X132150157Y-83464963D01*
X132150157Y-83464963D02*
X132197776Y-83417344D01*
X132197776Y-83417344D02*
X132293014Y-83369725D01*
X132293014Y-83369725D02*
X132483490Y-83322106D01*
X132483490Y-83322106D02*
X132721585Y-83322106D01*
X132721585Y-83322106D02*
X132912061Y-83369725D01*
X132912061Y-83369725D02*
X133007299Y-83417344D01*
X133007299Y-83417344D02*
X133054918Y-83464963D01*
X133054918Y-83464963D02*
X133102537Y-83560201D01*
X133007299Y-84274487D02*
X133054918Y-84322106D01*
X133054918Y-84322106D02*
X133102537Y-84417344D01*
X133102537Y-84417344D02*
X133102537Y-84655439D01*
X133102537Y-84655439D02*
X133054918Y-84750677D01*
X133054918Y-84750677D02*
X133007299Y-84798296D01*
X133007299Y-84798296D02*
X132912061Y-84845915D01*
X132912061Y-84845915D02*
X132816823Y-84845915D01*
X132816823Y-84845915D02*
X132673966Y-84798296D01*
X132673966Y-84798296D02*
X132102537Y-84226868D01*
X132102537Y-84226868D02*
X132102537Y-84845915D01*
X130602537Y-83560201D02*
X130602537Y-83655439D01*
X130602537Y-83655439D02*
X130554918Y-83750677D01*
X130554918Y-83750677D02*
X130507299Y-83798296D01*
X130507299Y-83798296D02*
X130412061Y-83845915D01*
X130412061Y-83845915D02*
X130221585Y-83893534D01*
X130221585Y-83893534D02*
X129983490Y-83893534D01*
X129983490Y-83893534D02*
X129793014Y-83845915D01*
X129793014Y-83845915D02*
X129697776Y-83798296D01*
X129697776Y-83798296D02*
X129650157Y-83750677D01*
X129650157Y-83750677D02*
X129602537Y-83655439D01*
X129602537Y-83655439D02*
X129602537Y-83560201D01*
X129602537Y-83560201D02*
X129650157Y-83464963D01*
X129650157Y-83464963D02*
X129697776Y-83417344D01*
X129697776Y-83417344D02*
X129793014Y-83369725D01*
X129793014Y-83369725D02*
X129983490Y-83322106D01*
X129983490Y-83322106D02*
X130221585Y-83322106D01*
X130221585Y-83322106D02*
X130412061Y-83369725D01*
X130412061Y-83369725D02*
X130507299Y-83417344D01*
X130507299Y-83417344D02*
X130554918Y-83464963D01*
X130554918Y-83464963D02*
X130602537Y-83560201D01*
X130602537Y-84226868D02*
X130602537Y-84845915D01*
X130602537Y-84845915D02*
X130221585Y-84512582D01*
X130221585Y-84512582D02*
X130221585Y-84655439D01*
X130221585Y-84655439D02*
X130173966Y-84750677D01*
X130173966Y-84750677D02*
X130126347Y-84798296D01*
X130126347Y-84798296D02*
X130031109Y-84845915D01*
X130031109Y-84845915D02*
X129793014Y-84845915D01*
X129793014Y-84845915D02*
X129697776Y-84798296D01*
X129697776Y-84798296D02*
X129650157Y-84750677D01*
X129650157Y-84750677D02*
X129602537Y-84655439D01*
X129602537Y-84655439D02*
X129602537Y-84369725D01*
X129602537Y-84369725D02*
X129650157Y-84274487D01*
X129650157Y-84274487D02*
X129697776Y-84226868D01*
X125602537Y-83560201D02*
X125602537Y-83655439D01*
X125602537Y-83655439D02*
X125554918Y-83750677D01*
X125554918Y-83750677D02*
X125507299Y-83798296D01*
X125507299Y-83798296D02*
X125412061Y-83845915D01*
X125412061Y-83845915D02*
X125221585Y-83893534D01*
X125221585Y-83893534D02*
X124983490Y-83893534D01*
X124983490Y-83893534D02*
X124793014Y-83845915D01*
X124793014Y-83845915D02*
X124697776Y-83798296D01*
X124697776Y-83798296D02*
X124650157Y-83750677D01*
X124650157Y-83750677D02*
X124602537Y-83655439D01*
X124602537Y-83655439D02*
X124602537Y-83560201D01*
X124602537Y-83560201D02*
X124650157Y-83464963D01*
X124650157Y-83464963D02*
X124697776Y-83417344D01*
X124697776Y-83417344D02*
X124793014Y-83369725D01*
X124793014Y-83369725D02*
X124983490Y-83322106D01*
X124983490Y-83322106D02*
X125221585Y-83322106D01*
X125221585Y-83322106D02*
X125412061Y-83369725D01*
X125412061Y-83369725D02*
X125507299Y-83417344D01*
X125507299Y-83417344D02*
X125554918Y-83464963D01*
X125554918Y-83464963D02*
X125602537Y-83560201D01*
X125602537Y-84226868D02*
X125602537Y-84893534D01*
X125602537Y-84893534D02*
X124602537Y-84464963D01*
X114102537Y-83893534D02*
X114102537Y-83322106D01*
X114102537Y-83607820D02*
X115102537Y-83607820D01*
X115102537Y-83607820D02*
X114959680Y-83512582D01*
X114959680Y-83512582D02*
X114864442Y-83417344D01*
X114864442Y-83417344D02*
X114816823Y-83322106D01*
X115102537Y-84226868D02*
X115102537Y-84893534D01*
X115102537Y-84893534D02*
X114102537Y-84464963D01*
X79602537Y-82774487D02*
X79602537Y-83393534D01*
X79602537Y-83393534D02*
X79221585Y-83060201D01*
X79221585Y-83060201D02*
X79221585Y-83203058D01*
X79221585Y-83203058D02*
X79173966Y-83298296D01*
X79173966Y-83298296D02*
X79126347Y-83345915D01*
X79126347Y-83345915D02*
X79031109Y-83393534D01*
X79031109Y-83393534D02*
X78793014Y-83393534D01*
X78793014Y-83393534D02*
X78697776Y-83345915D01*
X78697776Y-83345915D02*
X78650157Y-83298296D01*
X78650157Y-83298296D02*
X78602537Y-83203058D01*
X78602537Y-83203058D02*
X78602537Y-82917344D01*
X78602537Y-82917344D02*
X78650157Y-82822106D01*
X78650157Y-82822106D02*
X78697776Y-82774487D01*
X78697776Y-83822106D02*
X78650157Y-83869725D01*
X78650157Y-83869725D02*
X78602537Y-83822106D01*
X78602537Y-83822106D02*
X78650157Y-83774487D01*
X78650157Y-83774487D02*
X78697776Y-83822106D01*
X78697776Y-83822106D02*
X78602537Y-83822106D01*
X79602537Y-84203058D02*
X79602537Y-84822105D01*
X79602537Y-84822105D02*
X79221585Y-84488772D01*
X79221585Y-84488772D02*
X79221585Y-84631629D01*
X79221585Y-84631629D02*
X79173966Y-84726867D01*
X79173966Y-84726867D02*
X79126347Y-84774486D01*
X79126347Y-84774486D02*
X79031109Y-84822105D01*
X79031109Y-84822105D02*
X78793014Y-84822105D01*
X78793014Y-84822105D02*
X78697776Y-84774486D01*
X78697776Y-84774486D02*
X78650157Y-84726867D01*
X78650157Y-84726867D02*
X78602537Y-84631629D01*
X78602537Y-84631629D02*
X78602537Y-84345915D01*
X78602537Y-84345915D02*
X78650157Y-84250677D01*
X78650157Y-84250677D02*
X78697776Y-84203058D01*
X79602537Y-85107820D02*
X78602537Y-85441153D01*
X78602537Y-85441153D02*
X79602537Y-85774486D01*
X122102537Y-83893534D02*
X122102537Y-83322106D01*
X122102537Y-83607820D02*
X123102537Y-83607820D01*
X123102537Y-83607820D02*
X122959680Y-83512582D01*
X122959680Y-83512582D02*
X122864442Y-83417344D01*
X122864442Y-83417344D02*
X122816823Y-83322106D01*
X122769204Y-84750677D02*
X122102537Y-84750677D01*
X123150157Y-84512582D02*
X122435871Y-84274487D01*
X122435871Y-84274487D02*
X122435871Y-84893534D01*
D11*
X139133824Y-59374357D02*
X139276681Y-59421976D01*
X139276681Y-59421976D02*
X139514776Y-59421976D01*
X139514776Y-59421976D02*
X139610014Y-59374357D01*
X139610014Y-59374357D02*
X139657633Y-59326737D01*
X139657633Y-59326737D02*
X139705252Y-59231499D01*
X139705252Y-59231499D02*
X139705252Y-59136261D01*
X139705252Y-59136261D02*
X139657633Y-59041023D01*
X139657633Y-59041023D02*
X139610014Y-58993404D01*
X139610014Y-58993404D02*
X139514776Y-58945785D01*
X139514776Y-58945785D02*
X139324300Y-58898166D01*
X139324300Y-58898166D02*
X139229062Y-58850547D01*
X139229062Y-58850547D02*
X139181443Y-58802928D01*
X139181443Y-58802928D02*
X139133824Y-58707690D01*
X139133824Y-58707690D02*
X139133824Y-58612452D01*
X139133824Y-58612452D02*
X139181443Y-58517214D01*
X139181443Y-58517214D02*
X139229062Y-58469595D01*
X139229062Y-58469595D02*
X139324300Y-58421976D01*
X139324300Y-58421976D02*
X139562395Y-58421976D01*
X139562395Y-58421976D02*
X139705252Y-58469595D01*
X140038586Y-58421976D02*
X140276681Y-59421976D01*
X140276681Y-59421976D02*
X140467157Y-58707690D01*
X140467157Y-58707690D02*
X140657633Y-59421976D01*
X140657633Y-59421976D02*
X140895729Y-58421976D01*
X141229062Y-58517214D02*
X141276681Y-58469595D01*
X141276681Y-58469595D02*
X141371919Y-58421976D01*
X141371919Y-58421976D02*
X141610014Y-58421976D01*
X141610014Y-58421976D02*
X141705252Y-58469595D01*
X141705252Y-58469595D02*
X141752871Y-58517214D01*
X141752871Y-58517214D02*
X141800490Y-58612452D01*
X141800490Y-58612452D02*
X141800490Y-58707690D01*
X141800490Y-58707690D02*
X141752871Y-58850547D01*
X141752871Y-58850547D02*
X141181443Y-59421976D01*
X141181443Y-59421976D02*
X141800490Y-59421976D01*
X61205252Y-42921976D02*
X61205252Y-41921976D01*
X61205252Y-42398166D02*
X61776680Y-42398166D01*
X61776680Y-42921976D02*
X61776680Y-41921976D01*
X62776680Y-42921976D02*
X62205252Y-42921976D01*
X62490966Y-42921976D02*
X62490966Y-41921976D01*
X62490966Y-41921976D02*
X62395728Y-42064833D01*
X62395728Y-42064833D02*
X62300490Y-42160071D01*
X62300490Y-42160071D02*
X62205252Y-42207690D01*
X96324299Y-54421976D02*
X95990966Y-53945785D01*
X95752871Y-54421976D02*
X95752871Y-53421976D01*
X95752871Y-53421976D02*
X96133823Y-53421976D01*
X96133823Y-53421976D02*
X96229061Y-53469595D01*
X96229061Y-53469595D02*
X96276680Y-53517214D01*
X96276680Y-53517214D02*
X96324299Y-53612452D01*
X96324299Y-53612452D02*
X96324299Y-53755309D01*
X96324299Y-53755309D02*
X96276680Y-53850547D01*
X96276680Y-53850547D02*
X96229061Y-53898166D01*
X96229061Y-53898166D02*
X96133823Y-53945785D01*
X96133823Y-53945785D02*
X95752871Y-53945785D01*
X97276680Y-54421976D02*
X96705252Y-54421976D01*
X96990966Y-54421976D02*
X96990966Y-53421976D01*
X96990966Y-53421976D02*
X96895728Y-53564833D01*
X96895728Y-53564833D02*
X96800490Y-53660071D01*
X96800490Y-53660071D02*
X96705252Y-53707690D01*
X98229061Y-54421976D02*
X97657633Y-54421976D01*
X97943347Y-54421976D02*
X97943347Y-53421976D01*
X97943347Y-53421976D02*
X97848109Y-53564833D01*
X97848109Y-53564833D02*
X97752871Y-53660071D01*
X97752871Y-53660071D02*
X97657633Y-53707690D01*
X81344299Y-62421976D02*
X81010966Y-61945785D01*
X80772871Y-62421976D02*
X80772871Y-61421976D01*
X80772871Y-61421976D02*
X81153823Y-61421976D01*
X81153823Y-61421976D02*
X81249061Y-61469595D01*
X81249061Y-61469595D02*
X81296680Y-61517214D01*
X81296680Y-61517214D02*
X81344299Y-61612452D01*
X81344299Y-61612452D02*
X81344299Y-61755309D01*
X81344299Y-61755309D02*
X81296680Y-61850547D01*
X81296680Y-61850547D02*
X81249061Y-61898166D01*
X81249061Y-61898166D02*
X81153823Y-61945785D01*
X81153823Y-61945785D02*
X80772871Y-61945785D01*
X82296680Y-62421976D02*
X81725252Y-62421976D01*
X82010966Y-62421976D02*
X82010966Y-61421976D01*
X82010966Y-61421976D02*
X81915728Y-61564833D01*
X81915728Y-61564833D02*
X81820490Y-61660071D01*
X81820490Y-61660071D02*
X81725252Y-61707690D01*
X82868109Y-61850547D02*
X82772871Y-61802928D01*
X82772871Y-61802928D02*
X82725252Y-61755309D01*
X82725252Y-61755309D02*
X82677633Y-61660071D01*
X82677633Y-61660071D02*
X82677633Y-61612452D01*
X82677633Y-61612452D02*
X82725252Y-61517214D01*
X82725252Y-61517214D02*
X82772871Y-61469595D01*
X82772871Y-61469595D02*
X82868109Y-61421976D01*
X82868109Y-61421976D02*
X83058585Y-61421976D01*
X83058585Y-61421976D02*
X83153823Y-61469595D01*
X83153823Y-61469595D02*
X83201442Y-61517214D01*
X83201442Y-61517214D02*
X83249061Y-61612452D01*
X83249061Y-61612452D02*
X83249061Y-61660071D01*
X83249061Y-61660071D02*
X83201442Y-61755309D01*
X83201442Y-61755309D02*
X83153823Y-61802928D01*
X83153823Y-61802928D02*
X83058585Y-61850547D01*
X83058585Y-61850547D02*
X82868109Y-61850547D01*
X82868109Y-61850547D02*
X82772871Y-61898166D01*
X82772871Y-61898166D02*
X82725252Y-61945785D01*
X82725252Y-61945785D02*
X82677633Y-62041023D01*
X82677633Y-62041023D02*
X82677633Y-62231499D01*
X82677633Y-62231499D02*
X82725252Y-62326737D01*
X82725252Y-62326737D02*
X82772871Y-62374357D01*
X82772871Y-62374357D02*
X82868109Y-62421976D01*
X82868109Y-62421976D02*
X83058585Y-62421976D01*
X83058585Y-62421976D02*
X83153823Y-62374357D01*
X83153823Y-62374357D02*
X83201442Y-62326737D01*
X83201442Y-62326737D02*
X83249061Y-62231499D01*
X83249061Y-62231499D02*
X83249061Y-62041023D01*
X83249061Y-62041023D02*
X83201442Y-61945785D01*
X83201442Y-61945785D02*
X83153823Y-61898166D01*
X83153823Y-61898166D02*
X83058585Y-61850547D01*
X128800490Y-71421976D02*
X128467157Y-70945785D01*
X128229062Y-71421976D02*
X128229062Y-70421976D01*
X128229062Y-70421976D02*
X128610014Y-70421976D01*
X128610014Y-70421976D02*
X128705252Y-70469595D01*
X128705252Y-70469595D02*
X128752871Y-70517214D01*
X128752871Y-70517214D02*
X128800490Y-70612452D01*
X128800490Y-70612452D02*
X128800490Y-70755309D01*
X128800490Y-70755309D02*
X128752871Y-70850547D01*
X128752871Y-70850547D02*
X128705252Y-70898166D01*
X128705252Y-70898166D02*
X128610014Y-70945785D01*
X128610014Y-70945785D02*
X128229062Y-70945785D01*
X129371919Y-70850547D02*
X129276681Y-70802928D01*
X129276681Y-70802928D02*
X129229062Y-70755309D01*
X129229062Y-70755309D02*
X129181443Y-70660071D01*
X129181443Y-70660071D02*
X129181443Y-70612452D01*
X129181443Y-70612452D02*
X129229062Y-70517214D01*
X129229062Y-70517214D02*
X129276681Y-70469595D01*
X129276681Y-70469595D02*
X129371919Y-70421976D01*
X129371919Y-70421976D02*
X129562395Y-70421976D01*
X129562395Y-70421976D02*
X129657633Y-70469595D01*
X129657633Y-70469595D02*
X129705252Y-70517214D01*
X129705252Y-70517214D02*
X129752871Y-70612452D01*
X129752871Y-70612452D02*
X129752871Y-70660071D01*
X129752871Y-70660071D02*
X129705252Y-70755309D01*
X129705252Y-70755309D02*
X129657633Y-70802928D01*
X129657633Y-70802928D02*
X129562395Y-70850547D01*
X129562395Y-70850547D02*
X129371919Y-70850547D01*
X129371919Y-70850547D02*
X129276681Y-70898166D01*
X129276681Y-70898166D02*
X129229062Y-70945785D01*
X129229062Y-70945785D02*
X129181443Y-71041023D01*
X129181443Y-71041023D02*
X129181443Y-71231499D01*
X129181443Y-71231499D02*
X129229062Y-71326737D01*
X129229062Y-71326737D02*
X129276681Y-71374357D01*
X129276681Y-71374357D02*
X129371919Y-71421976D01*
X129371919Y-71421976D02*
X129562395Y-71421976D01*
X129562395Y-71421976D02*
X129657633Y-71374357D01*
X129657633Y-71374357D02*
X129705252Y-71326737D01*
X129705252Y-71326737D02*
X129752871Y-71231499D01*
X129752871Y-71231499D02*
X129752871Y-71041023D01*
X129752871Y-71041023D02*
X129705252Y-70945785D01*
X129705252Y-70945785D02*
X129657633Y-70898166D01*
X129657633Y-70898166D02*
X129562395Y-70850547D01*
X67980490Y-67826737D02*
X67932871Y-67874357D01*
X67932871Y-67874357D02*
X67790014Y-67921976D01*
X67790014Y-67921976D02*
X67694776Y-67921976D01*
X67694776Y-67921976D02*
X67551919Y-67874357D01*
X67551919Y-67874357D02*
X67456681Y-67779118D01*
X67456681Y-67779118D02*
X67409062Y-67683880D01*
X67409062Y-67683880D02*
X67361443Y-67493404D01*
X67361443Y-67493404D02*
X67361443Y-67350547D01*
X67361443Y-67350547D02*
X67409062Y-67160071D01*
X67409062Y-67160071D02*
X67456681Y-67064833D01*
X67456681Y-67064833D02*
X67551919Y-66969595D01*
X67551919Y-66969595D02*
X67694776Y-66921976D01*
X67694776Y-66921976D02*
X67790014Y-66921976D01*
X67790014Y-66921976D02*
X67932871Y-66969595D01*
X67932871Y-66969595D02*
X67980490Y-67017214D01*
X68456681Y-67921976D02*
X68647157Y-67921976D01*
X68647157Y-67921976D02*
X68742395Y-67874357D01*
X68742395Y-67874357D02*
X68790014Y-67826737D01*
X68790014Y-67826737D02*
X68885252Y-67683880D01*
X68885252Y-67683880D02*
X68932871Y-67493404D01*
X68932871Y-67493404D02*
X68932871Y-67112452D01*
X68932871Y-67112452D02*
X68885252Y-67017214D01*
X68885252Y-67017214D02*
X68837633Y-66969595D01*
X68837633Y-66969595D02*
X68742395Y-66921976D01*
X68742395Y-66921976D02*
X68551919Y-66921976D01*
X68551919Y-66921976D02*
X68456681Y-66969595D01*
X68456681Y-66969595D02*
X68409062Y-67017214D01*
X68409062Y-67017214D02*
X68361443Y-67112452D01*
X68361443Y-67112452D02*
X68361443Y-67350547D01*
X68361443Y-67350547D02*
X68409062Y-67445785D01*
X68409062Y-67445785D02*
X68456681Y-67493404D01*
X68456681Y-67493404D02*
X68551919Y-67541023D01*
X68551919Y-67541023D02*
X68742395Y-67541023D01*
X68742395Y-67541023D02*
X68837633Y-67493404D01*
X68837633Y-67493404D02*
X68885252Y-67445785D01*
X68885252Y-67445785D02*
X68932871Y-67350547D01*
X65389062Y-54421976D02*
X65389062Y-53421976D01*
X65389062Y-53421976D02*
X65627157Y-53421976D01*
X65627157Y-53421976D02*
X65770014Y-53469595D01*
X65770014Y-53469595D02*
X65865252Y-53564833D01*
X65865252Y-53564833D02*
X65912871Y-53660071D01*
X65912871Y-53660071D02*
X65960490Y-53850547D01*
X65960490Y-53850547D02*
X65960490Y-53993404D01*
X65960490Y-53993404D02*
X65912871Y-54183880D01*
X65912871Y-54183880D02*
X65865252Y-54279118D01*
X65865252Y-54279118D02*
X65770014Y-54374357D01*
X65770014Y-54374357D02*
X65627157Y-54421976D01*
X65627157Y-54421976D02*
X65389062Y-54421976D01*
X66912871Y-54421976D02*
X66341443Y-54421976D01*
X66627157Y-54421976D02*
X66627157Y-53421976D01*
X66627157Y-53421976D02*
X66531919Y-53564833D01*
X66531919Y-53564833D02*
X66436681Y-53660071D01*
X66436681Y-53660071D02*
X66341443Y-53707690D01*
X143801976Y-79960014D02*
X143325785Y-80293347D01*
X143801976Y-80531442D02*
X142801976Y-80531442D01*
X142801976Y-80531442D02*
X142801976Y-80150490D01*
X142801976Y-80150490D02*
X142849595Y-80055252D01*
X142849595Y-80055252D02*
X142897214Y-80007633D01*
X142897214Y-80007633D02*
X142992452Y-79960014D01*
X142992452Y-79960014D02*
X143135309Y-79960014D01*
X143135309Y-79960014D02*
X143230547Y-80007633D01*
X143230547Y-80007633D02*
X143278166Y-80055252D01*
X143278166Y-80055252D02*
X143325785Y-80150490D01*
X143325785Y-80150490D02*
X143325785Y-80531442D01*
X143801976Y-79007633D02*
X143801976Y-79579061D01*
X143801976Y-79293347D02*
X142801976Y-79293347D01*
X142801976Y-79293347D02*
X142944833Y-79388585D01*
X142944833Y-79388585D02*
X143040071Y-79483823D01*
X143040071Y-79483823D02*
X143087690Y-79579061D01*
X142801976Y-78674299D02*
X142801976Y-78007633D01*
X142801976Y-78007633D02*
X143801976Y-78436204D01*
X129300490Y-44421976D02*
X128967157Y-43945785D01*
X128729062Y-44421976D02*
X128729062Y-43421976D01*
X128729062Y-43421976D02*
X129110014Y-43421976D01*
X129110014Y-43421976D02*
X129205252Y-43469595D01*
X129205252Y-43469595D02*
X129252871Y-43517214D01*
X129252871Y-43517214D02*
X129300490Y-43612452D01*
X129300490Y-43612452D02*
X129300490Y-43755309D01*
X129300490Y-43755309D02*
X129252871Y-43850547D01*
X129252871Y-43850547D02*
X129205252Y-43898166D01*
X129205252Y-43898166D02*
X129110014Y-43945785D01*
X129110014Y-43945785D02*
X128729062Y-43945785D01*
X129633824Y-43421976D02*
X130300490Y-43421976D01*
X130300490Y-43421976D02*
X129871919Y-44421976D01*
X122720435Y-62187539D02*
X122387102Y-61711348D01*
X122149007Y-62187539D02*
X122149007Y-61187539D01*
X122149007Y-61187539D02*
X122529959Y-61187539D01*
X122529959Y-61187539D02*
X122625197Y-61235158D01*
X122625197Y-61235158D02*
X122672816Y-61282777D01*
X122672816Y-61282777D02*
X122720435Y-61378015D01*
X122720435Y-61378015D02*
X122720435Y-61520872D01*
X122720435Y-61520872D02*
X122672816Y-61616110D01*
X122672816Y-61616110D02*
X122625197Y-61663729D01*
X122625197Y-61663729D02*
X122529959Y-61711348D01*
X122529959Y-61711348D02*
X122149007Y-61711348D01*
X123625197Y-61187539D02*
X123149007Y-61187539D01*
X123149007Y-61187539D02*
X123101388Y-61663729D01*
X123101388Y-61663729D02*
X123149007Y-61616110D01*
X123149007Y-61616110D02*
X123244245Y-61568491D01*
X123244245Y-61568491D02*
X123482340Y-61568491D01*
X123482340Y-61568491D02*
X123577578Y-61616110D01*
X123577578Y-61616110D02*
X123625197Y-61663729D01*
X123625197Y-61663729D02*
X123672816Y-61758967D01*
X123672816Y-61758967D02*
X123672816Y-61997062D01*
X123672816Y-61997062D02*
X123625197Y-62092300D01*
X123625197Y-62092300D02*
X123577578Y-62139920D01*
X123577578Y-62139920D02*
X123482340Y-62187539D01*
X123482340Y-62187539D02*
X123244245Y-62187539D01*
X123244245Y-62187539D02*
X123149007Y-62139920D01*
X123149007Y-62139920D02*
X123101388Y-62092300D01*
X81871918Y-56017214D02*
X81776680Y-55969595D01*
X81776680Y-55969595D02*
X81681442Y-55874357D01*
X81681442Y-55874357D02*
X81538585Y-55731499D01*
X81538585Y-55731499D02*
X81443347Y-55683880D01*
X81443347Y-55683880D02*
X81348109Y-55683880D01*
X81395728Y-55921976D02*
X81300490Y-55874357D01*
X81300490Y-55874357D02*
X81205252Y-55779118D01*
X81205252Y-55779118D02*
X81157633Y-55588642D01*
X81157633Y-55588642D02*
X81157633Y-55255309D01*
X81157633Y-55255309D02*
X81205252Y-55064833D01*
X81205252Y-55064833D02*
X81300490Y-54969595D01*
X81300490Y-54969595D02*
X81395728Y-54921976D01*
X81395728Y-54921976D02*
X81586204Y-54921976D01*
X81586204Y-54921976D02*
X81681442Y-54969595D01*
X81681442Y-54969595D02*
X81776680Y-55064833D01*
X81776680Y-55064833D02*
X81824299Y-55255309D01*
X81824299Y-55255309D02*
X81824299Y-55588642D01*
X81824299Y-55588642D02*
X81776680Y-55779118D01*
X81776680Y-55779118D02*
X81681442Y-55874357D01*
X81681442Y-55874357D02*
X81586204Y-55921976D01*
X81586204Y-55921976D02*
X81395728Y-55921976D01*
X82157633Y-54921976D02*
X82776680Y-54921976D01*
X82776680Y-54921976D02*
X82443347Y-55302928D01*
X82443347Y-55302928D02*
X82586204Y-55302928D01*
X82586204Y-55302928D02*
X82681442Y-55350547D01*
X82681442Y-55350547D02*
X82729061Y-55398166D01*
X82729061Y-55398166D02*
X82776680Y-55493404D01*
X82776680Y-55493404D02*
X82776680Y-55731499D01*
X82776680Y-55731499D02*
X82729061Y-55826737D01*
X82729061Y-55826737D02*
X82681442Y-55874357D01*
X82681442Y-55874357D02*
X82586204Y-55921976D01*
X82586204Y-55921976D02*
X82300490Y-55921976D01*
X82300490Y-55921976D02*
X82205252Y-55874357D01*
X82205252Y-55874357D02*
X82157633Y-55826737D01*
X67620490Y-75826737D02*
X67572871Y-75874357D01*
X67572871Y-75874357D02*
X67430014Y-75921976D01*
X67430014Y-75921976D02*
X67334776Y-75921976D01*
X67334776Y-75921976D02*
X67191919Y-75874357D01*
X67191919Y-75874357D02*
X67096681Y-75779118D01*
X67096681Y-75779118D02*
X67049062Y-75683880D01*
X67049062Y-75683880D02*
X67001443Y-75493404D01*
X67001443Y-75493404D02*
X67001443Y-75350547D01*
X67001443Y-75350547D02*
X67049062Y-75160071D01*
X67049062Y-75160071D02*
X67096681Y-75064833D01*
X67096681Y-75064833D02*
X67191919Y-74969595D01*
X67191919Y-74969595D02*
X67334776Y-74921976D01*
X67334776Y-74921976D02*
X67430014Y-74921976D01*
X67430014Y-74921976D02*
X67572871Y-74969595D01*
X67572871Y-74969595D02*
X67620490Y-75017214D01*
X68191919Y-75350547D02*
X68096681Y-75302928D01*
X68096681Y-75302928D02*
X68049062Y-75255309D01*
X68049062Y-75255309D02*
X68001443Y-75160071D01*
X68001443Y-75160071D02*
X68001443Y-75112452D01*
X68001443Y-75112452D02*
X68049062Y-75017214D01*
X68049062Y-75017214D02*
X68096681Y-74969595D01*
X68096681Y-74969595D02*
X68191919Y-74921976D01*
X68191919Y-74921976D02*
X68382395Y-74921976D01*
X68382395Y-74921976D02*
X68477633Y-74969595D01*
X68477633Y-74969595D02*
X68525252Y-75017214D01*
X68525252Y-75017214D02*
X68572871Y-75112452D01*
X68572871Y-75112452D02*
X68572871Y-75160071D01*
X68572871Y-75160071D02*
X68525252Y-75255309D01*
X68525252Y-75255309D02*
X68477633Y-75302928D01*
X68477633Y-75302928D02*
X68382395Y-75350547D01*
X68382395Y-75350547D02*
X68191919Y-75350547D01*
X68191919Y-75350547D02*
X68096681Y-75398166D01*
X68096681Y-75398166D02*
X68049062Y-75445785D01*
X68049062Y-75445785D02*
X68001443Y-75541023D01*
X68001443Y-75541023D02*
X68001443Y-75731499D01*
X68001443Y-75731499D02*
X68049062Y-75826737D01*
X68049062Y-75826737D02*
X68096681Y-75874357D01*
X68096681Y-75874357D02*
X68191919Y-75921976D01*
X68191919Y-75921976D02*
X68382395Y-75921976D01*
X68382395Y-75921976D02*
X68477633Y-75874357D01*
X68477633Y-75874357D02*
X68525252Y-75826737D01*
X68525252Y-75826737D02*
X68572871Y-75731499D01*
X68572871Y-75731499D02*
X68572871Y-75541023D01*
X68572871Y-75541023D02*
X68525252Y-75445785D01*
X68525252Y-75445785D02*
X68477633Y-75398166D01*
X68477633Y-75398166D02*
X68382395Y-75350547D01*
X74725572Y-67351976D02*
X74725572Y-68161499D01*
X74725572Y-68161499D02*
X74773191Y-68256737D01*
X74773191Y-68256737D02*
X74820810Y-68304357D01*
X74820810Y-68304357D02*
X74916048Y-68351976D01*
X74916048Y-68351976D02*
X75106524Y-68351976D01*
X75106524Y-68351976D02*
X75201762Y-68304357D01*
X75201762Y-68304357D02*
X75249381Y-68256737D01*
X75249381Y-68256737D02*
X75297000Y-68161499D01*
X75297000Y-68161499D02*
X75297000Y-67351976D01*
X75725572Y-67447214D02*
X75773191Y-67399595D01*
X75773191Y-67399595D02*
X75868429Y-67351976D01*
X75868429Y-67351976D02*
X76106524Y-67351976D01*
X76106524Y-67351976D02*
X76201762Y-67399595D01*
X76201762Y-67399595D02*
X76249381Y-67447214D01*
X76249381Y-67447214D02*
X76297000Y-67542452D01*
X76297000Y-67542452D02*
X76297000Y-67637690D01*
X76297000Y-67637690D02*
X76249381Y-67780547D01*
X76249381Y-67780547D02*
X75677953Y-68351976D01*
X75677953Y-68351976D02*
X76297000Y-68351976D01*
X115120490Y-62326737D02*
X115072871Y-62374357D01*
X115072871Y-62374357D02*
X114930014Y-62421976D01*
X114930014Y-62421976D02*
X114834776Y-62421976D01*
X114834776Y-62421976D02*
X114691919Y-62374357D01*
X114691919Y-62374357D02*
X114596681Y-62279118D01*
X114596681Y-62279118D02*
X114549062Y-62183880D01*
X114549062Y-62183880D02*
X114501443Y-61993404D01*
X114501443Y-61993404D02*
X114501443Y-61850547D01*
X114501443Y-61850547D02*
X114549062Y-61660071D01*
X114549062Y-61660071D02*
X114596681Y-61564833D01*
X114596681Y-61564833D02*
X114691919Y-61469595D01*
X114691919Y-61469595D02*
X114834776Y-61421976D01*
X114834776Y-61421976D02*
X114930014Y-61421976D01*
X114930014Y-61421976D02*
X115072871Y-61469595D01*
X115072871Y-61469595D02*
X115120490Y-61517214D01*
X116025252Y-61421976D02*
X115549062Y-61421976D01*
X115549062Y-61421976D02*
X115501443Y-61898166D01*
X115501443Y-61898166D02*
X115549062Y-61850547D01*
X115549062Y-61850547D02*
X115644300Y-61802928D01*
X115644300Y-61802928D02*
X115882395Y-61802928D01*
X115882395Y-61802928D02*
X115977633Y-61850547D01*
X115977633Y-61850547D02*
X116025252Y-61898166D01*
X116025252Y-61898166D02*
X116072871Y-61993404D01*
X116072871Y-61993404D02*
X116072871Y-62231499D01*
X116072871Y-62231499D02*
X116025252Y-62326737D01*
X116025252Y-62326737D02*
X115977633Y-62374357D01*
X115977633Y-62374357D02*
X115882395Y-62421976D01*
X115882395Y-62421976D02*
X115644300Y-62421976D01*
X115644300Y-62421976D02*
X115549062Y-62374357D01*
X115549062Y-62374357D02*
X115501443Y-62326737D01*
X137349062Y-90421976D02*
X137349062Y-89421976D01*
X137349062Y-89421976D02*
X137587157Y-89421976D01*
X137587157Y-89421976D02*
X137730014Y-89469595D01*
X137730014Y-89469595D02*
X137825252Y-89564833D01*
X137825252Y-89564833D02*
X137872871Y-89660071D01*
X137872871Y-89660071D02*
X137920490Y-89850547D01*
X137920490Y-89850547D02*
X137920490Y-89993404D01*
X137920490Y-89993404D02*
X137872871Y-90183880D01*
X137872871Y-90183880D02*
X137825252Y-90279118D01*
X137825252Y-90279118D02*
X137730014Y-90374357D01*
X137730014Y-90374357D02*
X137587157Y-90421976D01*
X137587157Y-90421976D02*
X137349062Y-90421976D01*
X138253824Y-89421976D02*
X138872871Y-89421976D01*
X138872871Y-89421976D02*
X138539538Y-89802928D01*
X138539538Y-89802928D02*
X138682395Y-89802928D01*
X138682395Y-89802928D02*
X138777633Y-89850547D01*
X138777633Y-89850547D02*
X138825252Y-89898166D01*
X138825252Y-89898166D02*
X138872871Y-89993404D01*
X138872871Y-89993404D02*
X138872871Y-90231499D01*
X138872871Y-90231499D02*
X138825252Y-90326737D01*
X138825252Y-90326737D02*
X138777633Y-90374357D01*
X138777633Y-90374357D02*
X138682395Y-90421976D01*
X138682395Y-90421976D02*
X138396681Y-90421976D01*
X138396681Y-90421976D02*
X138301443Y-90374357D01*
X138301443Y-90374357D02*
X138253824Y-90326737D01*
X61300490Y-79421976D02*
X60967157Y-78945785D01*
X60729062Y-79421976D02*
X60729062Y-78421976D01*
X60729062Y-78421976D02*
X61110014Y-78421976D01*
X61110014Y-78421976D02*
X61205252Y-78469595D01*
X61205252Y-78469595D02*
X61252871Y-78517214D01*
X61252871Y-78517214D02*
X61300490Y-78612452D01*
X61300490Y-78612452D02*
X61300490Y-78755309D01*
X61300490Y-78755309D02*
X61252871Y-78850547D01*
X61252871Y-78850547D02*
X61205252Y-78898166D01*
X61205252Y-78898166D02*
X61110014Y-78945785D01*
X61110014Y-78945785D02*
X60729062Y-78945785D01*
X62252871Y-79421976D02*
X61681443Y-79421976D01*
X61967157Y-79421976D02*
X61967157Y-78421976D01*
X61967157Y-78421976D02*
X61871919Y-78564833D01*
X61871919Y-78564833D02*
X61776681Y-78660071D01*
X61776681Y-78660071D02*
X61681443Y-78707690D01*
X129210490Y-48826737D02*
X129162871Y-48874357D01*
X129162871Y-48874357D02*
X129020014Y-48921976D01*
X129020014Y-48921976D02*
X128924776Y-48921976D01*
X128924776Y-48921976D02*
X128781919Y-48874357D01*
X128781919Y-48874357D02*
X128686681Y-48779118D01*
X128686681Y-48779118D02*
X128639062Y-48683880D01*
X128639062Y-48683880D02*
X128591443Y-48493404D01*
X128591443Y-48493404D02*
X128591443Y-48350547D01*
X128591443Y-48350547D02*
X128639062Y-48160071D01*
X128639062Y-48160071D02*
X128686681Y-48064833D01*
X128686681Y-48064833D02*
X128781919Y-47969595D01*
X128781919Y-47969595D02*
X128924776Y-47921976D01*
X128924776Y-47921976D02*
X129020014Y-47921976D01*
X129020014Y-47921976D02*
X129162871Y-47969595D01*
X129162871Y-47969595D02*
X129210490Y-48017214D01*
X129591443Y-48017214D02*
X129639062Y-47969595D01*
X129639062Y-47969595D02*
X129734300Y-47921976D01*
X129734300Y-47921976D02*
X129972395Y-47921976D01*
X129972395Y-47921976D02*
X130067633Y-47969595D01*
X130067633Y-47969595D02*
X130115252Y-48017214D01*
X130115252Y-48017214D02*
X130162871Y-48112452D01*
X130162871Y-48112452D02*
X130162871Y-48207690D01*
X130162871Y-48207690D02*
X130115252Y-48350547D01*
X130115252Y-48350547D02*
X129543824Y-48921976D01*
X129543824Y-48921976D02*
X130162871Y-48921976D01*
X57705252Y-84621976D02*
X57705252Y-83621976D01*
X57705252Y-84098166D02*
X58276680Y-84098166D01*
X58276680Y-84621976D02*
X58276680Y-83621976D01*
X58657633Y-83621976D02*
X59276680Y-83621976D01*
X59276680Y-83621976D02*
X58943347Y-84002928D01*
X58943347Y-84002928D02*
X59086204Y-84002928D01*
X59086204Y-84002928D02*
X59181442Y-84050547D01*
X59181442Y-84050547D02*
X59229061Y-84098166D01*
X59229061Y-84098166D02*
X59276680Y-84193404D01*
X59276680Y-84193404D02*
X59276680Y-84431499D01*
X59276680Y-84431499D02*
X59229061Y-84526737D01*
X59229061Y-84526737D02*
X59181442Y-84574357D01*
X59181442Y-84574357D02*
X59086204Y-84621976D01*
X59086204Y-84621976D02*
X58800490Y-84621976D01*
X58800490Y-84621976D02*
X58705252Y-84574357D01*
X58705252Y-84574357D02*
X58657633Y-84526737D01*
X115414299Y-52326737D02*
X115366680Y-52374357D01*
X115366680Y-52374357D02*
X115223823Y-52421976D01*
X115223823Y-52421976D02*
X115128585Y-52421976D01*
X115128585Y-52421976D02*
X114985728Y-52374357D01*
X114985728Y-52374357D02*
X114890490Y-52279118D01*
X114890490Y-52279118D02*
X114842871Y-52183880D01*
X114842871Y-52183880D02*
X114795252Y-51993404D01*
X114795252Y-51993404D02*
X114795252Y-51850547D01*
X114795252Y-51850547D02*
X114842871Y-51660071D01*
X114842871Y-51660071D02*
X114890490Y-51564833D01*
X114890490Y-51564833D02*
X114985728Y-51469595D01*
X114985728Y-51469595D02*
X115128585Y-51421976D01*
X115128585Y-51421976D02*
X115223823Y-51421976D01*
X115223823Y-51421976D02*
X115366680Y-51469595D01*
X115366680Y-51469595D02*
X115414299Y-51517214D01*
X116366680Y-52421976D02*
X115795252Y-52421976D01*
X116080966Y-52421976D02*
X116080966Y-51421976D01*
X116080966Y-51421976D02*
X115985728Y-51564833D01*
X115985728Y-51564833D02*
X115890490Y-51660071D01*
X115890490Y-51660071D02*
X115795252Y-51707690D01*
X117319061Y-52421976D02*
X116747633Y-52421976D01*
X117033347Y-52421976D02*
X117033347Y-51421976D01*
X117033347Y-51421976D02*
X116938109Y-51564833D01*
X116938109Y-51564833D02*
X116842871Y-51660071D01*
X116842871Y-51660071D02*
X116747633Y-51707690D01*
X74674299Y-62776737D02*
X74626680Y-62824357D01*
X74626680Y-62824357D02*
X74483823Y-62871976D01*
X74483823Y-62871976D02*
X74388585Y-62871976D01*
X74388585Y-62871976D02*
X74245728Y-62824357D01*
X74245728Y-62824357D02*
X74150490Y-62729118D01*
X74150490Y-62729118D02*
X74102871Y-62633880D01*
X74102871Y-62633880D02*
X74055252Y-62443404D01*
X74055252Y-62443404D02*
X74055252Y-62300547D01*
X74055252Y-62300547D02*
X74102871Y-62110071D01*
X74102871Y-62110071D02*
X74150490Y-62014833D01*
X74150490Y-62014833D02*
X74245728Y-61919595D01*
X74245728Y-61919595D02*
X74388585Y-61871976D01*
X74388585Y-61871976D02*
X74483823Y-61871976D01*
X74483823Y-61871976D02*
X74626680Y-61919595D01*
X74626680Y-61919595D02*
X74674299Y-61967214D01*
X75626680Y-62871976D02*
X75055252Y-62871976D01*
X75340966Y-62871976D02*
X75340966Y-61871976D01*
X75340966Y-61871976D02*
X75245728Y-62014833D01*
X75245728Y-62014833D02*
X75150490Y-62110071D01*
X75150490Y-62110071D02*
X75055252Y-62157690D01*
X76245728Y-61871976D02*
X76340966Y-61871976D01*
X76340966Y-61871976D02*
X76436204Y-61919595D01*
X76436204Y-61919595D02*
X76483823Y-61967214D01*
X76483823Y-61967214D02*
X76531442Y-62062452D01*
X76531442Y-62062452D02*
X76579061Y-62252928D01*
X76579061Y-62252928D02*
X76579061Y-62491023D01*
X76579061Y-62491023D02*
X76531442Y-62681499D01*
X76531442Y-62681499D02*
X76483823Y-62776737D01*
X76483823Y-62776737D02*
X76436204Y-62824357D01*
X76436204Y-62824357D02*
X76340966Y-62871976D01*
X76340966Y-62871976D02*
X76245728Y-62871976D01*
X76245728Y-62871976D02*
X76150490Y-62824357D01*
X76150490Y-62824357D02*
X76102871Y-62776737D01*
X76102871Y-62776737D02*
X76055252Y-62681499D01*
X76055252Y-62681499D02*
X76007633Y-62491023D01*
X76007633Y-62491023D02*
X76007633Y-62252928D01*
X76007633Y-62252928D02*
X76055252Y-62062452D01*
X76055252Y-62062452D02*
X76102871Y-61967214D01*
X76102871Y-61967214D02*
X76150490Y-61919595D01*
X76150490Y-61919595D02*
X76245728Y-61871976D01*
X140205252Y-43421976D02*
X140205252Y-42421976D01*
X140205252Y-42898166D02*
X140776680Y-42898166D01*
X140776680Y-43421976D02*
X140776680Y-42421976D01*
X141205252Y-42517214D02*
X141252871Y-42469595D01*
X141252871Y-42469595D02*
X141348109Y-42421976D01*
X141348109Y-42421976D02*
X141586204Y-42421976D01*
X141586204Y-42421976D02*
X141681442Y-42469595D01*
X141681442Y-42469595D02*
X141729061Y-42517214D01*
X141729061Y-42517214D02*
X141776680Y-42612452D01*
X141776680Y-42612452D02*
X141776680Y-42707690D01*
X141776680Y-42707690D02*
X141729061Y-42850547D01*
X141729061Y-42850547D02*
X141157633Y-43421976D01*
X141157633Y-43421976D02*
X141776680Y-43421976D01*
X73729062Y-56421976D02*
X73729062Y-55421976D01*
X73729062Y-55421976D02*
X73967157Y-55421976D01*
X73967157Y-55421976D02*
X74110014Y-55469595D01*
X74110014Y-55469595D02*
X74205252Y-55564833D01*
X74205252Y-55564833D02*
X74252871Y-55660071D01*
X74252871Y-55660071D02*
X74300490Y-55850547D01*
X74300490Y-55850547D02*
X74300490Y-55993404D01*
X74300490Y-55993404D02*
X74252871Y-56183880D01*
X74252871Y-56183880D02*
X74205252Y-56279118D01*
X74205252Y-56279118D02*
X74110014Y-56374357D01*
X74110014Y-56374357D02*
X73967157Y-56421976D01*
X73967157Y-56421976D02*
X73729062Y-56421976D01*
X74681443Y-55517214D02*
X74729062Y-55469595D01*
X74729062Y-55469595D02*
X74824300Y-55421976D01*
X74824300Y-55421976D02*
X75062395Y-55421976D01*
X75062395Y-55421976D02*
X75157633Y-55469595D01*
X75157633Y-55469595D02*
X75205252Y-55517214D01*
X75205252Y-55517214D02*
X75252871Y-55612452D01*
X75252871Y-55612452D02*
X75252871Y-55707690D01*
X75252871Y-55707690D02*
X75205252Y-55850547D01*
X75205252Y-55850547D02*
X74633824Y-56421976D01*
X74633824Y-56421976D02*
X75252871Y-56421976D01*
X128733823Y-59398166D02*
X128400490Y-59398166D01*
X128400490Y-59921976D02*
X128400490Y-58921976D01*
X128400490Y-58921976D02*
X128876680Y-58921976D01*
X129781442Y-59921976D02*
X129210014Y-59921976D01*
X129495728Y-59921976D02*
X129495728Y-58921976D01*
X129495728Y-58921976D02*
X129400490Y-59064833D01*
X129400490Y-59064833D02*
X129305252Y-59160071D01*
X129305252Y-59160071D02*
X129210014Y-59207690D01*
X103210490Y-63326737D02*
X103162871Y-63374357D01*
X103162871Y-63374357D02*
X103020014Y-63421976D01*
X103020014Y-63421976D02*
X102924776Y-63421976D01*
X102924776Y-63421976D02*
X102781919Y-63374357D01*
X102781919Y-63374357D02*
X102686681Y-63279118D01*
X102686681Y-63279118D02*
X102639062Y-63183880D01*
X102639062Y-63183880D02*
X102591443Y-62993404D01*
X102591443Y-62993404D02*
X102591443Y-62850547D01*
X102591443Y-62850547D02*
X102639062Y-62660071D01*
X102639062Y-62660071D02*
X102686681Y-62564833D01*
X102686681Y-62564833D02*
X102781919Y-62469595D01*
X102781919Y-62469595D02*
X102924776Y-62421976D01*
X102924776Y-62421976D02*
X103020014Y-62421976D01*
X103020014Y-62421976D02*
X103162871Y-62469595D01*
X103162871Y-62469595D02*
X103210490Y-62517214D01*
X103543824Y-62421976D02*
X104162871Y-62421976D01*
X104162871Y-62421976D02*
X103829538Y-62802928D01*
X103829538Y-62802928D02*
X103972395Y-62802928D01*
X103972395Y-62802928D02*
X104067633Y-62850547D01*
X104067633Y-62850547D02*
X104115252Y-62898166D01*
X104115252Y-62898166D02*
X104162871Y-62993404D01*
X104162871Y-62993404D02*
X104162871Y-63231499D01*
X104162871Y-63231499D02*
X104115252Y-63326737D01*
X104115252Y-63326737D02*
X104067633Y-63374357D01*
X104067633Y-63374357D02*
X103972395Y-63421976D01*
X103972395Y-63421976D02*
X103686681Y-63421976D01*
X103686681Y-63421976D02*
X103591443Y-63374357D01*
X103591443Y-63374357D02*
X103543824Y-63326737D01*
X115300490Y-57421976D02*
X114967157Y-56945785D01*
X114729062Y-57421976D02*
X114729062Y-56421976D01*
X114729062Y-56421976D02*
X115110014Y-56421976D01*
X115110014Y-56421976D02*
X115205252Y-56469595D01*
X115205252Y-56469595D02*
X115252871Y-56517214D01*
X115252871Y-56517214D02*
X115300490Y-56612452D01*
X115300490Y-56612452D02*
X115300490Y-56755309D01*
X115300490Y-56755309D02*
X115252871Y-56850547D01*
X115252871Y-56850547D02*
X115205252Y-56898166D01*
X115205252Y-56898166D02*
X115110014Y-56945785D01*
X115110014Y-56945785D02*
X114729062Y-56945785D01*
X115633824Y-56421976D02*
X116252871Y-56421976D01*
X116252871Y-56421976D02*
X115919538Y-56802928D01*
X115919538Y-56802928D02*
X116062395Y-56802928D01*
X116062395Y-56802928D02*
X116157633Y-56850547D01*
X116157633Y-56850547D02*
X116205252Y-56898166D01*
X116205252Y-56898166D02*
X116252871Y-56993404D01*
X116252871Y-56993404D02*
X116252871Y-57231499D01*
X116252871Y-57231499D02*
X116205252Y-57326737D01*
X116205252Y-57326737D02*
X116157633Y-57374357D01*
X116157633Y-57374357D02*
X116062395Y-57421976D01*
X116062395Y-57421976D02*
X115776681Y-57421976D01*
X115776681Y-57421976D02*
X115681443Y-57374357D01*
X115681443Y-57374357D02*
X115633824Y-57326737D01*
X62871918Y-65067214D02*
X62776680Y-65019595D01*
X62776680Y-65019595D02*
X62681442Y-64924357D01*
X62681442Y-64924357D02*
X62538585Y-64781499D01*
X62538585Y-64781499D02*
X62443347Y-64733880D01*
X62443347Y-64733880D02*
X62348109Y-64733880D01*
X62395728Y-64971976D02*
X62300490Y-64924357D01*
X62300490Y-64924357D02*
X62205252Y-64829118D01*
X62205252Y-64829118D02*
X62157633Y-64638642D01*
X62157633Y-64638642D02*
X62157633Y-64305309D01*
X62157633Y-64305309D02*
X62205252Y-64114833D01*
X62205252Y-64114833D02*
X62300490Y-64019595D01*
X62300490Y-64019595D02*
X62395728Y-63971976D01*
X62395728Y-63971976D02*
X62586204Y-63971976D01*
X62586204Y-63971976D02*
X62681442Y-64019595D01*
X62681442Y-64019595D02*
X62776680Y-64114833D01*
X62776680Y-64114833D02*
X62824299Y-64305309D01*
X62824299Y-64305309D02*
X62824299Y-64638642D01*
X62824299Y-64638642D02*
X62776680Y-64829118D01*
X62776680Y-64829118D02*
X62681442Y-64924357D01*
X62681442Y-64924357D02*
X62586204Y-64971976D01*
X62586204Y-64971976D02*
X62395728Y-64971976D01*
X63776680Y-64971976D02*
X63205252Y-64971976D01*
X63490966Y-64971976D02*
X63490966Y-63971976D01*
X63490966Y-63971976D02*
X63395728Y-64114833D01*
X63395728Y-64114833D02*
X63300490Y-64210071D01*
X63300490Y-64210071D02*
X63205252Y-64257690D01*
X93710490Y-63326737D02*
X93662871Y-63374357D01*
X93662871Y-63374357D02*
X93520014Y-63421976D01*
X93520014Y-63421976D02*
X93424776Y-63421976D01*
X93424776Y-63421976D02*
X93281919Y-63374357D01*
X93281919Y-63374357D02*
X93186681Y-63279118D01*
X93186681Y-63279118D02*
X93139062Y-63183880D01*
X93139062Y-63183880D02*
X93091443Y-62993404D01*
X93091443Y-62993404D02*
X93091443Y-62850547D01*
X93091443Y-62850547D02*
X93139062Y-62660071D01*
X93139062Y-62660071D02*
X93186681Y-62564833D01*
X93186681Y-62564833D02*
X93281919Y-62469595D01*
X93281919Y-62469595D02*
X93424776Y-62421976D01*
X93424776Y-62421976D02*
X93520014Y-62421976D01*
X93520014Y-62421976D02*
X93662871Y-62469595D01*
X93662871Y-62469595D02*
X93710490Y-62517214D01*
X94567633Y-62421976D02*
X94377157Y-62421976D01*
X94377157Y-62421976D02*
X94281919Y-62469595D01*
X94281919Y-62469595D02*
X94234300Y-62517214D01*
X94234300Y-62517214D02*
X94139062Y-62660071D01*
X94139062Y-62660071D02*
X94091443Y-62850547D01*
X94091443Y-62850547D02*
X94091443Y-63231499D01*
X94091443Y-63231499D02*
X94139062Y-63326737D01*
X94139062Y-63326737D02*
X94186681Y-63374357D01*
X94186681Y-63374357D02*
X94281919Y-63421976D01*
X94281919Y-63421976D02*
X94472395Y-63421976D01*
X94472395Y-63421976D02*
X94567633Y-63374357D01*
X94567633Y-63374357D02*
X94615252Y-63326737D01*
X94615252Y-63326737D02*
X94662871Y-63231499D01*
X94662871Y-63231499D02*
X94662871Y-62993404D01*
X94662871Y-62993404D02*
X94615252Y-62898166D01*
X94615252Y-62898166D02*
X94567633Y-62850547D01*
X94567633Y-62850547D02*
X94472395Y-62802928D01*
X94472395Y-62802928D02*
X94281919Y-62802928D01*
X94281919Y-62802928D02*
X94186681Y-62850547D01*
X94186681Y-62850547D02*
X94139062Y-62898166D01*
X94139062Y-62898166D02*
X94091443Y-62993404D01*
X67743333Y-62826737D02*
X67695714Y-62874357D01*
X67695714Y-62874357D02*
X67552857Y-62921976D01*
X67552857Y-62921976D02*
X67457619Y-62921976D01*
X67457619Y-62921976D02*
X67314762Y-62874357D01*
X67314762Y-62874357D02*
X67219524Y-62779118D01*
X67219524Y-62779118D02*
X67171905Y-62683880D01*
X67171905Y-62683880D02*
X67124286Y-62493404D01*
X67124286Y-62493404D02*
X67124286Y-62350547D01*
X67124286Y-62350547D02*
X67171905Y-62160071D01*
X67171905Y-62160071D02*
X67219524Y-62064833D01*
X67219524Y-62064833D02*
X67314762Y-61969595D01*
X67314762Y-61969595D02*
X67457619Y-61921976D01*
X67457619Y-61921976D02*
X67552857Y-61921976D01*
X67552857Y-61921976D02*
X67695714Y-61969595D01*
X67695714Y-61969595D02*
X67743333Y-62017214D01*
X68695714Y-62921976D02*
X68124286Y-62921976D01*
X68410000Y-62921976D02*
X68410000Y-61921976D01*
X68410000Y-61921976D02*
X68314762Y-62064833D01*
X68314762Y-62064833D02*
X68219524Y-62160071D01*
X68219524Y-62160071D02*
X68124286Y-62207690D01*
X139421976Y-79980014D02*
X138945785Y-80313347D01*
X139421976Y-80551442D02*
X138421976Y-80551442D01*
X138421976Y-80551442D02*
X138421976Y-80170490D01*
X138421976Y-80170490D02*
X138469595Y-80075252D01*
X138469595Y-80075252D02*
X138517214Y-80027633D01*
X138517214Y-80027633D02*
X138612452Y-79980014D01*
X138612452Y-79980014D02*
X138755309Y-79980014D01*
X138755309Y-79980014D02*
X138850547Y-80027633D01*
X138850547Y-80027633D02*
X138898166Y-80075252D01*
X138898166Y-80075252D02*
X138945785Y-80170490D01*
X138945785Y-80170490D02*
X138945785Y-80551442D01*
X139421976Y-79027633D02*
X139421976Y-79599061D01*
X139421976Y-79313347D02*
X138421976Y-79313347D01*
X138421976Y-79313347D02*
X138564833Y-79408585D01*
X138564833Y-79408585D02*
X138660071Y-79503823D01*
X138660071Y-79503823D02*
X138707690Y-79599061D01*
X138421976Y-78170490D02*
X138421976Y-78360966D01*
X138421976Y-78360966D02*
X138469595Y-78456204D01*
X138469595Y-78456204D02*
X138517214Y-78503823D01*
X138517214Y-78503823D02*
X138660071Y-78599061D01*
X138660071Y-78599061D02*
X138850547Y-78646680D01*
X138850547Y-78646680D02*
X139231499Y-78646680D01*
X139231499Y-78646680D02*
X139326737Y-78599061D01*
X139326737Y-78599061D02*
X139374357Y-78551442D01*
X139374357Y-78551442D02*
X139421976Y-78456204D01*
X139421976Y-78456204D02*
X139421976Y-78265728D01*
X139421976Y-78265728D02*
X139374357Y-78170490D01*
X139374357Y-78170490D02*
X139326737Y-78122871D01*
X139326737Y-78122871D02*
X139231499Y-78075252D01*
X139231499Y-78075252D02*
X138993404Y-78075252D01*
X138993404Y-78075252D02*
X138898166Y-78122871D01*
X138898166Y-78122871D02*
X138850547Y-78170490D01*
X138850547Y-78170490D02*
X138802928Y-78265728D01*
X138802928Y-78265728D02*
X138802928Y-78456204D01*
X138802928Y-78456204D02*
X138850547Y-78551442D01*
X138850547Y-78551442D02*
X138898166Y-78599061D01*
X138898166Y-78599061D02*
X138993404Y-78646680D01*
X137824299Y-49921976D02*
X137490966Y-49445785D01*
X137252871Y-49921976D02*
X137252871Y-48921976D01*
X137252871Y-48921976D02*
X137633823Y-48921976D01*
X137633823Y-48921976D02*
X137729061Y-48969595D01*
X137729061Y-48969595D02*
X137776680Y-49017214D01*
X137776680Y-49017214D02*
X137824299Y-49112452D01*
X137824299Y-49112452D02*
X137824299Y-49255309D01*
X137824299Y-49255309D02*
X137776680Y-49350547D01*
X137776680Y-49350547D02*
X137729061Y-49398166D01*
X137729061Y-49398166D02*
X137633823Y-49445785D01*
X137633823Y-49445785D02*
X137252871Y-49445785D01*
X138776680Y-49921976D02*
X138205252Y-49921976D01*
X138490966Y-49921976D02*
X138490966Y-48921976D01*
X138490966Y-48921976D02*
X138395728Y-49064833D01*
X138395728Y-49064833D02*
X138300490Y-49160071D01*
X138300490Y-49160071D02*
X138205252Y-49207690D01*
X139633823Y-49255309D02*
X139633823Y-49921976D01*
X139395728Y-48874357D02*
X139157633Y-49588642D01*
X139157633Y-49588642D02*
X139776680Y-49588642D01*
X74804299Y-75921976D02*
X74470966Y-75445785D01*
X74232871Y-75921976D02*
X74232871Y-74921976D01*
X74232871Y-74921976D02*
X74613823Y-74921976D01*
X74613823Y-74921976D02*
X74709061Y-74969595D01*
X74709061Y-74969595D02*
X74756680Y-75017214D01*
X74756680Y-75017214D02*
X74804299Y-75112452D01*
X74804299Y-75112452D02*
X74804299Y-75255309D01*
X74804299Y-75255309D02*
X74756680Y-75350547D01*
X74756680Y-75350547D02*
X74709061Y-75398166D01*
X74709061Y-75398166D02*
X74613823Y-75445785D01*
X74613823Y-75445785D02*
X74232871Y-75445785D01*
X75756680Y-75921976D02*
X75185252Y-75921976D01*
X75470966Y-75921976D02*
X75470966Y-74921976D01*
X75470966Y-74921976D02*
X75375728Y-75064833D01*
X75375728Y-75064833D02*
X75280490Y-75160071D01*
X75280490Y-75160071D02*
X75185252Y-75207690D01*
X76375728Y-74921976D02*
X76470966Y-74921976D01*
X76470966Y-74921976D02*
X76566204Y-74969595D01*
X76566204Y-74969595D02*
X76613823Y-75017214D01*
X76613823Y-75017214D02*
X76661442Y-75112452D01*
X76661442Y-75112452D02*
X76709061Y-75302928D01*
X76709061Y-75302928D02*
X76709061Y-75541023D01*
X76709061Y-75541023D02*
X76661442Y-75731499D01*
X76661442Y-75731499D02*
X76613823Y-75826737D01*
X76613823Y-75826737D02*
X76566204Y-75874357D01*
X76566204Y-75874357D02*
X76470966Y-75921976D01*
X76470966Y-75921976D02*
X76375728Y-75921976D01*
X76375728Y-75921976D02*
X76280490Y-75874357D01*
X76280490Y-75874357D02*
X76232871Y-75826737D01*
X76232871Y-75826737D02*
X76185252Y-75731499D01*
X76185252Y-75731499D02*
X76137633Y-75541023D01*
X76137633Y-75541023D02*
X76137633Y-75302928D01*
X76137633Y-75302928D02*
X76185252Y-75112452D01*
X76185252Y-75112452D02*
X76232871Y-75017214D01*
X76232871Y-75017214D02*
X76280490Y-74969595D01*
X76280490Y-74969595D02*
X76375728Y-74921976D01*
X122181442Y-54898166D02*
X122324299Y-54945785D01*
X122324299Y-54945785D02*
X122371918Y-54993404D01*
X122371918Y-54993404D02*
X122419537Y-55088642D01*
X122419537Y-55088642D02*
X122419537Y-55231499D01*
X122419537Y-55231499D02*
X122371918Y-55326737D01*
X122371918Y-55326737D02*
X122324299Y-55374357D01*
X122324299Y-55374357D02*
X122229061Y-55421976D01*
X122229061Y-55421976D02*
X121848109Y-55421976D01*
X121848109Y-55421976D02*
X121848109Y-54421976D01*
X121848109Y-54421976D02*
X122181442Y-54421976D01*
X122181442Y-54421976D02*
X122276680Y-54469595D01*
X122276680Y-54469595D02*
X122324299Y-54517214D01*
X122324299Y-54517214D02*
X122371918Y-54612452D01*
X122371918Y-54612452D02*
X122371918Y-54707690D01*
X122371918Y-54707690D02*
X122324299Y-54802928D01*
X122324299Y-54802928D02*
X122276680Y-54850547D01*
X122276680Y-54850547D02*
X122181442Y-54898166D01*
X122181442Y-54898166D02*
X121848109Y-54898166D01*
X122705252Y-54421976D02*
X123276680Y-54421976D01*
X122990966Y-55421976D02*
X122990966Y-54421976D01*
X123562395Y-54517214D02*
X123610014Y-54469595D01*
X123610014Y-54469595D02*
X123705252Y-54421976D01*
X123705252Y-54421976D02*
X123943347Y-54421976D01*
X123943347Y-54421976D02*
X124038585Y-54469595D01*
X124038585Y-54469595D02*
X124086204Y-54517214D01*
X124086204Y-54517214D02*
X124133823Y-54612452D01*
X124133823Y-54612452D02*
X124133823Y-54707690D01*
X124133823Y-54707690D02*
X124086204Y-54850547D01*
X124086204Y-54850547D02*
X123514776Y-55421976D01*
X123514776Y-55421976D02*
X124133823Y-55421976D01*
X129210490Y-53826737D02*
X129162871Y-53874357D01*
X129162871Y-53874357D02*
X129020014Y-53921976D01*
X129020014Y-53921976D02*
X128924776Y-53921976D01*
X128924776Y-53921976D02*
X128781919Y-53874357D01*
X128781919Y-53874357D02*
X128686681Y-53779118D01*
X128686681Y-53779118D02*
X128639062Y-53683880D01*
X128639062Y-53683880D02*
X128591443Y-53493404D01*
X128591443Y-53493404D02*
X128591443Y-53350547D01*
X128591443Y-53350547D02*
X128639062Y-53160071D01*
X128639062Y-53160071D02*
X128686681Y-53064833D01*
X128686681Y-53064833D02*
X128781919Y-52969595D01*
X128781919Y-52969595D02*
X128924776Y-52921976D01*
X128924776Y-52921976D02*
X129020014Y-52921976D01*
X129020014Y-52921976D02*
X129162871Y-52969595D01*
X129162871Y-52969595D02*
X129210490Y-53017214D01*
X130067633Y-53255309D02*
X130067633Y-53921976D01*
X129829538Y-52874357D02*
X129591443Y-53588642D01*
X129591443Y-53588642D02*
X130210490Y-53588642D01*
D12*
X108937194Y-89190873D02*
X108937194Y-87957159D01*
X108937194Y-87957159D02*
X108864623Y-87812016D01*
X108864623Y-87812016D02*
X108792052Y-87739445D01*
X108792052Y-87739445D02*
X108646909Y-87666873D01*
X108646909Y-87666873D02*
X108356623Y-87666873D01*
X108356623Y-87666873D02*
X108211480Y-87739445D01*
X108211480Y-87739445D02*
X108138909Y-87812016D01*
X108138909Y-87812016D02*
X108066337Y-87957159D01*
X108066337Y-87957159D02*
X108066337Y-89190873D01*
X106542338Y-87666873D02*
X107413195Y-87666873D01*
X106977766Y-87666873D02*
X106977766Y-89190873D01*
X106977766Y-89190873D02*
X107122909Y-88973159D01*
X107122909Y-88973159D02*
X107268052Y-88828016D01*
X107268052Y-88828016D02*
X107413195Y-88755445D01*
D11*
X122800490Y-71921976D02*
X122467157Y-71445785D01*
X122229062Y-71921976D02*
X122229062Y-70921976D01*
X122229062Y-70921976D02*
X122610014Y-70921976D01*
X122610014Y-70921976D02*
X122705252Y-70969595D01*
X122705252Y-70969595D02*
X122752871Y-71017214D01*
X122752871Y-71017214D02*
X122800490Y-71112452D01*
X122800490Y-71112452D02*
X122800490Y-71255309D01*
X122800490Y-71255309D02*
X122752871Y-71350547D01*
X122752871Y-71350547D02*
X122705252Y-71398166D01*
X122705252Y-71398166D02*
X122610014Y-71445785D01*
X122610014Y-71445785D02*
X122229062Y-71445785D01*
X123276681Y-71921976D02*
X123467157Y-71921976D01*
X123467157Y-71921976D02*
X123562395Y-71874357D01*
X123562395Y-71874357D02*
X123610014Y-71826737D01*
X123610014Y-71826737D02*
X123705252Y-71683880D01*
X123705252Y-71683880D02*
X123752871Y-71493404D01*
X123752871Y-71493404D02*
X123752871Y-71112452D01*
X123752871Y-71112452D02*
X123705252Y-71017214D01*
X123705252Y-71017214D02*
X123657633Y-70969595D01*
X123657633Y-70969595D02*
X123562395Y-70921976D01*
X123562395Y-70921976D02*
X123371919Y-70921976D01*
X123371919Y-70921976D02*
X123276681Y-70969595D01*
X123276681Y-70969595D02*
X123229062Y-71017214D01*
X123229062Y-71017214D02*
X123181443Y-71112452D01*
X123181443Y-71112452D02*
X123181443Y-71350547D01*
X123181443Y-71350547D02*
X123229062Y-71445785D01*
X123229062Y-71445785D02*
X123276681Y-71493404D01*
X123276681Y-71493404D02*
X123371919Y-71541023D01*
X123371919Y-71541023D02*
X123562395Y-71541023D01*
X123562395Y-71541023D02*
X123657633Y-71493404D01*
X123657633Y-71493404D02*
X123705252Y-71445785D01*
X123705252Y-71445785D02*
X123752871Y-71350547D01*
X67710490Y-71921976D02*
X67234300Y-71921976D01*
X67234300Y-71921976D02*
X67234300Y-70921976D01*
X68567633Y-71921976D02*
X67996205Y-71921976D01*
X68281919Y-71921976D02*
X68281919Y-70921976D01*
X68281919Y-70921976D02*
X68186681Y-71064833D01*
X68186681Y-71064833D02*
X68091443Y-71160071D01*
X68091443Y-71160071D02*
X67996205Y-71207690D01*
X144705252Y-84421976D02*
X144705252Y-83421976D01*
X144705252Y-83898166D02*
X145276680Y-83898166D01*
X145276680Y-84421976D02*
X145276680Y-83421976D01*
X146181442Y-83755309D02*
X146181442Y-84421976D01*
X145943347Y-83374357D02*
X145705252Y-84088642D01*
X145705252Y-84088642D02*
X146324299Y-84088642D01*
X144729062Y-49921976D02*
X144729062Y-48921976D01*
X144729062Y-48921976D02*
X144967157Y-48921976D01*
X144967157Y-48921976D02*
X145110014Y-48969595D01*
X145110014Y-48969595D02*
X145205252Y-49064833D01*
X145205252Y-49064833D02*
X145252871Y-49160071D01*
X145252871Y-49160071D02*
X145300490Y-49350547D01*
X145300490Y-49350547D02*
X145300490Y-49493404D01*
X145300490Y-49493404D02*
X145252871Y-49683880D01*
X145252871Y-49683880D02*
X145205252Y-49779118D01*
X145205252Y-49779118D02*
X145110014Y-49874357D01*
X145110014Y-49874357D02*
X144967157Y-49921976D01*
X144967157Y-49921976D02*
X144729062Y-49921976D01*
X146157633Y-48921976D02*
X145967157Y-48921976D01*
X145967157Y-48921976D02*
X145871919Y-48969595D01*
X145871919Y-48969595D02*
X145824300Y-49017214D01*
X145824300Y-49017214D02*
X145729062Y-49160071D01*
X145729062Y-49160071D02*
X145681443Y-49350547D01*
X145681443Y-49350547D02*
X145681443Y-49731499D01*
X145681443Y-49731499D02*
X145729062Y-49826737D01*
X145729062Y-49826737D02*
X145776681Y-49874357D01*
X145776681Y-49874357D02*
X145871919Y-49921976D01*
X145871919Y-49921976D02*
X146062395Y-49921976D01*
X146062395Y-49921976D02*
X146157633Y-49874357D01*
X146157633Y-49874357D02*
X146205252Y-49826737D01*
X146205252Y-49826737D02*
X146252871Y-49731499D01*
X146252871Y-49731499D02*
X146252871Y-49493404D01*
X146252871Y-49493404D02*
X146205252Y-49398166D01*
X146205252Y-49398166D02*
X146157633Y-49350547D01*
X146157633Y-49350547D02*
X146062395Y-49302928D01*
X146062395Y-49302928D02*
X145871919Y-49302928D01*
X145871919Y-49302928D02*
X145776681Y-49350547D01*
X145776681Y-49350547D02*
X145729062Y-49398166D01*
X145729062Y-49398166D02*
X145681443Y-49493404D01*
X122324299Y-66421976D02*
X121990966Y-65945785D01*
X121752871Y-66421976D02*
X121752871Y-65421976D01*
X121752871Y-65421976D02*
X122133823Y-65421976D01*
X122133823Y-65421976D02*
X122229061Y-65469595D01*
X122229061Y-65469595D02*
X122276680Y-65517214D01*
X122276680Y-65517214D02*
X122324299Y-65612452D01*
X122324299Y-65612452D02*
X122324299Y-65755309D01*
X122324299Y-65755309D02*
X122276680Y-65850547D01*
X122276680Y-65850547D02*
X122229061Y-65898166D01*
X122229061Y-65898166D02*
X122133823Y-65945785D01*
X122133823Y-65945785D02*
X121752871Y-65945785D01*
X123276680Y-66421976D02*
X122705252Y-66421976D01*
X122990966Y-66421976D02*
X122990966Y-65421976D01*
X122990966Y-65421976D02*
X122895728Y-65564833D01*
X122895728Y-65564833D02*
X122800490Y-65660071D01*
X122800490Y-65660071D02*
X122705252Y-65707690D01*
X123610014Y-65421976D02*
X124229061Y-65421976D01*
X124229061Y-65421976D02*
X123895728Y-65802928D01*
X123895728Y-65802928D02*
X124038585Y-65802928D01*
X124038585Y-65802928D02*
X124133823Y-65850547D01*
X124133823Y-65850547D02*
X124181442Y-65898166D01*
X124181442Y-65898166D02*
X124229061Y-65993404D01*
X124229061Y-65993404D02*
X124229061Y-66231499D01*
X124229061Y-66231499D02*
X124181442Y-66326737D01*
X124181442Y-66326737D02*
X124133823Y-66374357D01*
X124133823Y-66374357D02*
X124038585Y-66421976D01*
X124038585Y-66421976D02*
X123752871Y-66421976D01*
X123752871Y-66421976D02*
X123657633Y-66374357D01*
X123657633Y-66374357D02*
X123610014Y-66326737D01*
X81800490Y-67326737D02*
X81752871Y-67374357D01*
X81752871Y-67374357D02*
X81610014Y-67421976D01*
X81610014Y-67421976D02*
X81514776Y-67421976D01*
X81514776Y-67421976D02*
X81371919Y-67374357D01*
X81371919Y-67374357D02*
X81276681Y-67279118D01*
X81276681Y-67279118D02*
X81229062Y-67183880D01*
X81229062Y-67183880D02*
X81181443Y-66993404D01*
X81181443Y-66993404D02*
X81181443Y-66850547D01*
X81181443Y-66850547D02*
X81229062Y-66660071D01*
X81229062Y-66660071D02*
X81276681Y-66564833D01*
X81276681Y-66564833D02*
X81371919Y-66469595D01*
X81371919Y-66469595D02*
X81514776Y-66421976D01*
X81514776Y-66421976D02*
X81610014Y-66421976D01*
X81610014Y-66421976D02*
X81752871Y-66469595D01*
X81752871Y-66469595D02*
X81800490Y-66517214D01*
X82133824Y-66421976D02*
X82800490Y-66421976D01*
X82800490Y-66421976D02*
X82371919Y-67421976D01*
X135421976Y-79980014D02*
X134945785Y-80313347D01*
X135421976Y-80551442D02*
X134421976Y-80551442D01*
X134421976Y-80551442D02*
X134421976Y-80170490D01*
X134421976Y-80170490D02*
X134469595Y-80075252D01*
X134469595Y-80075252D02*
X134517214Y-80027633D01*
X134517214Y-80027633D02*
X134612452Y-79980014D01*
X134612452Y-79980014D02*
X134755309Y-79980014D01*
X134755309Y-79980014D02*
X134850547Y-80027633D01*
X134850547Y-80027633D02*
X134898166Y-80075252D01*
X134898166Y-80075252D02*
X134945785Y-80170490D01*
X134945785Y-80170490D02*
X134945785Y-80551442D01*
X135421976Y-79027633D02*
X135421976Y-79599061D01*
X135421976Y-79313347D02*
X134421976Y-79313347D01*
X134421976Y-79313347D02*
X134564833Y-79408585D01*
X134564833Y-79408585D02*
X134660071Y-79503823D01*
X134660071Y-79503823D02*
X134707690Y-79599061D01*
X134421976Y-78122871D02*
X134421976Y-78599061D01*
X134421976Y-78599061D02*
X134898166Y-78646680D01*
X134898166Y-78646680D02*
X134850547Y-78599061D01*
X134850547Y-78599061D02*
X134802928Y-78503823D01*
X134802928Y-78503823D02*
X134802928Y-78265728D01*
X134802928Y-78265728D02*
X134850547Y-78170490D01*
X134850547Y-78170490D02*
X134898166Y-78122871D01*
X134898166Y-78122871D02*
X134993404Y-78075252D01*
X134993404Y-78075252D02*
X135231499Y-78075252D01*
X135231499Y-78075252D02*
X135326737Y-78122871D01*
X135326737Y-78122871D02*
X135374357Y-78170490D01*
X135374357Y-78170490D02*
X135421976Y-78265728D01*
X135421976Y-78265728D02*
X135421976Y-78503823D01*
X135421976Y-78503823D02*
X135374357Y-78599061D01*
X135374357Y-78599061D02*
X135326737Y-78646680D01*
X115720435Y-47377539D02*
X115387102Y-46901348D01*
X115149007Y-47377539D02*
X115149007Y-46377539D01*
X115149007Y-46377539D02*
X115529959Y-46377539D01*
X115529959Y-46377539D02*
X115625197Y-46425158D01*
X115625197Y-46425158D02*
X115672816Y-46472777D01*
X115672816Y-46472777D02*
X115720435Y-46568015D01*
X115720435Y-46568015D02*
X115720435Y-46710872D01*
X115720435Y-46710872D02*
X115672816Y-46806110D01*
X115672816Y-46806110D02*
X115625197Y-46853729D01*
X115625197Y-46853729D02*
X115529959Y-46901348D01*
X115529959Y-46901348D02*
X115149007Y-46901348D01*
X116577578Y-46377539D02*
X116387102Y-46377539D01*
X116387102Y-46377539D02*
X116291864Y-46425158D01*
X116291864Y-46425158D02*
X116244245Y-46472777D01*
X116244245Y-46472777D02*
X116149007Y-46615634D01*
X116149007Y-46615634D02*
X116101388Y-46806110D01*
X116101388Y-46806110D02*
X116101388Y-47187062D01*
X116101388Y-47187062D02*
X116149007Y-47282300D01*
X116149007Y-47282300D02*
X116196626Y-47329920D01*
X116196626Y-47329920D02*
X116291864Y-47377539D01*
X116291864Y-47377539D02*
X116482340Y-47377539D01*
X116482340Y-47377539D02*
X116577578Y-47329920D01*
X116577578Y-47329920D02*
X116625197Y-47282300D01*
X116625197Y-47282300D02*
X116672816Y-47187062D01*
X116672816Y-47187062D02*
X116672816Y-46948967D01*
X116672816Y-46948967D02*
X116625197Y-46853729D01*
X116625197Y-46853729D02*
X116577578Y-46806110D01*
X116577578Y-46806110D02*
X116482340Y-46758491D01*
X116482340Y-46758491D02*
X116291864Y-46758491D01*
X116291864Y-46758491D02*
X116196626Y-46806110D01*
X116196626Y-46806110D02*
X116149007Y-46853729D01*
X116149007Y-46853729D02*
X116101388Y-46948967D01*
X116800490Y-66421976D02*
X116467157Y-65945785D01*
X116229062Y-66421976D02*
X116229062Y-65421976D01*
X116229062Y-65421976D02*
X116610014Y-65421976D01*
X116610014Y-65421976D02*
X116705252Y-65469595D01*
X116705252Y-65469595D02*
X116752871Y-65517214D01*
X116752871Y-65517214D02*
X116800490Y-65612452D01*
X116800490Y-65612452D02*
X116800490Y-65755309D01*
X116800490Y-65755309D02*
X116752871Y-65850547D01*
X116752871Y-65850547D02*
X116705252Y-65898166D01*
X116705252Y-65898166D02*
X116610014Y-65945785D01*
X116610014Y-65945785D02*
X116229062Y-65945785D01*
X117657633Y-65755309D02*
X117657633Y-66421976D01*
X117419538Y-65374357D02*
X117181443Y-66088642D01*
X117181443Y-66088642D02*
X117800490Y-66088642D01*
X61320490Y-73921976D02*
X60987157Y-73445785D01*
X60749062Y-73921976D02*
X60749062Y-72921976D01*
X60749062Y-72921976D02*
X61130014Y-72921976D01*
X61130014Y-72921976D02*
X61225252Y-72969595D01*
X61225252Y-72969595D02*
X61272871Y-73017214D01*
X61272871Y-73017214D02*
X61320490Y-73112452D01*
X61320490Y-73112452D02*
X61320490Y-73255309D01*
X61320490Y-73255309D02*
X61272871Y-73350547D01*
X61272871Y-73350547D02*
X61225252Y-73398166D01*
X61225252Y-73398166D02*
X61130014Y-73445785D01*
X61130014Y-73445785D02*
X60749062Y-73445785D01*
X61701443Y-73017214D02*
X61749062Y-72969595D01*
X61749062Y-72969595D02*
X61844300Y-72921976D01*
X61844300Y-72921976D02*
X62082395Y-72921976D01*
X62082395Y-72921976D02*
X62177633Y-72969595D01*
X62177633Y-72969595D02*
X62225252Y-73017214D01*
X62225252Y-73017214D02*
X62272871Y-73112452D01*
X62272871Y-73112452D02*
X62272871Y-73207690D01*
X62272871Y-73207690D02*
X62225252Y-73350547D01*
X62225252Y-73350547D02*
X61653824Y-73921976D01*
X61653824Y-73921976D02*
X62272871Y-73921976D01*
X102784299Y-59421976D02*
X102450966Y-58945785D01*
X102212871Y-59421976D02*
X102212871Y-58421976D01*
X102212871Y-58421976D02*
X102593823Y-58421976D01*
X102593823Y-58421976D02*
X102689061Y-58469595D01*
X102689061Y-58469595D02*
X102736680Y-58517214D01*
X102736680Y-58517214D02*
X102784299Y-58612452D01*
X102784299Y-58612452D02*
X102784299Y-58755309D01*
X102784299Y-58755309D02*
X102736680Y-58850547D01*
X102736680Y-58850547D02*
X102689061Y-58898166D01*
X102689061Y-58898166D02*
X102593823Y-58945785D01*
X102593823Y-58945785D02*
X102212871Y-58945785D01*
X103736680Y-59421976D02*
X103165252Y-59421976D01*
X103450966Y-59421976D02*
X103450966Y-58421976D01*
X103450966Y-58421976D02*
X103355728Y-58564833D01*
X103355728Y-58564833D02*
X103260490Y-58660071D01*
X103260490Y-58660071D02*
X103165252Y-58707690D01*
X104117633Y-58517214D02*
X104165252Y-58469595D01*
X104165252Y-58469595D02*
X104260490Y-58421976D01*
X104260490Y-58421976D02*
X104498585Y-58421976D01*
X104498585Y-58421976D02*
X104593823Y-58469595D01*
X104593823Y-58469595D02*
X104641442Y-58517214D01*
X104641442Y-58517214D02*
X104689061Y-58612452D01*
X104689061Y-58612452D02*
X104689061Y-58707690D01*
X104689061Y-58707690D02*
X104641442Y-58850547D01*
X104641442Y-58850547D02*
X104070014Y-59421976D01*
X104070014Y-59421976D02*
X104689061Y-59421976D01*
X68586204Y-43898166D02*
X68729061Y-43945785D01*
X68729061Y-43945785D02*
X68776680Y-43993404D01*
X68776680Y-43993404D02*
X68824299Y-44088642D01*
X68824299Y-44088642D02*
X68824299Y-44231499D01*
X68824299Y-44231499D02*
X68776680Y-44326737D01*
X68776680Y-44326737D02*
X68729061Y-44374357D01*
X68729061Y-44374357D02*
X68633823Y-44421976D01*
X68633823Y-44421976D02*
X68252871Y-44421976D01*
X68252871Y-44421976D02*
X68252871Y-43421976D01*
X68252871Y-43421976D02*
X68586204Y-43421976D01*
X68586204Y-43421976D02*
X68681442Y-43469595D01*
X68681442Y-43469595D02*
X68729061Y-43517214D01*
X68729061Y-43517214D02*
X68776680Y-43612452D01*
X68776680Y-43612452D02*
X68776680Y-43707690D01*
X68776680Y-43707690D02*
X68729061Y-43802928D01*
X68729061Y-43802928D02*
X68681442Y-43850547D01*
X68681442Y-43850547D02*
X68586204Y-43898166D01*
X68586204Y-43898166D02*
X68252871Y-43898166D01*
X69157633Y-43421976D02*
X69824299Y-43421976D01*
X69824299Y-43421976D02*
X69157633Y-44421976D01*
X69157633Y-44421976D02*
X69824299Y-44421976D01*
X70729061Y-44421976D02*
X70157633Y-44421976D01*
X70443347Y-44421976D02*
X70443347Y-43421976D01*
X70443347Y-43421976D02*
X70348109Y-43564833D01*
X70348109Y-43564833D02*
X70252871Y-43660071D01*
X70252871Y-43660071D02*
X70157633Y-43707690D01*
D10*
%TO.C,SW2*%
X134477157Y-59967157D02*
X146477157Y-59967157D01*
X134477157Y-61467157D02*
X134477157Y-59967157D01*
X134477157Y-65467157D02*
X134467157Y-66467157D01*
X134477157Y-71967157D02*
X134477157Y-70467157D01*
X139977157Y-63967157D02*
X140977157Y-63967157D01*
X139977157Y-67967157D02*
X140977157Y-67967157D01*
X140477157Y-64967157D02*
X140477157Y-63967157D01*
X140477157Y-66967157D02*
X141977157Y-65467157D01*
X140477157Y-67967157D02*
X140477157Y-66967157D01*
X146477157Y-59967157D02*
X146467157Y-61467157D01*
X146477157Y-65467157D02*
X146467157Y-66467157D01*
X146467157Y-70467157D02*
X146477157Y-71967157D01*
X146477157Y-71967157D02*
X134477157Y-71967157D01*
D11*
%TO.C,R11*%
X94677157Y-54887157D02*
X96037157Y-54887157D01*
X94677157Y-57047157D02*
X94677157Y-54887157D01*
X96037157Y-57047157D02*
X94677157Y-57047157D01*
X97937157Y-57047157D02*
X99297157Y-57047157D01*
X99297157Y-54887157D02*
X97937157Y-54887157D01*
X99297157Y-57047157D02*
X99297157Y-54887157D01*
%TO.C,R18*%
X79677157Y-63387157D02*
X81037157Y-63387157D01*
X79677157Y-65547157D02*
X79677157Y-63387157D01*
X81037157Y-65547157D02*
X79677157Y-65547157D01*
X82937157Y-65547157D02*
X84297157Y-65547157D01*
X84297157Y-63387157D02*
X82937157Y-63387157D01*
X84297157Y-65547157D02*
X84297157Y-63387157D01*
%TO.C,R8*%
X126677157Y-67887157D02*
X128037157Y-67887157D01*
X126677157Y-70047157D02*
X126677157Y-67887157D01*
X128037157Y-70047157D02*
X126677157Y-70047157D01*
X129937157Y-70047157D02*
X131297157Y-70047157D01*
X131297157Y-67887157D02*
X129937157Y-67887157D01*
X131297157Y-70047157D02*
X131297157Y-67887157D01*
%TO.C,C9*%
X65497157Y-70407157D02*
X65497157Y-68527157D01*
X65647157Y-68377157D02*
X67127157Y-68377157D01*
X67127157Y-70557157D02*
X65647157Y-70557157D01*
X68987157Y-70557157D02*
X70467157Y-70557157D01*
X70467157Y-68377157D02*
X68987157Y-68377157D01*
X70617157Y-70407157D02*
X70617157Y-68527157D01*
X65497157Y-68527157D02*
G75*
G02*
X65647157Y-68377157I150000J0D01*
G01*
X65647157Y-70557157D02*
G75*
G02*
X65497157Y-70407157I0J150000D01*
G01*
X70467157Y-68377157D02*
G75*
G02*
X70617157Y-68527157I0J-150000D01*
G01*
X70617157Y-70407157D02*
G75*
G02*
X70467157Y-70557157I-150000J0D01*
G01*
D10*
%TO.C,D1*%
X63547157Y-55377157D02*
X63547157Y-57537157D01*
X63547157Y-55377157D02*
X63787157Y-55137157D01*
X63547157Y-57537157D02*
X63787157Y-57767157D01*
X63787157Y-55137157D02*
X63787157Y-55137157D01*
X63787157Y-55137157D02*
X63787157Y-55137157D01*
X63787157Y-55137157D02*
X63887157Y-55077157D01*
X63787157Y-57767157D02*
X63907157Y-57887157D01*
X63887157Y-55077157D02*
X65567157Y-55077157D01*
X63907157Y-57887157D02*
X65687157Y-57887157D01*
X65567157Y-55077157D02*
X65587157Y-55067157D01*
X66507157Y-55067157D02*
X68667157Y-55067157D01*
X68667157Y-55067157D02*
X68667157Y-57857157D01*
X68667157Y-57857157D02*
X66507157Y-57857157D01*
D11*
%TO.C,R17*%
X144387157Y-77007157D02*
X144387157Y-78367157D01*
X144387157Y-81627157D02*
X144387157Y-80267157D01*
X146547157Y-77007157D02*
X144387157Y-77007157D01*
X146547157Y-78367157D02*
X146547157Y-77007157D01*
X146547157Y-80267157D02*
X146547157Y-81627157D01*
X146547157Y-81627157D02*
X144387157Y-81627157D01*
%TO.C,R7*%
X127137157Y-44887157D02*
X127137157Y-47047157D01*
X127137157Y-47047157D02*
X128497157Y-47047157D01*
X128497157Y-44887157D02*
X127137157Y-44887157D01*
X130397157Y-44887157D02*
X131757157Y-44887157D01*
X131757157Y-44887157D02*
X131757157Y-47047157D01*
X131757157Y-47047157D02*
X130397157Y-47047157D01*
%TO.C,R5*%
X120677157Y-62887157D02*
X122037157Y-62887157D01*
X120677157Y-65047157D02*
X120677157Y-62887157D01*
X122037157Y-65047157D02*
X120677157Y-65047157D01*
X123937157Y-65047157D02*
X125297157Y-65047157D01*
X125297157Y-62887157D02*
X123937157Y-62887157D01*
X125297157Y-65047157D02*
X125297157Y-62887157D01*
%TO.C,Q3*%
X81237157Y-56387157D02*
X82697157Y-56387157D01*
X81237157Y-58377157D02*
X81237157Y-57457157D01*
X81237157Y-59447157D02*
X82697157Y-59447157D01*
X82697157Y-56387157D02*
X82697157Y-57427157D01*
X82697157Y-59447157D02*
X82697157Y-58407157D01*
%TO.C,C8*%
X65317157Y-76527157D02*
X65317157Y-78407157D01*
X65467157Y-78557157D02*
X66947157Y-78557157D01*
X66947157Y-76377157D02*
X65467157Y-76377157D01*
X68807157Y-76377157D02*
X70287157Y-76377157D01*
X70287157Y-78557157D02*
X68807157Y-78557157D01*
X70437157Y-76527157D02*
X70437157Y-78407157D01*
X65317157Y-76527157D02*
G75*
G02*
X65467157Y-76377157I150000J0D01*
G01*
X65467157Y-78557157D02*
G75*
G02*
X65317157Y-78407157I0J150000D01*
G01*
X70287157Y-76377157D02*
G75*
G02*
X70437157Y-76527157I0J-150000D01*
G01*
X70437157Y-78407157D02*
G75*
G02*
X70287157Y-78557157I-150000J0D01*
G01*
D13*
%TO.C,U2*%
X73857157Y-71977157D02*
X73857157Y-72207157D01*
X73857157Y-72207157D02*
X74832157Y-72207157D01*
X74147157Y-68987157D02*
X74832157Y-68987157D01*
X76102157Y-68987157D02*
X77077157Y-68987157D01*
X76102157Y-72207157D02*
X77077157Y-72207157D01*
X77077157Y-68987157D02*
X77077157Y-69217157D01*
X77077157Y-71977157D02*
X77077157Y-72207157D01*
X73827157Y-68987157D02*
X73547157Y-68987157D01*
X73827157Y-68707157D01*
X73827157Y-68987157D01*
G36*
X73827157Y-68987157D02*
G01*
X73547157Y-68987157D01*
X73827157Y-68707157D01*
X73827157Y-68987157D01*
G37*
D11*
%TO.C,C5*%
X112817157Y-64907157D02*
X112817157Y-63027157D01*
X112967157Y-62877157D02*
X114447157Y-62877157D01*
X114447157Y-65057157D02*
X112967157Y-65057157D01*
X116307157Y-65057157D02*
X117787157Y-65057157D01*
X117787157Y-62877157D02*
X116307157Y-62877157D01*
X117937157Y-64907157D02*
X117937157Y-63027157D01*
X112817157Y-63027157D02*
G75*
G02*
X112967157Y-62877157I150000J0D01*
G01*
X112967157Y-65057157D02*
G75*
G02*
X112817157Y-64907157I0J150000D01*
G01*
X117787157Y-62877157D02*
G75*
G02*
X117937157Y-63027157I0J-150000D01*
G01*
X117937157Y-64907157D02*
G75*
G02*
X117787157Y-65057157I-150000J0D01*
G01*
D10*
%TO.C,D3*%
X135577157Y-85487157D02*
X135587157Y-84487157D01*
X135577157Y-87407157D02*
X135577157Y-86447157D01*
X137827157Y-85207157D02*
X136937157Y-85207157D01*
X135587157Y-84487157D02*
G75*
G02*
X135575662Y-87407431I2500000J-1470000D01*
G01*
X135737157Y-85147157D02*
G75*
G02*
X140521131Y-85459029I2350000J-800000D01*
G01*
X140547156Y-86507157D02*
G75*
G02*
X135664378Y-86657332I-2459999J530000D01*
G01*
D11*
%TO.C,R1*%
X59177157Y-79887157D02*
X60537157Y-79887157D01*
X59177157Y-82047157D02*
X59177157Y-79887157D01*
X60537157Y-82047157D02*
X59177157Y-82047157D01*
X62437157Y-82047157D02*
X63797157Y-82047157D01*
X63797157Y-79887157D02*
X62437157Y-79887157D01*
X63797157Y-82047157D02*
X63797157Y-79887157D01*
%TO.C,C2*%
X126817157Y-51407157D02*
X126817157Y-49527157D01*
X126967157Y-49377157D02*
X128447157Y-49377157D01*
X128447157Y-51557157D02*
X126967157Y-51557157D01*
X130307157Y-51557157D02*
X131787157Y-51557157D01*
X131787157Y-49377157D02*
X130307157Y-49377157D01*
X131937157Y-51407157D02*
X131937157Y-49527157D01*
X126817157Y-49527157D02*
G75*
G02*
X126967157Y-49377157I150000J0D01*
G01*
X126967157Y-51557157D02*
G75*
G02*
X126817157Y-51407157I0J150000D01*
G01*
X131787157Y-49377157D02*
G75*
G02*
X131937157Y-49527157I0J-150000D01*
G01*
X131937157Y-51407157D02*
G75*
G02*
X131787157Y-51557157I-150000J0D01*
G01*
%TO.C,C11*%
X113317157Y-55407157D02*
X113317157Y-53527157D01*
X113467157Y-53377157D02*
X114947157Y-53377157D01*
X114947157Y-55557157D02*
X113467157Y-55557157D01*
X116807157Y-55557157D02*
X118287157Y-55557157D01*
X118287157Y-53377157D02*
X116807157Y-53377157D01*
X118437157Y-55407157D02*
X118437157Y-53527157D01*
X113317157Y-53527157D02*
G75*
G02*
X113467157Y-53377157I150000J0D01*
G01*
X113467157Y-55557157D02*
G75*
G02*
X113317157Y-55407157I0J150000D01*
G01*
X118287157Y-53377157D02*
G75*
G02*
X118437157Y-53527157I0J-150000D01*
G01*
X118437157Y-55407157D02*
G75*
G02*
X118287157Y-55557157I-150000J0D01*
G01*
%TO.C,C10*%
X72817157Y-65407157D02*
X72817157Y-63527157D01*
X72967157Y-63377157D02*
X74447157Y-63377157D01*
X74447157Y-65557157D02*
X72967157Y-65557157D01*
X76307157Y-65557157D02*
X77787157Y-65557157D01*
X77787157Y-63377157D02*
X76307157Y-63377157D01*
X77937157Y-65407157D02*
X77937157Y-63527157D01*
X72817157Y-63527157D02*
G75*
G02*
X72967157Y-63377157I150000J0D01*
G01*
X72967157Y-65557157D02*
G75*
G02*
X72817157Y-65407157I0J150000D01*
G01*
X77787157Y-63377157D02*
G75*
G02*
X77937157Y-63527157I0J-150000D01*
G01*
X77937157Y-65407157D02*
G75*
G02*
X77787157Y-65557157I-150000J0D01*
G01*
D10*
%TO.C,D2*%
X72087157Y-57077157D02*
X74247157Y-57077157D01*
X72087157Y-59867157D02*
X72087157Y-57077157D01*
X74247157Y-59867157D02*
X72087157Y-59867157D01*
X75187157Y-59857157D02*
X75167157Y-59867157D01*
X76847157Y-57047157D02*
X75067157Y-57047157D01*
X76867157Y-59857157D02*
X75187157Y-59857157D01*
X76967157Y-57167157D02*
X76847157Y-57047157D01*
X76967157Y-59797157D02*
X76867157Y-59857157D01*
X76967157Y-59797157D02*
X76967157Y-59797157D01*
X76967157Y-59797157D02*
X76967157Y-59797157D01*
X77207157Y-57397157D02*
X76967157Y-57167157D01*
X77207157Y-59557157D02*
X76967157Y-59797157D01*
X77207157Y-59557157D02*
X77207157Y-57397157D01*
D11*
%TO.C,F1*%
X126747157Y-62907157D02*
X126747157Y-61027157D01*
X126897157Y-60877157D02*
X128087157Y-60877157D01*
X128087157Y-63057157D02*
X126897157Y-63057157D01*
X129947157Y-63057157D02*
X131137157Y-63057157D01*
X131137157Y-60877157D02*
X129947157Y-60877157D01*
X131287157Y-62907157D02*
X131287157Y-61027157D01*
D14*
X129015888Y-61964958D02*
G75*
G02*
X129017157Y-62807157I-728731J-422199D01*
G01*
X129018427Y-61969356D02*
G75*
G02*
X129017158Y-61127158I728729J422198D01*
G01*
D11*
%TO.C,C3*%
X100817157Y-66407157D02*
X100817157Y-64527157D01*
X100967157Y-64377157D02*
X102447157Y-64377157D01*
X102447157Y-66557157D02*
X100967157Y-66557157D01*
X104307157Y-66557157D02*
X105787157Y-66557157D01*
X105787157Y-64377157D02*
X104307157Y-64377157D01*
X105937157Y-66407157D02*
X105937157Y-64527157D01*
X100817157Y-64527157D02*
G75*
G02*
X100967157Y-64377157I150000J0D01*
G01*
X100967157Y-66557157D02*
G75*
G02*
X100817157Y-66407157I0J150000D01*
G01*
X105787157Y-64377157D02*
G75*
G02*
X105937157Y-64527157I0J-150000D01*
G01*
X105937157Y-66407157D02*
G75*
G02*
X105787157Y-66557157I-150000J0D01*
G01*
%TO.C,R3*%
X113177157Y-57887157D02*
X114537157Y-57887157D01*
X113177157Y-60047157D02*
X113177157Y-57887157D01*
X114537157Y-60047157D02*
X113177157Y-60047157D01*
X116437157Y-60047157D02*
X117797157Y-60047157D01*
X117797157Y-57887157D02*
X116437157Y-57887157D01*
X117797157Y-60047157D02*
X117797157Y-57887157D01*
%TO.C,Q1*%
X62237157Y-59987157D02*
X63697157Y-59987157D01*
X62237157Y-61977157D02*
X62237157Y-61057157D01*
X62237157Y-63047157D02*
X63697157Y-63047157D01*
X63697157Y-59987157D02*
X63697157Y-61027157D01*
X63697157Y-63047157D02*
X63697157Y-62007157D01*
%TO.C,C6*%
X91317157Y-66407157D02*
X91317157Y-64527157D01*
X91467157Y-64377157D02*
X92947157Y-64377157D01*
X92947157Y-66557157D02*
X91467157Y-66557157D01*
X94807157Y-66557157D02*
X96287157Y-66557157D01*
X96287157Y-64377157D02*
X94807157Y-64377157D01*
X96437157Y-66407157D02*
X96437157Y-64527157D01*
X91317157Y-64527157D02*
G75*
G02*
X91467157Y-64377157I150000J0D01*
G01*
X91467157Y-66557157D02*
G75*
G02*
X91317157Y-66407157I0J150000D01*
G01*
X96287157Y-64377157D02*
G75*
G02*
X96437157Y-64527157I0J-150000D01*
G01*
X96437157Y-66407157D02*
G75*
G02*
X96287157Y-66557157I-150000J0D01*
G01*
%TO.C,C1*%
X65350000Y-65407157D02*
X65350000Y-63527157D01*
X65500000Y-63377157D02*
X66980000Y-63377157D01*
X66980000Y-65557157D02*
X65500000Y-65557157D01*
X68840000Y-65557157D02*
X70320000Y-65557157D01*
X70320000Y-63377157D02*
X68840000Y-63377157D01*
X70470000Y-65407157D02*
X70470000Y-63527157D01*
X65350000Y-63527157D02*
G75*
G02*
X65500000Y-63377157I150000J0D01*
G01*
X65500000Y-65557157D02*
G75*
G02*
X65350000Y-65407157I0J150000D01*
G01*
X70320000Y-63377157D02*
G75*
G02*
X70470000Y-63527157I0J-150000D01*
G01*
X70470000Y-65407157D02*
G75*
G02*
X70320000Y-65557157I-150000J0D01*
G01*
%TO.C,R16*%
X139887157Y-77007157D02*
X139887157Y-78367157D01*
X139887157Y-81627157D02*
X139887157Y-80267157D01*
X142047157Y-77007157D02*
X139887157Y-77007157D01*
X142047157Y-78367157D02*
X142047157Y-77007157D01*
X142047157Y-80267157D02*
X142047157Y-81627157D01*
X142047157Y-81627157D02*
X139887157Y-81627157D01*
%TO.C,R14*%
X136177157Y-50387157D02*
X136177157Y-52547157D01*
X136177157Y-52547157D02*
X137537157Y-52547157D01*
X137537157Y-50387157D02*
X136177157Y-50387157D01*
X139437157Y-50387157D02*
X140797157Y-50387157D01*
X140797157Y-50387157D02*
X140797157Y-52547157D01*
X140797157Y-52547157D02*
X139437157Y-52547157D01*
%TO.C,R10*%
X73137157Y-76387157D02*
X74497157Y-76387157D01*
X73137157Y-78547157D02*
X73137157Y-76387157D01*
X74497157Y-78547157D02*
X73137157Y-78547157D01*
X76397157Y-78547157D02*
X77757157Y-78547157D01*
X77757157Y-76387157D02*
X76397157Y-76387157D01*
X77757157Y-78547157D02*
X77757157Y-76387157D01*
%TO.C,BT2*%
X120887157Y-56387157D02*
X121637157Y-56387157D01*
X120887157Y-57137157D02*
X120887157Y-56387157D01*
X120887157Y-59797157D02*
X120887157Y-60547157D01*
X120887157Y-60547157D02*
X121637157Y-60547157D01*
X125047157Y-56387157D02*
X124297157Y-56387157D01*
X125047157Y-57137157D02*
X125047157Y-56387157D01*
X125047157Y-59797157D02*
X125047157Y-60547157D01*
X125047157Y-60547157D02*
X124297157Y-60547157D01*
X122037157Y-61007157D02*
G75*
G02*
X121897157Y-61007157I-70000J0D01*
G01*
X121897157Y-61007157D02*
G75*
G02*
X122037157Y-61007157I70000J0D01*
G01*
%TO.C,C4*%
X126817157Y-56407157D02*
X126817157Y-54527157D01*
X126967157Y-54377157D02*
X128447157Y-54377157D01*
X128447157Y-56557157D02*
X126967157Y-56557157D01*
X130307157Y-56557157D02*
X131787157Y-56557157D01*
X131787157Y-54377157D02*
X130307157Y-54377157D01*
X131937157Y-56407157D02*
X131937157Y-54527157D01*
X126817157Y-54527157D02*
G75*
G02*
X126967157Y-54377157I150000J0D01*
G01*
X126967157Y-56557157D02*
G75*
G02*
X126817157Y-56407157I0J150000D01*
G01*
X131787157Y-54377157D02*
G75*
G02*
X131937157Y-54527157I0J-150000D01*
G01*
X131937157Y-56407157D02*
G75*
G02*
X131787157Y-56557157I-150000J0D01*
G01*
D15*
%TO.C,U1*%
X93392155Y-69082713D02*
X93392155Y-71082713D01*
X93392155Y-83282713D02*
X93392155Y-89257720D01*
X93892151Y-69082716D02*
X93392155Y-69082713D01*
X97212161Y-69082713D02*
X95042161Y-69082713D01*
X103885967Y-69082713D02*
X101715966Y-69082713D01*
X105542158Y-84337713D02*
X93392157Y-84337713D01*
X105542161Y-69082713D02*
X105042161Y-69082713D01*
X105542161Y-69082713D02*
X105542161Y-71082713D01*
X105542161Y-81482713D02*
X105542161Y-89257720D01*
X105542161Y-89257720D02*
X93392155Y-89257720D01*
D16*
X106202102Y-88947720D02*
G75*
G02*
X105902102Y-88947720I-150000J0D01*
G01*
X105902102Y-88947720D02*
G75*
G02*
X106202102Y-88947720I150000J0D01*
G01*
D11*
%TO.C,R9*%
X120637157Y-71887157D02*
X120637157Y-74047157D01*
X120637157Y-74047157D02*
X121997157Y-74047157D01*
X121997157Y-71887157D02*
X120637157Y-71887157D01*
X123897157Y-71887157D02*
X125257157Y-71887157D01*
X125257157Y-71887157D02*
X125257157Y-74047157D01*
X125257157Y-74047157D02*
X123897157Y-74047157D01*
%TO.C,L1*%
X65317157Y-72527157D02*
X65467157Y-72377157D01*
X65317157Y-74407157D02*
X65317157Y-72527157D01*
X65467157Y-72377157D02*
X66947157Y-72377157D01*
X65467157Y-74557157D02*
X65317157Y-74407157D01*
X66947157Y-74557157D02*
X65467157Y-74557157D01*
X68807157Y-74557157D02*
X70287157Y-74557157D01*
X70287157Y-72377157D02*
X68807157Y-72377157D01*
X70287157Y-74557157D02*
X70437157Y-74407157D01*
X70437157Y-72527157D02*
X70287157Y-72377157D01*
X70437157Y-74407157D02*
X70437157Y-72527157D01*
%TO.C,D6*%
X142877157Y-50427157D02*
X147827157Y-50427157D01*
X142877157Y-52537157D02*
X142877157Y-50427157D01*
X147837157Y-52537157D02*
X142877157Y-52537157D01*
X148037157Y-50637157D02*
X147827157Y-50427157D01*
X148037157Y-52257157D02*
X148037157Y-50637157D01*
X148037157Y-52257157D02*
X148037157Y-52337157D01*
X148037157Y-52337157D02*
X147837157Y-52537157D01*
%TO.C,R13*%
X120637157Y-66887157D02*
X120637157Y-69047157D01*
X120637157Y-69047157D02*
X121997157Y-69047157D01*
X121997157Y-66887157D02*
X120637157Y-66887157D01*
X123897157Y-66887157D02*
X125257157Y-66887157D01*
X125257157Y-66887157D02*
X125257157Y-69047157D01*
X125257157Y-69047157D02*
X123897157Y-69047157D01*
%TO.C,C7*%
X79497157Y-69907157D02*
X79497157Y-68027157D01*
X79647157Y-67877157D02*
X81127157Y-67877157D01*
X81127157Y-70057157D02*
X79647157Y-70057157D01*
X82987157Y-70057157D02*
X84467157Y-70057157D01*
X84467157Y-67877157D02*
X82987157Y-67877157D01*
X84617157Y-69907157D02*
X84617157Y-68027157D01*
X79497157Y-68027157D02*
G75*
G02*
X79647157Y-67877157I150000J0D01*
G01*
X79647157Y-70057157D02*
G75*
G02*
X79497157Y-69907157I0J150000D01*
G01*
X84467157Y-67877157D02*
G75*
G02*
X84617157Y-68027157I0J-150000D01*
G01*
X84617157Y-69907157D02*
G75*
G02*
X84467157Y-70057157I-150000J0D01*
G01*
%TO.C,R15*%
X135887157Y-77007157D02*
X135887157Y-78367157D01*
X135887157Y-81627157D02*
X135887157Y-80267157D01*
X138047157Y-77007157D02*
X135887157Y-77007157D01*
X138047157Y-78367157D02*
X138047157Y-77007157D01*
X138047157Y-80267157D02*
X138047157Y-81627157D01*
X138047157Y-81627157D02*
X135887157Y-81627157D01*
%TO.C,R6*%
X113677157Y-47887157D02*
X115037157Y-47887157D01*
X113677157Y-50047157D02*
X113677157Y-47887157D01*
X115037157Y-50047157D02*
X113677157Y-50047157D01*
X116937157Y-50047157D02*
X118297157Y-50047157D01*
X118297157Y-47887157D02*
X116937157Y-47887157D01*
X118297157Y-50047157D02*
X118297157Y-47887157D01*
%TO.C,R4*%
X114677157Y-66887157D02*
X116037157Y-66887157D01*
X114677157Y-69047157D02*
X114677157Y-66887157D01*
X116037157Y-69047157D02*
X114677157Y-69047157D01*
X117937157Y-69047157D02*
X119297157Y-69047157D01*
X119297157Y-66887157D02*
X117937157Y-66887157D01*
X119297157Y-69047157D02*
X119297157Y-66887157D01*
%TO.C,R2*%
X59177157Y-74387157D02*
X60537157Y-74387157D01*
X59177157Y-76547157D02*
X59177157Y-74387157D01*
X60537157Y-76547157D02*
X59177157Y-76547157D01*
X62437157Y-76547157D02*
X63797157Y-76547157D01*
X63797157Y-74387157D02*
X62437157Y-74387157D01*
X63797157Y-76547157D02*
X63797157Y-74387157D01*
%TO.C,R12*%
X101137157Y-59887157D02*
X101137157Y-62047157D01*
X101137157Y-62047157D02*
X102497157Y-62047157D01*
X102497157Y-59887157D02*
X101137157Y-59887157D01*
X104397157Y-59887157D02*
X105757157Y-59887157D01*
X105757157Y-59887157D02*
X105757157Y-62047157D01*
X105757157Y-62047157D02*
X104397157Y-62047157D01*
%TD*%
M02*
