%TF.GenerationSoftware,KiCad,Pcbnew,8.0.1*%
%TF.CreationDate,2024-04-01T02:15:42+02:00*%
%TF.ProjectId,ef_hbmob,65665f68-626d-46f6-922e-6b696361645f,rev?*%
%TF.SameCoordinates,Original*%
%TF.FileFunction,Copper,L2,Bot*%
%TF.FilePolarity,Positive*%
%FSLAX46Y46*%
G04 Gerber Fmt 4.6, Leading zero omitted, Abs format (unit mm)*
G04 Created by KiCad (PCBNEW 8.0.1) date 2024-04-01 02:15:42*
%MOMM*%
%LPD*%
G01*
G04 APERTURE LIST*
%TA.AperFunction,ComponentPad*%
%ADD10C,2.000000*%
%TD*%
%TA.AperFunction,ComponentPad*%
%ADD11C,3.600000*%
%TD*%
%TA.AperFunction,ConnectorPad*%
%ADD12C,5.600000*%
%TD*%
%TA.AperFunction,ComponentPad*%
%ADD13C,0.500000*%
%TD*%
%TA.AperFunction,ComponentPad*%
%ADD14O,1.000000X1.000000*%
%TD*%
%TA.AperFunction,ComponentPad*%
%ADD15R,1.570000X1.700000*%
%TD*%
%TA.AperFunction,ComponentPad*%
%ADD16C,1.700000*%
%TD*%
%TA.AperFunction,ComponentPad*%
%ADD17R,2.000000X2.200000*%
%TD*%
%TA.AperFunction,ComponentPad*%
%ADD18C,2.200000*%
%TD*%
%TA.AperFunction,ComponentPad*%
%ADD19C,1.800000*%
%TD*%
%TA.AperFunction,ComponentPad*%
%ADD20O,1.800000X0.900000*%
%TD*%
%TA.AperFunction,ComponentPad*%
%ADD21R,1.700000X1.700000*%
%TD*%
%TA.AperFunction,ComponentPad*%
%ADD22C,3.200000*%
%TD*%
%TA.AperFunction,ComponentPad*%
%ADD23C,1.400000*%
%TD*%
%TA.AperFunction,ComponentPad*%
%ADD24O,2.900000X1.700000*%
%TD*%
%TA.AperFunction,ComponentPad*%
%ADD25C,1.600000*%
%TD*%
%TA.AperFunction,ViaPad*%
%ADD26C,0.600000*%
%TD*%
%TA.AperFunction,Conductor*%
%ADD27C,0.200000*%
%TD*%
G04 APERTURE END LIST*
D10*
%TO.P,SW2,*%
%TO.N,*%
X140467157Y-61467157D03*
X140467157Y-70467157D03*
%TO.P,SW2,1,1*%
%TO.N,unconnected-(SW2-Pad1)*%
X146717157Y-68467157D03*
%TO.P,SW2,2,2*%
%TO.N,Net-(R8-Pad2)*%
X134217157Y-68467157D03*
%TO.P,SW2,3,3*%
%TO.N,GND*%
X146717157Y-63467157D03*
%TO.P,SW2,4,4*%
%TO.N,unconnected-(SW2-Pad4)*%
X134217157Y-63467157D03*
%TD*%
D11*
%TO.P,H1,1,1*%
%TO.N,GND*%
X58467157Y-44967157D03*
D12*
X58467157Y-44967157D03*
%TD*%
D13*
%TO.P,U2,11,PGND*%
%TO.N,GND*%
X74892157Y-70597157D03*
X75467157Y-69647157D03*
X75467157Y-71547157D03*
X76042157Y-70597157D03*
%TD*%
D14*
%TO.P,D3,1,A*%
%TO.N,LEDs*%
X137457157Y-85967157D03*
%TO.P,D3,2,BK*%
%TO.N,Net-(D3-BK)*%
X136207157Y-85967157D03*
%TO.P,D3,3,GK*%
%TO.N,Net-(D3-GK)*%
X138717157Y-85967157D03*
%TO.P,D3,4,RK*%
%TO.N,Net-(D3-RK)*%
X139967157Y-85967157D03*
%TD*%
D11*
%TO.P,H3,1,1*%
%TO.N,GND*%
X58467157Y-87967157D03*
D12*
X58467157Y-87967157D03*
%TD*%
D11*
%TO.P,H2,1,1*%
%TO.N,GND*%
X145467157Y-44967157D03*
D12*
X145467157Y-44967157D03*
%TD*%
D15*
%TO.P,J3,1,Pin_1*%
%TO.N,GPIO.02*%
X132507157Y-80967157D03*
D16*
%TO.P,J3,2,Pin_2*%
%TO.N,GPIO.03*%
X129967157Y-80967157D03*
%TO.P,J3,3,Pin_3*%
%TO.N,GPIO.06*%
X127427157Y-80967157D03*
%TO.P,J3,4,Pin_4*%
%TO.N,GPIO.07*%
X124887157Y-80967157D03*
%TO.P,J3,5,Pin_5*%
%TO.N,GPIO.14*%
X122347157Y-80967157D03*
%TO.P,J3,6,Pin_6*%
%TO.N,GPIO.15*%
X119807157Y-80967157D03*
%TO.P,J3,7,Pin_7*%
%TO.N,GPIO.16*%
X117267157Y-80967157D03*
%TO.P,J3,8,Pin_8*%
%TO.N,GPIO.17*%
X114727157Y-80967157D03*
%TO.P,J3,9,Pin_9*%
%TO.N,+3.3V*%
X112187157Y-80967157D03*
%TO.P,J3,10,Pin_10*%
%TO.N,GND*%
X109647157Y-80967157D03*
%TD*%
D11*
%TO.P,H4,1,1*%
%TO.N,GND*%
X145467157Y-87967157D03*
D12*
X145467157Y-87967157D03*
%TD*%
D17*
%TO.P,CN1,1,1*%
%TO.N,LEDs*%
X106777157Y-48467157D03*
D18*
%TO.P,CN1,2,2*%
%TO.N,D+*%
X104237157Y-48467157D03*
%TO.P,CN1,3,3*%
%TO.N,D-*%
X101697157Y-48467157D03*
%TO.P,CN1,4,4*%
%TO.N,GND*%
X99157157Y-48467157D03*
%TD*%
D19*
%TO.P,BZ1,1,+*%
%TO.N,Net-(BZ1-+)*%
X71967157Y-49467157D03*
%TO.P,BZ1,2,-*%
%TO.N,GND*%
X66967157Y-49467157D03*
%TD*%
D20*
%TO.P,M1,1,+*%
%TO.N,Net-(D1-K)*%
X60337157Y-51097157D03*
%TO.P,M1,2,-*%
%TO.N,GND*%
X60337157Y-49837157D03*
%TD*%
D21*
%TO.P,J2,1,Pin_1*%
%TO.N,GND*%
X86547157Y-80467157D03*
D16*
%TO.P,J2,2,Pin_2*%
%TO.N,SWDIO*%
X84007157Y-80467157D03*
%TO.P,J2,3,Pin_3*%
%TO.N,SWDCLK*%
X81467157Y-80467157D03*
%TO.P,J2,4,Pin_4*%
%TO.N,+3.3V*%
X78927157Y-80467157D03*
%TD*%
D22*
%TO.P,USB1,0,0*%
%TO.N,unconnected-(USB1-Pad0)_0*%
X92217157Y-48507157D03*
%TO.N,unconnected-(USB1-Pad0)*%
X80177157Y-48507157D03*
D23*
%TO.P,USB1,1,VCC*%
%TO.N,LEDs*%
X84927157Y-46207157D03*
%TO.P,USB1,2,D-*%
%TO.N,D-*%
X87467157Y-46207157D03*
%TO.P,USB1,3,D+*%
%TO.N,D+*%
X87467157Y-49467157D03*
%TO.P,USB1,4,GND*%
%TO.N,GND*%
X84927157Y-49467157D03*
%TD*%
D24*
%TO.P,SW1,1,A*%
%TO.N,Net-(SW1-A)*%
X71967157Y-79467157D03*
%TO.P,SW1,2,B*%
%TO.N,GND*%
X71967157Y-84267157D03*
%TO.P,SW1,3,C*%
%TO.N,unconnected-(SW1-C-Pad3)*%
X71967157Y-89067157D03*
%TD*%
D25*
%TO.P,BT1,1,+*%
%TO.N,Net-(BT1-+)*%
X129467157Y-65967157D03*
%TO.P,BT1,2,-*%
%TO.N,GND*%
X59467157Y-65967157D03*
%TD*%
D26*
%TO.N,Net-(U1-PO.18)*%
X90967157Y-76467157D03*
%TO.N,STATUS_LED*%
X89967157Y-76467157D03*
X90000000Y-73000000D03*
%TO.N,Net-(U1-PO.18)*%
X90967157Y-73467157D03*
X91793800Y-71293800D03*
%TO.N,STATUS_LED*%
X90967157Y-71212652D03*
X90967157Y-69867157D03*
%TO.N,Net-(U1-PO.18)*%
X91967157Y-69867157D03*
%TO.N,Net-(U1-PO.04)*%
X110467157Y-69967157D03*
X112467157Y-69967157D03*
%TO.N,Net-(BT2-PROG3)*%
X123467157Y-55567157D03*
%TO.N,Net-(BT2-PROG1)*%
X122500000Y-54000000D03*
X122567157Y-55567157D03*
%TO.N,Net-(BT2-PROG3)*%
X123467157Y-54000000D03*
%TO.N,GND*%
X100967157Y-71967157D03*
X97967157Y-74967157D03*
X64467157Y-74467157D03*
X64467157Y-76467157D03*
X102967157Y-66967157D03*
X103157717Y-69157717D03*
X96467157Y-42967157D03*
X96467157Y-47967157D03*
X88967157Y-82467157D03*
X91967157Y-62967157D03*
X83967157Y-61967157D03*
X83467157Y-71467157D03*
X92967157Y-68967157D03*
X88967157Y-80967157D03*
X124467157Y-55867157D03*
X78967157Y-71467157D03*
X77837157Y-69997157D03*
X125967157Y-54467157D03*
%TO.N,LEDs*%
X136567157Y-82500000D03*
X108967157Y-49967157D03*
X115507157Y-66007157D03*
X122467157Y-61967157D03*
X112967157Y-67967157D03*
X115967157Y-61467157D03*
X95567157Y-74164809D03*
X110967157Y-51967157D03*
%TO.N,SYSTEM_LOAD*%
X119467157Y-60967157D03*
X92467157Y-57967157D03*
X118467157Y-61967157D03*
X86467157Y-57967157D03*
%TO.N,LED_G*%
X126467157Y-59667157D03*
X138000000Y-63467157D03*
X108467157Y-60967157D03*
%TO.N,LED_B*%
X141467157Y-58967157D03*
X125901470Y-59067157D03*
%TO.N,LED_R*%
X128967157Y-58467157D03*
X111967157Y-56467157D03*
X126467157Y-58467157D03*
%TO.N,+3.3V*%
X112967157Y-71467157D03*
X126967157Y-52467157D03*
X77467157Y-66467157D03*
X128967157Y-73967157D03*
X127467157Y-71467157D03*
X109967157Y-71467157D03*
%TO.N,MODE*%
X101000000Y-78467157D03*
X68967157Y-75467157D03*
%TO.N,ALARM*%
X98967157Y-77467157D03*
X95467157Y-66967157D03*
%TO.N,D+*%
X86467157Y-52967157D03*
X91967157Y-51467157D03*
%TO.N,GPIO.02*%
X109467157Y-75467157D03*
X109667154Y-78467157D03*
%TO.N,GPIO.03*%
X110467157Y-76367157D03*
X110467157Y-78467157D03*
%TO.N,MOTOR*%
X61967157Y-70467157D03*
X89967157Y-70467157D03*
%TO.N,BUZZER*%
X78967157Y-60467157D03*
X92467157Y-67967157D03*
%TD*%
D27*
%TO.N,D+*%
X90000000Y-53500000D02*
X87000000Y-53500000D01*
X87000000Y-53500000D02*
X86467157Y-52967157D01*
X91967157Y-51532843D02*
X90000000Y-53500000D01*
X91967157Y-51467157D02*
X91967157Y-51532843D01*
%TO.N,LED_G*%
X138000000Y-62000000D02*
X135667157Y-59667157D01*
X138000000Y-63467157D02*
X138000000Y-62000000D01*
X135667157Y-59667157D02*
X126467157Y-59667157D01*
%TO.N,LED_R*%
X124967157Y-56467157D02*
X126967157Y-58467157D01*
X111967157Y-56467157D02*
X124967157Y-56467157D01*
%TO.N,LED_G*%
X110434314Y-59500000D02*
X125485784Y-59500000D01*
X108967157Y-60967157D02*
X110434314Y-59500000D01*
X125652941Y-59667157D02*
X126467157Y-59667157D01*
X108467157Y-60967157D02*
X108967157Y-60967157D01*
X125485784Y-59500000D02*
X125652941Y-59667157D01*
%TO.N,LEDs*%
X123967157Y-60467157D02*
X122467157Y-61967157D01*
X135467157Y-60467157D02*
X123967157Y-60467157D01*
X136567157Y-82500000D02*
X135967157Y-81900000D01*
X135967157Y-81900000D02*
X135967157Y-60967157D01*
X135967157Y-60967157D02*
X135467157Y-60467157D01*
%TO.N,MODE*%
X86830760Y-75467157D02*
X68967157Y-75467157D01*
X89830760Y-78467157D02*
X86830760Y-75467157D01*
X101000000Y-78467157D02*
X89830760Y-78467157D01*
%TO.N,STATUS_LED*%
X89967157Y-72967157D02*
X90000000Y-73000000D01*
%TO.N,Net-(U1-PO.18)*%
X91000000Y-73500000D02*
X90967157Y-73467157D01*
X90967157Y-73467157D02*
X90967157Y-73500000D01*
X91967157Y-71120443D02*
X91967157Y-69867157D01*
X91658501Y-71429099D02*
X91967157Y-71120443D01*
%TO.N,STATUS_LED*%
X90967157Y-71000000D02*
X90967157Y-69867157D01*
X90967157Y-71212652D02*
X90967157Y-71000000D01*
%TO.N,Net-(U1-PO.18)*%
X91967157Y-69967157D02*
X92000000Y-70000000D01*
X91967157Y-69867157D02*
X91967157Y-69967157D01*
%TO.N,Net-(BT2-PROG1)*%
X122500000Y-54000000D02*
X122567157Y-54067157D01*
X122567157Y-54067157D02*
X122567157Y-55567157D01*
%TO.N,Net-(BT2-PROG3)*%
X123467157Y-54000000D02*
X123467157Y-55467157D01*
%TO.N,GND*%
X97967157Y-74967157D02*
X100967157Y-71967157D01*
X64467157Y-76467157D02*
X64467157Y-74467157D01*
X103157717Y-67157717D02*
X102967157Y-66967157D01*
X103157717Y-69157717D02*
X103157717Y-67157717D01*
X96467157Y-47967157D02*
X96467157Y-42967157D01*
X77837157Y-69997157D02*
X78967157Y-71127157D01*
X92967157Y-68967157D02*
X85967157Y-68967157D01*
X88967157Y-80967157D02*
X88967157Y-81467157D01*
X89967157Y-61967157D02*
X83967157Y-61967157D01*
X125967157Y-54467157D02*
X124567157Y-55867157D01*
X90967157Y-62967157D02*
X89967157Y-61967157D01*
X85967157Y-68967157D02*
X83467157Y-71467157D01*
X124567157Y-55867157D02*
X124467157Y-55867157D01*
X91967157Y-62967157D02*
X90967157Y-62967157D01*
X88967157Y-81467157D02*
X88967157Y-82467157D01*
X78967157Y-71127157D02*
X78967157Y-71467157D01*
%TO.N,LEDs*%
X95567157Y-74164809D02*
X97769505Y-74164809D01*
X97769505Y-74164809D02*
X101467157Y-70467157D01*
X108967157Y-70467157D02*
X111467157Y-67967157D01*
X111467157Y-67967157D02*
X112967157Y-67967157D01*
X110967157Y-51967157D02*
X108967157Y-49967157D01*
X115507157Y-61927157D02*
X115967157Y-61467157D01*
X101467157Y-70467157D02*
X108967157Y-70467157D01*
X115507157Y-66007157D02*
X115507157Y-61927157D01*
%TO.N,SYSTEM_LOAD*%
X119467157Y-60967157D02*
X118467157Y-61967157D01*
X92467157Y-57967157D02*
X86467157Y-57967157D01*
%TO.N,LED_B*%
X141367157Y-59067157D02*
X141467157Y-58967157D01*
X125901470Y-59067157D02*
X141367157Y-59067157D01*
%TO.N,LED_R*%
X126967157Y-58467157D02*
X128967157Y-58467157D01*
X126467157Y-58467157D02*
X126967157Y-58467157D01*
%TO.N,+3.3V*%
X128967157Y-73967157D02*
X127467157Y-72467157D01*
X81467157Y-65967157D02*
X81367157Y-65967157D01*
X127467157Y-72467157D02*
X127467157Y-71467157D01*
X109967157Y-71467157D02*
X112967157Y-71467157D01*
%TO.N,ALARM*%
X94967157Y-67467157D02*
X94967157Y-74413338D01*
X98020976Y-77467157D02*
X98967157Y-77467157D01*
X95467157Y-66967157D02*
X94967157Y-67467157D01*
X94967157Y-74413338D02*
X98020976Y-77467157D01*
%TO.N,GPIO.02*%
X109467157Y-75467157D02*
X109467157Y-78267160D01*
X109467157Y-78267160D02*
X109667154Y-78467157D01*
%TO.N,GPIO.03*%
X110467157Y-78467157D02*
X110467157Y-76367157D01*
%TO.N,MOTOR*%
X88467157Y-70467157D02*
X85467157Y-73467157D01*
X64467157Y-73467157D02*
X61967157Y-70967157D01*
X89967157Y-70467157D02*
X88467157Y-70467157D01*
X85467157Y-73467157D02*
X64467157Y-73467157D01*
X61967157Y-70967157D02*
X61967157Y-70467157D01*
%TO.N,BUZZER*%
X78967157Y-64967157D02*
X78967157Y-60467157D01*
X92467157Y-67967157D02*
X81967157Y-67967157D01*
X81967157Y-67967157D02*
X78967157Y-64967157D01*
%TO.N,Net-(U1-PO.18)*%
X90967157Y-76467157D02*
X90967157Y-73467157D01*
%TO.N,Net-(U1-PO.04)*%
X110467157Y-69967157D02*
X112467157Y-69967157D01*
%TO.N,STATUS_LED*%
X89967157Y-76467157D02*
X89967157Y-72967157D01*
%TD*%
%TA.AperFunction,Conductor*%
%TO.N,+3.3V*%
G36*
X96237082Y-41987342D02*
G01*
X96282837Y-42040146D01*
X96292781Y-42109304D01*
X96263756Y-42172860D01*
X96210997Y-42208699D01*
X96117635Y-42241367D01*
X95964894Y-42337341D01*
X95837341Y-42464894D01*
X95741368Y-42617633D01*
X95681788Y-42787902D01*
X95681787Y-42787907D01*
X95661592Y-42967153D01*
X95661592Y-42967160D01*
X95681787Y-43146406D01*
X95681788Y-43146411D01*
X95741368Y-43316680D01*
X95837342Y-43469420D01*
X95839602Y-43472254D01*
X95840491Y-43474432D01*
X95841046Y-43475315D01*
X95840891Y-43475412D01*
X95866012Y-43536940D01*
X95866657Y-43549569D01*
X95866657Y-47384744D01*
X95846972Y-47451783D01*
X95839607Y-47462053D01*
X95837343Y-47464891D01*
X95741368Y-47617633D01*
X95681788Y-47787902D01*
X95681787Y-47787907D01*
X95661592Y-47967153D01*
X95661592Y-47967160D01*
X95681787Y-48146406D01*
X95681788Y-48146411D01*
X95741368Y-48316680D01*
X95786125Y-48387910D01*
X95837341Y-48469419D01*
X95964895Y-48596973D01*
X96117635Y-48692946D01*
X96287902Y-48752525D01*
X96287907Y-48752526D01*
X96467153Y-48772722D01*
X96467157Y-48772722D01*
X96467161Y-48772722D01*
X96646406Y-48752526D01*
X96646409Y-48752525D01*
X96646412Y-48752525D01*
X96816679Y-48692946D01*
X96969419Y-48596973D01*
X97096973Y-48469419D01*
X97098394Y-48467157D01*
X97551708Y-48467157D01*
X97571474Y-48718308D01*
X97630283Y-48963267D01*
X97726690Y-49196016D01*
X97858317Y-49410810D01*
X97858318Y-49410813D01*
X97858321Y-49410816D01*
X98021933Y-49602381D01*
X98134433Y-49698465D01*
X98213500Y-49765995D01*
X98213503Y-49765996D01*
X98428297Y-49897623D01*
X98661046Y-49994030D01*
X98906009Y-50052840D01*
X99157157Y-50072606D01*
X99408305Y-50052840D01*
X99653268Y-49994030D01*
X99886016Y-49897623D01*
X100100816Y-49765993D01*
X100292381Y-49602381D01*
X100332867Y-49554976D01*
X100391373Y-49516784D01*
X100461241Y-49516285D01*
X100520287Y-49553639D01*
X100521392Y-49554913D01*
X100560832Y-49601092D01*
X100561933Y-49602381D01*
X100753500Y-49765995D01*
X100753503Y-49765996D01*
X100968297Y-49897623D01*
X101201046Y-49994030D01*
X101446009Y-50052840D01*
X101697157Y-50072606D01*
X101948305Y-50052840D01*
X102193268Y-49994030D01*
X102426016Y-49897623D01*
X102640816Y-49765993D01*
X102832381Y-49602381D01*
X102872867Y-49554976D01*
X102931373Y-49516784D01*
X103001241Y-49516285D01*
X103060287Y-49553639D01*
X103061392Y-49554913D01*
X103100832Y-49601092D01*
X103101933Y-49602381D01*
X103293500Y-49765995D01*
X103293503Y-49765996D01*
X103508297Y-49897623D01*
X103741046Y-49994030D01*
X103986009Y-50052840D01*
X104237157Y-50072606D01*
X104488305Y-50052840D01*
X104733268Y-49994030D01*
X104966016Y-49897623D01*
X105166725Y-49774627D01*
X105234171Y-49756383D01*
X105300773Y-49777499D01*
X105330781Y-49806043D01*
X105419612Y-49924704D01*
X105534821Y-50010950D01*
X105534828Y-50010954D01*
X105669674Y-50061248D01*
X105669673Y-50061248D01*
X105676601Y-50061992D01*
X105729284Y-50067657D01*
X107825029Y-50067656D01*
X107884640Y-50061248D01*
X108011823Y-50013811D01*
X108081512Y-50008828D01*
X108142835Y-50042313D01*
X108176320Y-50103636D01*
X108178374Y-50116110D01*
X108181787Y-50146407D01*
X108181788Y-50146411D01*
X108241368Y-50316680D01*
X108312121Y-50429282D01*
X108337341Y-50469419D01*
X108464895Y-50596973D01*
X108617635Y-50692946D01*
X108787902Y-50752525D01*
X108874826Y-50762318D01*
X108939237Y-50789383D01*
X108948622Y-50797857D01*
X110136455Y-51985690D01*
X110169940Y-52047013D01*
X110171994Y-52059487D01*
X110181787Y-52146406D01*
X110241367Y-52316678D01*
X110334498Y-52464894D01*
X110337341Y-52469419D01*
X110464895Y-52596973D01*
X110617635Y-52692946D01*
X110787902Y-52752525D01*
X110787907Y-52752526D01*
X110967153Y-52772722D01*
X110967157Y-52772722D01*
X110967161Y-52772722D01*
X111146406Y-52752526D01*
X111146409Y-52752525D01*
X111146412Y-52752525D01*
X111316679Y-52692946D01*
X111469419Y-52596973D01*
X111596973Y-52469419D01*
X111692946Y-52316679D01*
X111752525Y-52146412D01*
X111752526Y-52146406D01*
X111772722Y-51967160D01*
X111772722Y-51967153D01*
X111752526Y-51787907D01*
X111752525Y-51787902D01*
X111722839Y-51703064D01*
X111692946Y-51617635D01*
X111596973Y-51464895D01*
X111469419Y-51337341D01*
X111316678Y-51241367D01*
X111146406Y-51181787D01*
X111059487Y-51171994D01*
X110995073Y-51144927D01*
X110985690Y-51136455D01*
X109797857Y-49948622D01*
X109764372Y-49887299D01*
X109762320Y-49874843D01*
X109752525Y-49787902D01*
X109692946Y-49617635D01*
X109596973Y-49464895D01*
X109469419Y-49337341D01*
X109464509Y-49334256D01*
X109316680Y-49241368D01*
X109146411Y-49181788D01*
X109146406Y-49181787D01*
X108967161Y-49161592D01*
X108967153Y-49161592D01*
X108787907Y-49181787D01*
X108787902Y-49181788D01*
X108617633Y-49241368D01*
X108467628Y-49335624D01*
X108400392Y-49354624D01*
X108333556Y-49334256D01*
X108288342Y-49280989D01*
X108277656Y-49230630D01*
X108277656Y-47319286D01*
X108277655Y-47319280D01*
X108271248Y-47259673D01*
X108220954Y-47124828D01*
X108220950Y-47124821D01*
X108134704Y-47009612D01*
X108134701Y-47009609D01*
X108019492Y-46923363D01*
X108019485Y-46923359D01*
X107884639Y-46873065D01*
X107884640Y-46873065D01*
X107825040Y-46866658D01*
X107825038Y-46866657D01*
X107825030Y-46866657D01*
X107825021Y-46866657D01*
X105729286Y-46866657D01*
X105729280Y-46866658D01*
X105669673Y-46873065D01*
X105534828Y-46923359D01*
X105534821Y-46923363D01*
X105419612Y-47009609D01*
X105330781Y-47128270D01*
X105274846Y-47170141D01*
X105205155Y-47175124D01*
X105166725Y-47159685D01*
X104966016Y-47036690D01*
X104733267Y-46940283D01*
X104488308Y-46881474D01*
X104237157Y-46861708D01*
X103986005Y-46881474D01*
X103741046Y-46940283D01*
X103508297Y-47036690D01*
X103293503Y-47168317D01*
X103293500Y-47168318D01*
X103101933Y-47331933D01*
X103061447Y-47379336D01*
X103002940Y-47417529D01*
X102933072Y-47418027D01*
X102874026Y-47380673D01*
X102872867Y-47379336D01*
X102862138Y-47366774D01*
X102832381Y-47331933D01*
X102652683Y-47178456D01*
X102640813Y-47168318D01*
X102640810Y-47168317D01*
X102426016Y-47036690D01*
X102193267Y-46940283D01*
X101948308Y-46881474D01*
X101697157Y-46861708D01*
X101446005Y-46881474D01*
X101201046Y-46940283D01*
X100968297Y-47036690D01*
X100753503Y-47168317D01*
X100753500Y-47168318D01*
X100561933Y-47331933D01*
X100521447Y-47379336D01*
X100462940Y-47417529D01*
X100393072Y-47418027D01*
X100334026Y-47380673D01*
X100332867Y-47379336D01*
X100322138Y-47366774D01*
X100292381Y-47331933D01*
X100112683Y-47178456D01*
X100100813Y-47168318D01*
X100100810Y-47168317D01*
X99886016Y-47036690D01*
X99653267Y-46940283D01*
X99408308Y-46881474D01*
X99157157Y-46861708D01*
X98906005Y-46881474D01*
X98661046Y-46940283D01*
X98428297Y-47036690D01*
X98213503Y-47168317D01*
X98213500Y-47168318D01*
X98021933Y-47331933D01*
X97858318Y-47523500D01*
X97858317Y-47523503D01*
X97726690Y-47738297D01*
X97630283Y-47971046D01*
X97571474Y-48216005D01*
X97551708Y-48467157D01*
X97098394Y-48467157D01*
X97192946Y-48316679D01*
X97252525Y-48146412D01*
X97261511Y-48066657D01*
X97272722Y-47967160D01*
X97272722Y-47967153D01*
X97252526Y-47787907D01*
X97252525Y-47787902D01*
X97192945Y-47617633D01*
X97112581Y-47489735D01*
X97096973Y-47464895D01*
X97096971Y-47464893D01*
X97096970Y-47464891D01*
X97094707Y-47462053D01*
X97093816Y-47459872D01*
X97093268Y-47458999D01*
X97093421Y-47458902D01*
X97068301Y-47397366D01*
X97067657Y-47384744D01*
X97067657Y-43549569D01*
X97087342Y-43482530D01*
X97094712Y-43472254D01*
X97096967Y-43469424D01*
X97096973Y-43469419D01*
X97192946Y-43316679D01*
X97252525Y-43146412D01*
X97272722Y-42967157D01*
X97272687Y-42966847D01*
X97252526Y-42787907D01*
X97252525Y-42787902D01*
X97192945Y-42617633D01*
X97096972Y-42464894D01*
X96969419Y-42337341D01*
X96816678Y-42241367D01*
X96723317Y-42208699D01*
X96666540Y-42167977D01*
X96640793Y-42103024D01*
X96654249Y-42034463D01*
X96702636Y-41984060D01*
X96764271Y-41967657D01*
X143603904Y-41967657D01*
X143670943Y-41987342D01*
X143716698Y-42040146D01*
X143726642Y-42109304D01*
X143697617Y-42172860D01*
X143667834Y-42197905D01*
X143612238Y-42231357D01*
X143599069Y-42241368D01*
X143327329Y-42447938D01*
X143327320Y-42447946D01*
X143067488Y-42694071D01*
X142835798Y-42966837D01*
X142835791Y-42966847D01*
X142634947Y-43263070D01*
X142634941Y-43263079D01*
X142467308Y-43579268D01*
X142467299Y-43579286D01*
X142334831Y-43911757D01*
X142334829Y-43911764D01*
X142239089Y-44256591D01*
X142239083Y-44256617D01*
X142181186Y-44609771D01*
X142181185Y-44609788D01*
X142161809Y-44967154D01*
X142161809Y-44967159D01*
X142181185Y-45324525D01*
X142181186Y-45324542D01*
X142239083Y-45677696D01*
X142239089Y-45677722D01*
X142334829Y-46022549D01*
X142334831Y-46022556D01*
X142467299Y-46355027D01*
X142467308Y-46355045D01*
X142634941Y-46671234D01*
X142634944Y-46671239D01*
X142634946Y-46671242D01*
X142805885Y-46923359D01*
X142835791Y-46967466D01*
X142835798Y-46967476D01*
X143015009Y-47178459D01*
X143067489Y-47240243D01*
X143327320Y-47486368D01*
X143612238Y-47702957D01*
X143918904Y-47887472D01*
X143918906Y-47887473D01*
X143918908Y-47887474D01*
X143918912Y-47887476D01*
X144099547Y-47971046D01*
X144243722Y-48037748D01*
X144582883Y-48152025D01*
X144932411Y-48228962D01*
X145288209Y-48267657D01*
X145288215Y-48267657D01*
X145646099Y-48267657D01*
X145646105Y-48267657D01*
X146001903Y-48228962D01*
X146351431Y-48152025D01*
X146690592Y-48037748D01*
X147015410Y-47887472D01*
X147322076Y-47702957D01*
X147606994Y-47486368D01*
X147866825Y-47240243D01*
X148098522Y-46967468D01*
X148166873Y-46866658D01*
X148240024Y-46758769D01*
X148293938Y-46714328D01*
X148363321Y-46706090D01*
X148426142Y-46736671D01*
X148462458Y-46796361D01*
X148466657Y-46828356D01*
X148466657Y-63412029D01*
X148449624Y-63470034D01*
X148464113Y-63497293D01*
X148466657Y-63522284D01*
X148466657Y-68412029D01*
X148449624Y-68470034D01*
X148464113Y-68497293D01*
X148466657Y-68522284D01*
X148466657Y-84343157D01*
X148446972Y-84410196D01*
X148394168Y-84455951D01*
X148342657Y-84467157D01*
X133467157Y-84467157D01*
X75467157Y-84467157D01*
X74041657Y-84467157D01*
X73974618Y-84447472D01*
X73928863Y-84394668D01*
X73917657Y-84343157D01*
X73917657Y-84160870D01*
X73884403Y-83950917D01*
X73884403Y-83950914D01*
X73818714Y-83748745D01*
X73722208Y-83559341D01*
X73722206Y-83559338D01*
X73722205Y-83559336D01*
X73597266Y-83387370D01*
X73446943Y-83237047D01*
X73274977Y-83112108D01*
X73085571Y-83015601D01*
X73085570Y-83015600D01*
X73085569Y-83015600D01*
X72883400Y-82949911D01*
X72883398Y-82949910D01*
X72883397Y-82949910D01*
X72722114Y-82924365D01*
X72673444Y-82916657D01*
X71260870Y-82916657D01*
X71212199Y-82924365D01*
X71050917Y-82949910D01*
X70848742Y-83015601D01*
X70659336Y-83112108D01*
X70487370Y-83237047D01*
X70337047Y-83387370D01*
X70212108Y-83559336D01*
X70115601Y-83748742D01*
X70049910Y-83950917D01*
X70016657Y-84160870D01*
X70016657Y-84343157D01*
X69996972Y-84410196D01*
X69944168Y-84455951D01*
X69892657Y-84467157D01*
X55591657Y-84467157D01*
X55524618Y-84447472D01*
X55478863Y-84394668D01*
X55467657Y-84343157D01*
X55467657Y-82467160D01*
X88161592Y-82467160D01*
X88181787Y-82646406D01*
X88181788Y-82646411D01*
X88241368Y-82816680D01*
X88262005Y-82849523D01*
X88337341Y-82969419D01*
X88464895Y-83096973D01*
X88617635Y-83192946D01*
X88743686Y-83237053D01*
X88787902Y-83252525D01*
X88787907Y-83252526D01*
X88967153Y-83272722D01*
X88967157Y-83272722D01*
X88967161Y-83272722D01*
X89146406Y-83252526D01*
X89146409Y-83252525D01*
X89146412Y-83252525D01*
X89316679Y-83192946D01*
X89469419Y-83096973D01*
X89596973Y-82969419D01*
X89692946Y-82816679D01*
X89752525Y-82646412D01*
X89760024Y-82579856D01*
X89772722Y-82467160D01*
X89772722Y-82467153D01*
X89752526Y-82287907D01*
X89752525Y-82287902D01*
X89745812Y-82268717D01*
X89692946Y-82117635D01*
X89596973Y-81964895D01*
X89596971Y-81964893D01*
X89596970Y-81964891D01*
X89594707Y-81962053D01*
X89593816Y-81959872D01*
X89593268Y-81958999D01*
X89593421Y-81958902D01*
X89568301Y-81897366D01*
X89567657Y-81884744D01*
X89567657Y-81549569D01*
X89587342Y-81482530D01*
X89594712Y-81472254D01*
X89596967Y-81469424D01*
X89596973Y-81469419D01*
X89692946Y-81316679D01*
X89752525Y-81146412D01*
X89752686Y-81144987D01*
X89772722Y-80967160D01*
X89772722Y-80967157D01*
X108291498Y-80967157D01*
X108312093Y-81202560D01*
X108312095Y-81202570D01*
X108373251Y-81430812D01*
X108373253Y-81430816D01*
X108373254Y-81430820D01*
X108422739Y-81536940D01*
X108473122Y-81644987D01*
X108473124Y-81644991D01*
X108554320Y-81760950D01*
X108608662Y-81838558D01*
X108775756Y-82005652D01*
X108872541Y-82073422D01*
X108969322Y-82141189D01*
X108969324Y-82141190D01*
X108969327Y-82141192D01*
X109183494Y-82241060D01*
X109411749Y-82302220D01*
X109588191Y-82317657D01*
X109647156Y-82322816D01*
X109647157Y-82322816D01*
X109647158Y-82322816D01*
X109706123Y-82317657D01*
X109882565Y-82302220D01*
X110110820Y-82241060D01*
X110324987Y-82141192D01*
X110518558Y-82005652D01*
X110685652Y-81838558D01*
X110815889Y-81652560D01*
X110870464Y-81608937D01*
X110939962Y-81601743D01*
X111002317Y-81633266D01*
X111019037Y-81652562D01*
X111072230Y-81728530D01*
X111663359Y-81137401D01*
X111674627Y-81179454D01*
X111747038Y-81304872D01*
X111849442Y-81407276D01*
X111974860Y-81479687D01*
X112016911Y-81490954D01*
X111425782Y-82082082D01*
X111509578Y-82140756D01*
X111723664Y-82240586D01*
X111723673Y-82240590D01*
X111951830Y-82301724D01*
X111951841Y-82301726D01*
X112187155Y-82322314D01*
X112187159Y-82322314D01*
X112422472Y-82301726D01*
X112422483Y-82301724D01*
X112650640Y-82240590D01*
X112650649Y-82240586D01*
X112864735Y-82140757D01*
X112864739Y-82140755D01*
X112948530Y-82082083D01*
X112948530Y-82082082D01*
X112357401Y-81490954D01*
X112399454Y-81479687D01*
X112524872Y-81407276D01*
X112627276Y-81304872D01*
X112699687Y-81179454D01*
X112710954Y-81137402D01*
X113302082Y-81728530D01*
X113355276Y-81652562D01*
X113409853Y-81608938D01*
X113479352Y-81601745D01*
X113541706Y-81633267D01*
X113558426Y-81652562D01*
X113688662Y-81838558D01*
X113855756Y-82005652D01*
X113952541Y-82073422D01*
X114049322Y-82141189D01*
X114049324Y-82141190D01*
X114049327Y-82141192D01*
X114263494Y-82241060D01*
X114491749Y-82302220D01*
X114668191Y-82317657D01*
X114727156Y-82322816D01*
X114727157Y-82322816D01*
X114727158Y-82322816D01*
X114786123Y-82317657D01*
X114962565Y-82302220D01*
X115190820Y-82241060D01*
X115404987Y-82141192D01*
X115598558Y-82005652D01*
X115765652Y-81838558D01*
X115895582Y-81652999D01*
X115950159Y-81609374D01*
X116019657Y-81602180D01*
X116082012Y-81633703D01*
X116098732Y-81652999D01*
X116228657Y-81838552D01*
X116228662Y-81838558D01*
X116395756Y-82005652D01*
X116492541Y-82073422D01*
X116589322Y-82141189D01*
X116589324Y-82141190D01*
X116589327Y-82141192D01*
X116803494Y-82241060D01*
X117031749Y-82302220D01*
X117208191Y-82317657D01*
X117267156Y-82322816D01*
X117267157Y-82322816D01*
X117267158Y-82322816D01*
X117326123Y-82317657D01*
X117502565Y-82302220D01*
X117730820Y-82241060D01*
X117944987Y-82141192D01*
X118138558Y-82005652D01*
X118305652Y-81838558D01*
X118435582Y-81652999D01*
X118490159Y-81609374D01*
X118559657Y-81602180D01*
X118622012Y-81633703D01*
X118638732Y-81652999D01*
X118768657Y-81838552D01*
X118768662Y-81838558D01*
X118935756Y-82005652D01*
X119032541Y-82073422D01*
X119129322Y-82141189D01*
X119129324Y-82141190D01*
X119129327Y-82141192D01*
X119343494Y-82241060D01*
X119571749Y-82302220D01*
X119748191Y-82317657D01*
X119807156Y-82322816D01*
X119807157Y-82322816D01*
X119807158Y-82322816D01*
X119866123Y-82317657D01*
X120042565Y-82302220D01*
X120270820Y-82241060D01*
X120484987Y-82141192D01*
X120678558Y-82005652D01*
X120845652Y-81838558D01*
X120975582Y-81652999D01*
X121030159Y-81609374D01*
X121099657Y-81602180D01*
X121162012Y-81633703D01*
X121178732Y-81652999D01*
X121308657Y-81838552D01*
X121308662Y-81838558D01*
X121475756Y-82005652D01*
X121572541Y-82073422D01*
X121669322Y-82141189D01*
X121669324Y-82141190D01*
X121669327Y-82141192D01*
X121883494Y-82241060D01*
X122111749Y-82302220D01*
X122288191Y-82317657D01*
X122347156Y-82322816D01*
X122347157Y-82322816D01*
X122347158Y-82322816D01*
X122406123Y-82317657D01*
X122582565Y-82302220D01*
X122810820Y-82241060D01*
X123024987Y-82141192D01*
X123218558Y-82005652D01*
X123385652Y-81838558D01*
X123515582Y-81652999D01*
X123570159Y-81609374D01*
X123639657Y-81602180D01*
X123702012Y-81633703D01*
X123718732Y-81652999D01*
X123848657Y-81838552D01*
X123848662Y-81838558D01*
X124015756Y-82005652D01*
X124112541Y-82073422D01*
X124209322Y-82141189D01*
X124209324Y-82141190D01*
X124209327Y-82141192D01*
X124423494Y-82241060D01*
X124651749Y-82302220D01*
X124828191Y-82317657D01*
X124887156Y-82322816D01*
X124887157Y-82322816D01*
X124887158Y-82322816D01*
X124946123Y-82317657D01*
X125122565Y-82302220D01*
X125350820Y-82241060D01*
X125564987Y-82141192D01*
X125758558Y-82005652D01*
X125925652Y-81838558D01*
X126055582Y-81652999D01*
X126110159Y-81609374D01*
X126179657Y-81602180D01*
X126242012Y-81633703D01*
X126258732Y-81652999D01*
X126388657Y-81838552D01*
X126388662Y-81838558D01*
X126555756Y-82005652D01*
X126652541Y-82073422D01*
X126749322Y-82141189D01*
X126749324Y-82141190D01*
X126749327Y-82141192D01*
X126963494Y-82241060D01*
X127191749Y-82302220D01*
X127368191Y-82317657D01*
X127427156Y-82322816D01*
X127427157Y-82322816D01*
X127427158Y-82322816D01*
X127486123Y-82317657D01*
X127662565Y-82302220D01*
X127890820Y-82241060D01*
X128104987Y-82141192D01*
X128298558Y-82005652D01*
X128465652Y-81838558D01*
X128595582Y-81652999D01*
X128650159Y-81609374D01*
X128719657Y-81602180D01*
X128782012Y-81633703D01*
X128798732Y-81652999D01*
X128928657Y-81838552D01*
X128928662Y-81838558D01*
X129095756Y-82005652D01*
X129192541Y-82073422D01*
X129289322Y-82141189D01*
X129289324Y-82141190D01*
X129289327Y-82141192D01*
X129503494Y-82241060D01*
X129731749Y-82302220D01*
X129908191Y-82317657D01*
X129967156Y-82322816D01*
X129967157Y-82322816D01*
X129967158Y-82322816D01*
X130026123Y-82317657D01*
X130202565Y-82302220D01*
X130430820Y-82241060D01*
X130644987Y-82141192D01*
X130838558Y-82005652D01*
X131005652Y-81838558D01*
X131005663Y-81838541D01*
X131007441Y-81836424D01*
X131008472Y-81835737D01*
X131009480Y-81834730D01*
X131009682Y-81834932D01*
X131065610Y-81797719D01*
X131135471Y-81796607D01*
X131194843Y-81833441D01*
X131224876Y-81896526D01*
X131225724Y-81902868D01*
X131228064Y-81924637D01*
X131278359Y-82059485D01*
X131278363Y-82059492D01*
X131364609Y-82174701D01*
X131364612Y-82174704D01*
X131479821Y-82260950D01*
X131479828Y-82260954D01*
X131614674Y-82311248D01*
X131614673Y-82311248D01*
X131621601Y-82311992D01*
X131674284Y-82317657D01*
X133340029Y-82317656D01*
X133399640Y-82311248D01*
X133534488Y-82260953D01*
X133649703Y-82174703D01*
X133735953Y-82059488D01*
X133786248Y-81924640D01*
X133792657Y-81865030D01*
X133792656Y-80069285D01*
X133786248Y-80009674D01*
X133784006Y-80003664D01*
X133735954Y-79874828D01*
X133735950Y-79874821D01*
X133649704Y-79759612D01*
X133649701Y-79759609D01*
X133534492Y-79673363D01*
X133534485Y-79673359D01*
X133399639Y-79623065D01*
X133399640Y-79623065D01*
X133340040Y-79616658D01*
X133340038Y-79616657D01*
X133340030Y-79616657D01*
X133340021Y-79616657D01*
X131674286Y-79616657D01*
X131674280Y-79616658D01*
X131614673Y-79623065D01*
X131479828Y-79673359D01*
X131479821Y-79673363D01*
X131364612Y-79759609D01*
X131364609Y-79759612D01*
X131278363Y-79874821D01*
X131278359Y-79874828D01*
X131228065Y-80009673D01*
X131225725Y-80031444D01*
X131198987Y-80095995D01*
X131141594Y-80135843D01*
X131071769Y-80138336D01*
X131011680Y-80102683D01*
X131007448Y-80097896D01*
X131005648Y-80095751D01*
X130838559Y-79928663D01*
X130838552Y-79928658D01*
X130644991Y-79793124D01*
X130644987Y-79793122D01*
X130624138Y-79783400D01*
X130430820Y-79693254D01*
X130430816Y-79693253D01*
X130430812Y-79693251D01*
X130202570Y-79632095D01*
X130202560Y-79632093D01*
X129967158Y-79611498D01*
X129967156Y-79611498D01*
X129731753Y-79632093D01*
X129731743Y-79632095D01*
X129503501Y-79693251D01*
X129503492Y-79693255D01*
X129289328Y-79793121D01*
X129289326Y-79793122D01*
X129095754Y-79928662D01*
X128928662Y-80095754D01*
X128798732Y-80281315D01*
X128744155Y-80324940D01*
X128674657Y-80332134D01*
X128612302Y-80300611D01*
X128595582Y-80281315D01*
X128465651Y-80095754D01*
X128298559Y-79928663D01*
X128298552Y-79928658D01*
X128104991Y-79793124D01*
X128104987Y-79793122D01*
X128084138Y-79783400D01*
X127890820Y-79693254D01*
X127890816Y-79693253D01*
X127890812Y-79693251D01*
X127662570Y-79632095D01*
X127662560Y-79632093D01*
X127427158Y-79611498D01*
X127427156Y-79611498D01*
X127191753Y-79632093D01*
X127191743Y-79632095D01*
X126963501Y-79693251D01*
X126963492Y-79693255D01*
X126749328Y-79793121D01*
X126749326Y-79793122D01*
X126555754Y-79928662D01*
X126388662Y-80095754D01*
X126258732Y-80281315D01*
X126204155Y-80324940D01*
X126134657Y-80332134D01*
X126072302Y-80300611D01*
X126055582Y-80281315D01*
X125925651Y-80095754D01*
X125758559Y-79928663D01*
X125758552Y-79928658D01*
X125564991Y-79793124D01*
X125564987Y-79793122D01*
X125544138Y-79783400D01*
X125350820Y-79693254D01*
X125350816Y-79693253D01*
X125350812Y-79693251D01*
X125122570Y-79632095D01*
X125122560Y-79632093D01*
X124887158Y-79611498D01*
X124887156Y-79611498D01*
X124651753Y-79632093D01*
X124651743Y-79632095D01*
X124423501Y-79693251D01*
X124423492Y-79693255D01*
X124209328Y-79793121D01*
X124209326Y-79793122D01*
X124015754Y-79928662D01*
X123848662Y-80095754D01*
X123718732Y-80281315D01*
X123664155Y-80324940D01*
X123594657Y-80332134D01*
X123532302Y-80300611D01*
X123515582Y-80281315D01*
X123385651Y-80095754D01*
X123218559Y-79928663D01*
X123218552Y-79928658D01*
X123024991Y-79793124D01*
X123024987Y-79793122D01*
X123004138Y-79783400D01*
X122810820Y-79693254D01*
X122810816Y-79693253D01*
X122810812Y-79693251D01*
X122582570Y-79632095D01*
X122582560Y-79632093D01*
X122347158Y-79611498D01*
X122347156Y-79611498D01*
X122111753Y-79632093D01*
X122111743Y-79632095D01*
X121883501Y-79693251D01*
X121883492Y-79693255D01*
X121669328Y-79793121D01*
X121669326Y-79793122D01*
X121475754Y-79928662D01*
X121308662Y-80095754D01*
X121178732Y-80281315D01*
X121124155Y-80324940D01*
X121054657Y-80332134D01*
X120992302Y-80300611D01*
X120975582Y-80281315D01*
X120845651Y-80095754D01*
X120678559Y-79928663D01*
X120678552Y-79928658D01*
X120484991Y-79793124D01*
X120484987Y-79793122D01*
X120464138Y-79783400D01*
X120270820Y-79693254D01*
X120270816Y-79693253D01*
X120270812Y-79693251D01*
X120042570Y-79632095D01*
X120042560Y-79632093D01*
X119807158Y-79611498D01*
X119807156Y-79611498D01*
X119571753Y-79632093D01*
X119571743Y-79632095D01*
X119343501Y-79693251D01*
X119343492Y-79693255D01*
X119129328Y-79793121D01*
X119129326Y-79793122D01*
X118935754Y-79928662D01*
X118768662Y-80095754D01*
X118638732Y-80281315D01*
X118584155Y-80324940D01*
X118514657Y-80332134D01*
X118452302Y-80300611D01*
X118435582Y-80281315D01*
X118305651Y-80095754D01*
X118138559Y-79928663D01*
X118138552Y-79928658D01*
X117944991Y-79793124D01*
X117944987Y-79793122D01*
X117924138Y-79783400D01*
X117730820Y-79693254D01*
X117730816Y-79693253D01*
X117730812Y-79693251D01*
X117502570Y-79632095D01*
X117502560Y-79632093D01*
X117267158Y-79611498D01*
X117267156Y-79611498D01*
X117031753Y-79632093D01*
X117031743Y-79632095D01*
X116803501Y-79693251D01*
X116803492Y-79693255D01*
X116589328Y-79793121D01*
X116589326Y-79793122D01*
X116395754Y-79928662D01*
X116228662Y-80095754D01*
X116098732Y-80281315D01*
X116044155Y-80324940D01*
X115974657Y-80332134D01*
X115912302Y-80300611D01*
X115895582Y-80281315D01*
X115765651Y-80095754D01*
X115598559Y-79928663D01*
X115598552Y-79928658D01*
X115404991Y-79793124D01*
X115404987Y-79793122D01*
X115384138Y-79783400D01*
X115190820Y-79693254D01*
X115190816Y-79693253D01*
X115190812Y-79693251D01*
X114962570Y-79632095D01*
X114962560Y-79632093D01*
X114727158Y-79611498D01*
X114727156Y-79611498D01*
X114491753Y-79632093D01*
X114491743Y-79632095D01*
X114263501Y-79693251D01*
X114263492Y-79693255D01*
X114049328Y-79793121D01*
X114049326Y-79793122D01*
X113855754Y-79928662D01*
X113688662Y-80095754D01*
X113558426Y-80281752D01*
X113503849Y-80325377D01*
X113434351Y-80332571D01*
X113371996Y-80301048D01*
X113355276Y-80281752D01*
X113302082Y-80205783D01*
X113302082Y-80205782D01*
X112710954Y-80796911D01*
X112699687Y-80754860D01*
X112627276Y-80629442D01*
X112524872Y-80527038D01*
X112399454Y-80454627D01*
X112357402Y-80443359D01*
X112948530Y-79852230D01*
X112948530Y-79852229D01*
X112864740Y-79793559D01*
X112864736Y-79793557D01*
X112650649Y-79693727D01*
X112650640Y-79693723D01*
X112422483Y-79632589D01*
X112422472Y-79632587D01*
X112187159Y-79612000D01*
X112187155Y-79612000D01*
X111951841Y-79632587D01*
X111951830Y-79632589D01*
X111723673Y-79693723D01*
X111723664Y-79693727D01*
X111509576Y-79793558D01*
X111425782Y-79852229D01*
X112016912Y-80443359D01*
X111974860Y-80454627D01*
X111849442Y-80527038D01*
X111747038Y-80629442D01*
X111674627Y-80754860D01*
X111663359Y-80796912D01*
X111072230Y-80205783D01*
X111019038Y-80281751D01*
X110964461Y-80325376D01*
X110894963Y-80332570D01*
X110832608Y-80301048D01*
X110815887Y-80281751D01*
X110685651Y-80095754D01*
X110518559Y-79928663D01*
X110518552Y-79928658D01*
X110324991Y-79793124D01*
X110324987Y-79793122D01*
X110304138Y-79783400D01*
X110110820Y-79693254D01*
X110110816Y-79693253D01*
X110110812Y-79693251D01*
X109882570Y-79632095D01*
X109882560Y-79632093D01*
X109647158Y-79611498D01*
X109647156Y-79611498D01*
X109411753Y-79632093D01*
X109411743Y-79632095D01*
X109183501Y-79693251D01*
X109183492Y-79693255D01*
X108969328Y-79793121D01*
X108969326Y-79793122D01*
X108775754Y-79928662D01*
X108608662Y-80095754D01*
X108473122Y-80289326D01*
X108473121Y-80289328D01*
X108373255Y-80503492D01*
X108373251Y-80503501D01*
X108312095Y-80731743D01*
X108312093Y-80731753D01*
X108291498Y-80967156D01*
X108291498Y-80967157D01*
X89772722Y-80967157D01*
X89772722Y-80967153D01*
X89752526Y-80787907D01*
X89752525Y-80787902D01*
X89722664Y-80702565D01*
X89692946Y-80617635D01*
X89596973Y-80464895D01*
X89469419Y-80337341D01*
X89461132Y-80332134D01*
X89316680Y-80241368D01*
X89146411Y-80181788D01*
X89146406Y-80181787D01*
X88967161Y-80161592D01*
X88967153Y-80161592D01*
X88787907Y-80181787D01*
X88787902Y-80181788D01*
X88617633Y-80241368D01*
X88464894Y-80337341D01*
X88337341Y-80464894D01*
X88241368Y-80617633D01*
X88181788Y-80787902D01*
X88181787Y-80787907D01*
X88161592Y-80967153D01*
X88161592Y-80967160D01*
X88181787Y-81146406D01*
X88181788Y-81146411D01*
X88241368Y-81316680D01*
X88255116Y-81338559D01*
X88309204Y-81424640D01*
X88337342Y-81469420D01*
X88339602Y-81472254D01*
X88340491Y-81474432D01*
X88341046Y-81475315D01*
X88340891Y-81475412D01*
X88366012Y-81536940D01*
X88366657Y-81549569D01*
X88366657Y-81884744D01*
X88346972Y-81951783D01*
X88339607Y-81962053D01*
X88337343Y-81964891D01*
X88241368Y-82117633D01*
X88181788Y-82287902D01*
X88181787Y-82287907D01*
X88161592Y-82467153D01*
X88161592Y-82467160D01*
X55467657Y-82467160D01*
X55467657Y-79573444D01*
X70016657Y-79573444D01*
X70024516Y-79623065D01*
X70049580Y-79781315D01*
X70049911Y-79783400D01*
X70105546Y-79954627D01*
X70115601Y-79985571D01*
X70212108Y-80174977D01*
X70337047Y-80346943D01*
X70487370Y-80497266D01*
X70659336Y-80622205D01*
X70659338Y-80622206D01*
X70659341Y-80622208D01*
X70848745Y-80718714D01*
X71050914Y-80784403D01*
X71260870Y-80817657D01*
X71260871Y-80817657D01*
X72673443Y-80817657D01*
X72673444Y-80817657D01*
X72883400Y-80784403D01*
X73085569Y-80718714D01*
X73274973Y-80622208D01*
X73296946Y-80606243D01*
X73446943Y-80497266D01*
X73446945Y-80497263D01*
X73446949Y-80497261D01*
X73477052Y-80467158D01*
X77572000Y-80467158D01*
X77592587Y-80702472D01*
X77592589Y-80702483D01*
X77653723Y-80930640D01*
X77653727Y-80930649D01*
X77753557Y-81144736D01*
X77753559Y-81144740D01*
X77812229Y-81228530D01*
X77812230Y-81228530D01*
X78403359Y-80637401D01*
X78414627Y-80679454D01*
X78487038Y-80804872D01*
X78589442Y-80907276D01*
X78714860Y-80979687D01*
X78756911Y-80990954D01*
X78165782Y-81582082D01*
X78249578Y-81640756D01*
X78463664Y-81740586D01*
X78463673Y-81740590D01*
X78691830Y-81801724D01*
X78691841Y-81801726D01*
X78927155Y-81822314D01*
X78927159Y-81822314D01*
X79162472Y-81801726D01*
X79162483Y-81801724D01*
X79390640Y-81740590D01*
X79390649Y-81740586D01*
X79604735Y-81640757D01*
X79604739Y-81640755D01*
X79688530Y-81582083D01*
X79688530Y-81582082D01*
X79097401Y-80990954D01*
X79139454Y-80979687D01*
X79264872Y-80907276D01*
X79367276Y-80804872D01*
X79439687Y-80679454D01*
X79450954Y-80637401D01*
X80042082Y-81228530D01*
X80095276Y-81152562D01*
X80149853Y-81108938D01*
X80219352Y-81101745D01*
X80281706Y-81133267D01*
X80298426Y-81152562D01*
X80428662Y-81338558D01*
X80595756Y-81505652D01*
X80692541Y-81573422D01*
X80789322Y-81641189D01*
X80789324Y-81641190D01*
X80789327Y-81641192D01*
X81003494Y-81741060D01*
X81231749Y-81802220D01*
X81408191Y-81817657D01*
X81467156Y-81822816D01*
X81467157Y-81822816D01*
X81467158Y-81822816D01*
X81526123Y-81817657D01*
X81702565Y-81802220D01*
X81930820Y-81741060D01*
X82144987Y-81641192D01*
X82338558Y-81505652D01*
X82505652Y-81338558D01*
X82635582Y-81152999D01*
X82690159Y-81109374D01*
X82759657Y-81102180D01*
X82822012Y-81133703D01*
X82838732Y-81152999D01*
X82956164Y-81320710D01*
X82968662Y-81338558D01*
X83135756Y-81505652D01*
X83232541Y-81573422D01*
X83329322Y-81641189D01*
X83329324Y-81641190D01*
X83329327Y-81641192D01*
X83543494Y-81741060D01*
X83771749Y-81802220D01*
X83948191Y-81817657D01*
X84007156Y-81822816D01*
X84007157Y-81822816D01*
X84007158Y-81822816D01*
X84066123Y-81817657D01*
X84242565Y-81802220D01*
X84470820Y-81741060D01*
X84684987Y-81641192D01*
X84878558Y-81505652D01*
X85000486Y-81383723D01*
X85061805Y-81350241D01*
X85131497Y-81355225D01*
X85187431Y-81397096D01*
X85204346Y-81428074D01*
X85253359Y-81559485D01*
X85253363Y-81559492D01*
X85339609Y-81674701D01*
X85339612Y-81674704D01*
X85454821Y-81760950D01*
X85454828Y-81760954D01*
X85589674Y-81811248D01*
X85589673Y-81811248D01*
X85596601Y-81811992D01*
X85649284Y-81817657D01*
X87445029Y-81817656D01*
X87504640Y-81811248D01*
X87639488Y-81760953D01*
X87754703Y-81674703D01*
X87840953Y-81559488D01*
X87891248Y-81424640D01*
X87897657Y-81365030D01*
X87897656Y-79569285D01*
X87891248Y-79509674D01*
X87889967Y-79506240D01*
X87840954Y-79374828D01*
X87840950Y-79374821D01*
X87754704Y-79259612D01*
X87754701Y-79259609D01*
X87639492Y-79173363D01*
X87639485Y-79173359D01*
X87504639Y-79123065D01*
X87504640Y-79123065D01*
X87445040Y-79116658D01*
X87445038Y-79116657D01*
X87445030Y-79116657D01*
X87445021Y-79116657D01*
X85649286Y-79116657D01*
X85649280Y-79116658D01*
X85589673Y-79123065D01*
X85454828Y-79173359D01*
X85454821Y-79173363D01*
X85339612Y-79259609D01*
X85339609Y-79259612D01*
X85253363Y-79374821D01*
X85253360Y-79374826D01*
X85204346Y-79506240D01*
X85162474Y-79562173D01*
X85097010Y-79586590D01*
X85028737Y-79571738D01*
X85000483Y-79550587D01*
X84878559Y-79428663D01*
X84878552Y-79428658D01*
X84684991Y-79293124D01*
X84684987Y-79293122D01*
X84641239Y-79272722D01*
X84470820Y-79193254D01*
X84470816Y-79193253D01*
X84470812Y-79193251D01*
X84242570Y-79132095D01*
X84242560Y-79132093D01*
X84007158Y-79111498D01*
X84007156Y-79111498D01*
X83771753Y-79132093D01*
X83771743Y-79132095D01*
X83543501Y-79193251D01*
X83543492Y-79193255D01*
X83329328Y-79293121D01*
X83329326Y-79293122D01*
X83135754Y-79428662D01*
X82968662Y-79595754D01*
X82838732Y-79781315D01*
X82784155Y-79824940D01*
X82714657Y-79832134D01*
X82652302Y-79800611D01*
X82635582Y-79781315D01*
X82505651Y-79595754D01*
X82338559Y-79428663D01*
X82338552Y-79428658D01*
X82144991Y-79293124D01*
X82144987Y-79293122D01*
X82101239Y-79272722D01*
X81930820Y-79193254D01*
X81930816Y-79193253D01*
X81930812Y-79193251D01*
X81702570Y-79132095D01*
X81702560Y-79132093D01*
X81467158Y-79111498D01*
X81467156Y-79111498D01*
X81231753Y-79132093D01*
X81231743Y-79132095D01*
X81003501Y-79193251D01*
X81003492Y-79193255D01*
X80789328Y-79293121D01*
X80789326Y-79293122D01*
X80595754Y-79428662D01*
X80428662Y-79595754D01*
X80298426Y-79781752D01*
X80243849Y-79825377D01*
X80174351Y-79832571D01*
X80111996Y-79801048D01*
X80095276Y-79781752D01*
X80042082Y-79705783D01*
X80042082Y-79705782D01*
X79450954Y-80296911D01*
X79439687Y-80254860D01*
X79367276Y-80129442D01*
X79264872Y-80027038D01*
X79139454Y-79954627D01*
X79097402Y-79943359D01*
X79688530Y-79352230D01*
X79688530Y-79352229D01*
X79604740Y-79293559D01*
X79604736Y-79293557D01*
X79390649Y-79193727D01*
X79390640Y-79193723D01*
X79162483Y-79132589D01*
X79162472Y-79132587D01*
X78927159Y-79112000D01*
X78927155Y-79112000D01*
X78691841Y-79132587D01*
X78691830Y-79132589D01*
X78463673Y-79193723D01*
X78463664Y-79193727D01*
X78249576Y-79293558D01*
X78165782Y-79352229D01*
X78756912Y-79943359D01*
X78714860Y-79954627D01*
X78589442Y-80027038D01*
X78487038Y-80129442D01*
X78414627Y-80254860D01*
X78403359Y-80296912D01*
X77812229Y-79705782D01*
X77753558Y-79789576D01*
X77653727Y-80003664D01*
X77653723Y-80003673D01*
X77592589Y-80231830D01*
X77592587Y-80231841D01*
X77572000Y-80467155D01*
X77572000Y-80467158D01*
X73477052Y-80467158D01*
X73597261Y-80346949D01*
X73597263Y-80346945D01*
X73597266Y-80346943D01*
X73722205Y-80174977D01*
X73722204Y-80174977D01*
X73722208Y-80174973D01*
X73818714Y-79985569D01*
X73884403Y-79783400D01*
X73917657Y-79573444D01*
X73917657Y-79360870D01*
X73884403Y-79150914D01*
X73818714Y-78948745D01*
X73722208Y-78759341D01*
X73722206Y-78759338D01*
X73722205Y-78759336D01*
X73597266Y-78587370D01*
X73446943Y-78437047D01*
X73274977Y-78312108D01*
X73085571Y-78215601D01*
X73085570Y-78215600D01*
X73085569Y-78215600D01*
X72883400Y-78149911D01*
X72883398Y-78149910D01*
X72883397Y-78149910D01*
X72722114Y-78124365D01*
X72673444Y-78116657D01*
X71260870Y-78116657D01*
X71212199Y-78124365D01*
X71050917Y-78149910D01*
X70848742Y-78215601D01*
X70659336Y-78312108D01*
X70487370Y-78437047D01*
X70337047Y-78587370D01*
X70212108Y-78759336D01*
X70115601Y-78948742D01*
X70049910Y-79150917D01*
X70033817Y-79252525D01*
X70016657Y-79360870D01*
X70016657Y-79573444D01*
X55467657Y-79573444D01*
X55467657Y-70467160D01*
X61161592Y-70467160D01*
X61181787Y-70646406D01*
X61181788Y-70646411D01*
X61241368Y-70816680D01*
X61337339Y-70969416D01*
X61339598Y-70972248D01*
X61340487Y-70974425D01*
X61341046Y-70975315D01*
X61340890Y-70975412D01*
X61366011Y-71036933D01*
X61366376Y-71044086D01*
X61366655Y-71046211D01*
X61397424Y-71161041D01*
X61407580Y-71198942D01*
X61421273Y-71222658D01*
X61453001Y-71277613D01*
X61486636Y-71335872D01*
X61605506Y-71454742D01*
X61605512Y-71454747D01*
X63888819Y-73738054D01*
X63922304Y-73799377D01*
X63917320Y-73869069D01*
X63888820Y-73913415D01*
X63837341Y-73964894D01*
X63741368Y-74117633D01*
X63681788Y-74287902D01*
X63681787Y-74287907D01*
X63661592Y-74467153D01*
X63661592Y-74467160D01*
X63681787Y-74646406D01*
X63681788Y-74646411D01*
X63741368Y-74816680D01*
X63772771Y-74866657D01*
X63834498Y-74964895D01*
X63837342Y-74969420D01*
X63839602Y-74972254D01*
X63840491Y-74974432D01*
X63841046Y-74975315D01*
X63840891Y-74975412D01*
X63866012Y-75036940D01*
X63866657Y-75049569D01*
X63866657Y-75884744D01*
X63846972Y-75951783D01*
X63839607Y-75962053D01*
X63837343Y-75964891D01*
X63741368Y-76117633D01*
X63681788Y-76287902D01*
X63681787Y-76287907D01*
X63661592Y-76467153D01*
X63661592Y-76467160D01*
X63681787Y-76646406D01*
X63681788Y-76646411D01*
X63741368Y-76816680D01*
X63774507Y-76869420D01*
X63837341Y-76969419D01*
X63964895Y-77096973D01*
X64117635Y-77192946D01*
X64281026Y-77250119D01*
X64287902Y-77252525D01*
X64287907Y-77252526D01*
X64467153Y-77272722D01*
X64467157Y-77272722D01*
X64467161Y-77272722D01*
X64646406Y-77252526D01*
X64646409Y-77252525D01*
X64646412Y-77252525D01*
X64816679Y-77192946D01*
X64969419Y-77096973D01*
X65096973Y-76969419D01*
X65192946Y-76816679D01*
X65252525Y-76646412D01*
X65252526Y-76646406D01*
X65272722Y-76467160D01*
X65272722Y-76467153D01*
X65252526Y-76287907D01*
X65252525Y-76287902D01*
X65192945Y-76117633D01*
X65130112Y-76017635D01*
X65096973Y-75964895D01*
X65096971Y-75964893D01*
X65096970Y-75964891D01*
X65094707Y-75962053D01*
X65093816Y-75959872D01*
X65093268Y-75958999D01*
X65093421Y-75958902D01*
X65068301Y-75897366D01*
X65067657Y-75884744D01*
X65067657Y-75467160D01*
X68161592Y-75467160D01*
X68181787Y-75646406D01*
X68181788Y-75646411D01*
X68241368Y-75816680D01*
X68330733Y-75958902D01*
X68337341Y-75969419D01*
X68464895Y-76096973D01*
X68555237Y-76153739D01*
X68609607Y-76187902D01*
X68617635Y-76192946D01*
X68787902Y-76252525D01*
X68787907Y-76252526D01*
X68967153Y-76272722D01*
X68967157Y-76272722D01*
X68967161Y-76272722D01*
X69146406Y-76252526D01*
X69146409Y-76252525D01*
X69146412Y-76252525D01*
X69316679Y-76192946D01*
X69469419Y-76096973D01*
X69469424Y-76096967D01*
X69472254Y-76094712D01*
X69474432Y-76093822D01*
X69475315Y-76093268D01*
X69475412Y-76093422D01*
X69536940Y-76068302D01*
X69549569Y-76067657D01*
X86530663Y-76067657D01*
X86597702Y-76087342D01*
X86618343Y-76103975D01*
X89462044Y-78947677D01*
X89462046Y-78947678D01*
X89462050Y-78947681D01*
X89598969Y-79026730D01*
X89598976Y-79026734D01*
X89751703Y-79067658D01*
X89751705Y-79067658D01*
X89917414Y-79067658D01*
X89917430Y-79067657D01*
X100417588Y-79067657D01*
X100484627Y-79087342D01*
X100494903Y-79094712D01*
X100497736Y-79096971D01*
X100497738Y-79096973D01*
X100599998Y-79161227D01*
X100646817Y-79190646D01*
X100650478Y-79192946D01*
X100820739Y-79252523D01*
X100820745Y-79252525D01*
X100820750Y-79252526D01*
X100999996Y-79272722D01*
X101000000Y-79272722D01*
X101000004Y-79272722D01*
X101179249Y-79252526D01*
X101179252Y-79252525D01*
X101179255Y-79252525D01*
X101349522Y-79192946D01*
X101502262Y-79096973D01*
X101629816Y-78969419D01*
X101725789Y-78816679D01*
X101785368Y-78646412D01*
X101785369Y-78646406D01*
X101805565Y-78467160D01*
X101805565Y-78467153D01*
X101785369Y-78287907D01*
X101785368Y-78287902D01*
X101737083Y-78149911D01*
X101725789Y-78117635D01*
X101725174Y-78116657D01*
X101629815Y-77964894D01*
X101502262Y-77837341D01*
X101349523Y-77741368D01*
X101179254Y-77681788D01*
X101179249Y-77681787D01*
X101000004Y-77661592D01*
X100999996Y-77661592D01*
X100820750Y-77681787D01*
X100820745Y-77681788D01*
X100650476Y-77741368D01*
X100497736Y-77837342D01*
X100494903Y-77839602D01*
X100492724Y-77840491D01*
X100491842Y-77841046D01*
X100491744Y-77840891D01*
X100430217Y-77866012D01*
X100417588Y-77866657D01*
X99850220Y-77866657D01*
X99783181Y-77846972D01*
X99737426Y-77794168D01*
X99727482Y-77725010D01*
X99733179Y-77701702D01*
X99752523Y-77646419D01*
X99752526Y-77646406D01*
X99772722Y-77467160D01*
X99772722Y-77467153D01*
X99752526Y-77287907D01*
X99752525Y-77287902D01*
X99719298Y-77192945D01*
X99692946Y-77117635D01*
X99596973Y-76964895D01*
X99469419Y-76837341D01*
X99403465Y-76795899D01*
X99316680Y-76741368D01*
X99146411Y-76681788D01*
X99146406Y-76681787D01*
X98967161Y-76661592D01*
X98967153Y-76661592D01*
X98787907Y-76681787D01*
X98787902Y-76681788D01*
X98617633Y-76741368D01*
X98464893Y-76837342D01*
X98462060Y-76839602D01*
X98459881Y-76840491D01*
X98458999Y-76841046D01*
X98458901Y-76840891D01*
X98397374Y-76866012D01*
X98384745Y-76866657D01*
X98321073Y-76866657D01*
X98254034Y-76846972D01*
X98233392Y-76830338D01*
X96380044Y-74976990D01*
X96346559Y-74915667D01*
X96351543Y-74845975D01*
X96393415Y-74790042D01*
X96458879Y-74765625D01*
X96467725Y-74765309D01*
X97045578Y-74765309D01*
X97112617Y-74784994D01*
X97158372Y-74837798D01*
X97168798Y-74903191D01*
X97161592Y-74967151D01*
X97161592Y-74967160D01*
X97181787Y-75146406D01*
X97181788Y-75146411D01*
X97241368Y-75316680D01*
X97330681Y-75458819D01*
X97337341Y-75469419D01*
X97464895Y-75596973D01*
X97617635Y-75692946D01*
X97744509Y-75737341D01*
X97787902Y-75752525D01*
X97787907Y-75752526D01*
X97967153Y-75772722D01*
X97967157Y-75772722D01*
X97967161Y-75772722D01*
X98146406Y-75752526D01*
X98146409Y-75752525D01*
X98146412Y-75752525D01*
X98316679Y-75692946D01*
X98469419Y-75596973D01*
X98596973Y-75469419D01*
X98598392Y-75467160D01*
X108661592Y-75467160D01*
X108681787Y-75646406D01*
X108681788Y-75646411D01*
X108741368Y-75816680D01*
X108771664Y-75864895D01*
X108834498Y-75964895D01*
X108837342Y-75969420D01*
X108839602Y-75972254D01*
X108840491Y-75974432D01*
X108841046Y-75975315D01*
X108840891Y-75975412D01*
X108866012Y-76036940D01*
X108866657Y-76049569D01*
X108866657Y-78180490D01*
X108866656Y-78180508D01*
X108866656Y-78346215D01*
X108867717Y-78354276D01*
X108867231Y-78354339D01*
X108870054Y-78392019D01*
X108861589Y-78467153D01*
X108861589Y-78467160D01*
X108881784Y-78646406D01*
X108881785Y-78646411D01*
X108941365Y-78816680D01*
X109023679Y-78947681D01*
X109037338Y-78969419D01*
X109164892Y-79096973D01*
X109250739Y-79150914D01*
X109313971Y-79190646D01*
X109317632Y-79192946D01*
X109487893Y-79252523D01*
X109487899Y-79252525D01*
X109487904Y-79252526D01*
X109667150Y-79272722D01*
X109667154Y-79272722D01*
X109667158Y-79272722D01*
X109846403Y-79252526D01*
X109846405Y-79252525D01*
X109846409Y-79252525D01*
X109846412Y-79252523D01*
X109846416Y-79252523D01*
X110023249Y-79190646D01*
X110024000Y-79192794D01*
X110082282Y-79183192D01*
X110110746Y-79191548D01*
X110111062Y-79190646D01*
X110287902Y-79252525D01*
X110287907Y-79252526D01*
X110467153Y-79272722D01*
X110467157Y-79272722D01*
X110467161Y-79272722D01*
X110646406Y-79252526D01*
X110646409Y-79252525D01*
X110646412Y-79252525D01*
X110816679Y-79192946D01*
X110969419Y-79096973D01*
X111096973Y-78969419D01*
X111192946Y-78816679D01*
X111252525Y-78646412D01*
X111252526Y-78646406D01*
X111272722Y-78467160D01*
X111272722Y-78467153D01*
X111252526Y-78287907D01*
X111252525Y-78287902D01*
X111204240Y-78149911D01*
X111192946Y-78117635D01*
X111192331Y-78116657D01*
X111096970Y-77964891D01*
X111094707Y-77962053D01*
X111093816Y-77959872D01*
X111093268Y-77958999D01*
X111093421Y-77958902D01*
X111068301Y-77897366D01*
X111067657Y-77884744D01*
X111067657Y-76949569D01*
X111087342Y-76882530D01*
X111094712Y-76872254D01*
X111096967Y-76869424D01*
X111096973Y-76869419D01*
X111192946Y-76716679D01*
X111252525Y-76546412D01*
X111252526Y-76546406D01*
X111272722Y-76367160D01*
X111272722Y-76367153D01*
X111252526Y-76187907D01*
X111252525Y-76187902D01*
X111192946Y-76017635D01*
X111181070Y-75998735D01*
X111096972Y-75864894D01*
X110969419Y-75737341D01*
X110816680Y-75641368D01*
X110646411Y-75581788D01*
X110646406Y-75581787D01*
X110467161Y-75561592D01*
X110467159Y-75561592D01*
X110467157Y-75561592D01*
X110453401Y-75563141D01*
X110408884Y-75568157D01*
X110340063Y-75556101D01*
X110288684Y-75508751D01*
X110271783Y-75458819D01*
X110252526Y-75287907D01*
X110252525Y-75287902D01*
X110192946Y-75117635D01*
X110096973Y-74964895D01*
X109969419Y-74837341D01*
X109936536Y-74816679D01*
X109816680Y-74741368D01*
X109646411Y-74681788D01*
X109646406Y-74681787D01*
X109467161Y-74661592D01*
X109467153Y-74661592D01*
X109287907Y-74681787D01*
X109287902Y-74681788D01*
X109117633Y-74741368D01*
X108964894Y-74837341D01*
X108837341Y-74964894D01*
X108741368Y-75117633D01*
X108681788Y-75287902D01*
X108681787Y-75287907D01*
X108661592Y-75467153D01*
X108661592Y-75467160D01*
X98598392Y-75467160D01*
X98692946Y-75316679D01*
X98752525Y-75146412D01*
X98762318Y-75059486D01*
X98789383Y-74995075D01*
X98797847Y-74985700D01*
X100985693Y-72797855D01*
X101047014Y-72764372D01*
X101059467Y-72762320D01*
X101146412Y-72752525D01*
X101316679Y-72692946D01*
X101469419Y-72596973D01*
X101596973Y-72469419D01*
X101692946Y-72316679D01*
X101752525Y-72146412D01*
X101757826Y-72099365D01*
X101772722Y-71967160D01*
X101772722Y-71967153D01*
X101752526Y-71787907D01*
X101752525Y-71787902D01*
X101726985Y-71714914D01*
X101692946Y-71617635D01*
X101596973Y-71464895D01*
X101545494Y-71413416D01*
X101512009Y-71352093D01*
X101516993Y-71282401D01*
X101545489Y-71238059D01*
X101679575Y-71103973D01*
X101740898Y-71070491D01*
X101767255Y-71067657D01*
X108880488Y-71067657D01*
X108880504Y-71067658D01*
X108888100Y-71067658D01*
X109046211Y-71067658D01*
X109046214Y-71067658D01*
X109198942Y-71026734D01*
X109296009Y-70970692D01*
X109335873Y-70947677D01*
X109447677Y-70835873D01*
X109447677Y-70835871D01*
X109457881Y-70825668D01*
X109457885Y-70825663D01*
X109738054Y-70545494D01*
X109799377Y-70512009D01*
X109869069Y-70516993D01*
X109913416Y-70545494D01*
X109964895Y-70596973D01*
X110012638Y-70626972D01*
X110099878Y-70681789D01*
X110117635Y-70692946D01*
X110256014Y-70741367D01*
X110287902Y-70752525D01*
X110287907Y-70752526D01*
X110467153Y-70772722D01*
X110467157Y-70772722D01*
X110467161Y-70772722D01*
X110646406Y-70752526D01*
X110646409Y-70752525D01*
X110646412Y-70752525D01*
X110816679Y-70692946D01*
X110969419Y-70596973D01*
X110969424Y-70596967D01*
X110972254Y-70594712D01*
X110974432Y-70593822D01*
X110975315Y-70593268D01*
X110975412Y-70593422D01*
X111036940Y-70568302D01*
X111049569Y-70567657D01*
X111884745Y-70567657D01*
X111951784Y-70587342D01*
X111962060Y-70594712D01*
X111964893Y-70596971D01*
X111964895Y-70596973D01*
X112037026Y-70642296D01*
X112099875Y-70681787D01*
X112117635Y-70692946D01*
X112256014Y-70741367D01*
X112287902Y-70752525D01*
X112287907Y-70752526D01*
X112467153Y-70772722D01*
X112467157Y-70772722D01*
X112467161Y-70772722D01*
X112646406Y-70752526D01*
X112646409Y-70752525D01*
X112646412Y-70752525D01*
X112816679Y-70692946D01*
X112969419Y-70596973D01*
X113096973Y-70469419D01*
X113192946Y-70316679D01*
X113252525Y-70146412D01*
X113252526Y-70146406D01*
X113272722Y-69967160D01*
X113272722Y-69967153D01*
X113252526Y-69787907D01*
X113252525Y-69787902D01*
X113203443Y-69647633D01*
X113192946Y-69617635D01*
X113184363Y-69603976D01*
X113123580Y-69507240D01*
X113096973Y-69464895D01*
X112969419Y-69337341D01*
X112864424Y-69271368D01*
X112816680Y-69241368D01*
X112646411Y-69181788D01*
X112646406Y-69181787D01*
X112467161Y-69161592D01*
X112467153Y-69161592D01*
X112287907Y-69181787D01*
X112287902Y-69181788D01*
X112117633Y-69241368D01*
X111964893Y-69337342D01*
X111962060Y-69339602D01*
X111959881Y-69340491D01*
X111958999Y-69341046D01*
X111958901Y-69340891D01*
X111897374Y-69366012D01*
X111884745Y-69366657D01*
X111216253Y-69366657D01*
X111149214Y-69346972D01*
X111103459Y-69294168D01*
X111093515Y-69225010D01*
X111122540Y-69161454D01*
X111128572Y-69154976D01*
X111372705Y-68910844D01*
X111679573Y-68603976D01*
X111740896Y-68570491D01*
X111767254Y-68567657D01*
X112384745Y-68567657D01*
X112451784Y-68587342D01*
X112462060Y-68594712D01*
X112464893Y-68596971D01*
X112464895Y-68596973D01*
X112617635Y-68692946D01*
X112787902Y-68752525D01*
X112787907Y-68752526D01*
X112967153Y-68772722D01*
X112967157Y-68772722D01*
X112967161Y-68772722D01*
X113146406Y-68752526D01*
X113146409Y-68752525D01*
X113146412Y-68752525D01*
X113316679Y-68692946D01*
X113469419Y-68596973D01*
X113596973Y-68469419D01*
X113692946Y-68316679D01*
X113752525Y-68146412D01*
X113755499Y-68120019D01*
X113772722Y-67967160D01*
X113772722Y-67967153D01*
X113752526Y-67787907D01*
X113752525Y-67787902D01*
X113692945Y-67617633D01*
X113610631Y-67486632D01*
X113596973Y-67464895D01*
X113469419Y-67337341D01*
X113458274Y-67330338D01*
X113316680Y-67241368D01*
X113146411Y-67181788D01*
X113146406Y-67181787D01*
X112967161Y-67161592D01*
X112967153Y-67161592D01*
X112787907Y-67181787D01*
X112787902Y-67181788D01*
X112617633Y-67241368D01*
X112464893Y-67337342D01*
X112462060Y-67339602D01*
X112459881Y-67340491D01*
X112458999Y-67341046D01*
X112458901Y-67340891D01*
X112397374Y-67366012D01*
X112384745Y-67366657D01*
X111553826Y-67366657D01*
X111553810Y-67366656D01*
X111546214Y-67366656D01*
X111388100Y-67366656D01*
X111308064Y-67388102D01*
X111235367Y-67407581D01*
X111235366Y-67407582D01*
X111200223Y-67427873D01*
X111200221Y-67427874D01*
X111098447Y-67486632D01*
X111098439Y-67486638D01*
X111038864Y-67546214D01*
X110986637Y-67598441D01*
X110986635Y-67598443D01*
X109870098Y-68714981D01*
X108754741Y-69830338D01*
X108693418Y-69863823D01*
X108667060Y-69866657D01*
X103880201Y-69866657D01*
X103813162Y-69846972D01*
X103767407Y-69794168D01*
X103757463Y-69725010D01*
X103783255Y-69665343D01*
X103787528Y-69659983D01*
X103787533Y-69659979D01*
X103883506Y-69507239D01*
X103943085Y-69336972D01*
X103944053Y-69328384D01*
X103963282Y-69157720D01*
X103963282Y-69157713D01*
X103943086Y-68978467D01*
X103943085Y-68978462D01*
X103938954Y-68966657D01*
X103883506Y-68808195D01*
X103787533Y-68655455D01*
X103787531Y-68655453D01*
X103787530Y-68655451D01*
X103785267Y-68652613D01*
X103784376Y-68650432D01*
X103783828Y-68649559D01*
X103783981Y-68649462D01*
X103758861Y-68587926D01*
X103758217Y-68575304D01*
X103758217Y-67246777D01*
X103758218Y-67246764D01*
X103758218Y-67102845D01*
X103758998Y-67088961D01*
X103772722Y-66967159D01*
X103772722Y-66967153D01*
X103752526Y-66787907D01*
X103752525Y-66787902D01*
X103733295Y-66732945D01*
X103692946Y-66617635D01*
X103596973Y-66464895D01*
X103469419Y-66337341D01*
X103316680Y-66241368D01*
X103146411Y-66181788D01*
X103146406Y-66181787D01*
X102967161Y-66161592D01*
X102967153Y-66161592D01*
X102787907Y-66181787D01*
X102787902Y-66181788D01*
X102617633Y-66241368D01*
X102464894Y-66337341D01*
X102337341Y-66464894D01*
X102241368Y-66617633D01*
X102181788Y-66787902D01*
X102181787Y-66787907D01*
X102161592Y-66967153D01*
X102161592Y-66967160D01*
X102181787Y-67146406D01*
X102181788Y-67146411D01*
X102241368Y-67316680D01*
X102334498Y-67464894D01*
X102337341Y-67469419D01*
X102464895Y-67596973D01*
X102499188Y-67618520D01*
X102545479Y-67670853D01*
X102557217Y-67723514D01*
X102557217Y-68575304D01*
X102537532Y-68642343D01*
X102530167Y-68652613D01*
X102527903Y-68655451D01*
X102431928Y-68808193D01*
X102372348Y-68978462D01*
X102372347Y-68978467D01*
X102352152Y-69157713D01*
X102352152Y-69157720D01*
X102372347Y-69336966D01*
X102372348Y-69336971D01*
X102431928Y-69507240D01*
X102527901Y-69659979D01*
X102532179Y-69665343D01*
X102558588Y-69730029D01*
X102545833Y-69798724D01*
X102497964Y-69849619D01*
X102435233Y-69866657D01*
X101553827Y-69866657D01*
X101553811Y-69866656D01*
X101546215Y-69866656D01*
X101388100Y-69866656D01*
X101311736Y-69887118D01*
X101235371Y-69907580D01*
X101235366Y-69907583D01*
X101098447Y-69986632D01*
X101098439Y-69986638D01*
X97557089Y-73527990D01*
X97495766Y-73561475D01*
X97469408Y-73564309D01*
X96149569Y-73564309D01*
X96082530Y-73544624D01*
X96072254Y-73537254D01*
X96069420Y-73534994D01*
X96069419Y-73534993D01*
X95961459Y-73467157D01*
X95916678Y-73439019D01*
X95746406Y-73379439D01*
X95677773Y-73371706D01*
X95613359Y-73344639D01*
X95573804Y-73287044D01*
X95567657Y-73248486D01*
X95567657Y-67868065D01*
X95587342Y-67801026D01*
X95640146Y-67755271D01*
X95650693Y-67751026D01*
X95816679Y-67692946D01*
X95969419Y-67596973D01*
X96096973Y-67469419D01*
X96192946Y-67316679D01*
X96252525Y-67146412D01*
X96258998Y-67088961D01*
X96272722Y-66967160D01*
X96272722Y-66967153D01*
X96252526Y-66787907D01*
X96252525Y-66787902D01*
X96233295Y-66732945D01*
X96192946Y-66617635D01*
X96096973Y-66464895D01*
X95969419Y-66337341D01*
X95816680Y-66241368D01*
X95646411Y-66181788D01*
X95646406Y-66181787D01*
X95467161Y-66161592D01*
X95467153Y-66161592D01*
X95287907Y-66181787D01*
X95287902Y-66181788D01*
X95117633Y-66241368D01*
X94964894Y-66337341D01*
X94837341Y-66464894D01*
X94741367Y-66617635D01*
X94681787Y-66787907D01*
X94671994Y-66874823D01*
X94644927Y-66939237D01*
X94636456Y-66948619D01*
X94591394Y-66993681D01*
X94591369Y-66993709D01*
X94486635Y-67098443D01*
X94484094Y-67102845D01*
X94450177Y-67161592D01*
X94407580Y-67235372D01*
X94366656Y-67388100D01*
X94366656Y-67388102D01*
X94366656Y-67556203D01*
X94366657Y-67556216D01*
X94366657Y-74326668D01*
X94366656Y-74326686D01*
X94366656Y-74492392D01*
X94366655Y-74492392D01*
X94407580Y-74645123D01*
X94436515Y-74695238D01*
X94436516Y-74695242D01*
X94436517Y-74695242D01*
X94476969Y-74765309D01*
X94486636Y-74782052D01*
X94486638Y-74782055D01*
X94605506Y-74900923D01*
X94605512Y-74900928D01*
X97359560Y-77654976D01*
X97393045Y-77716299D01*
X97388061Y-77785991D01*
X97346189Y-77841924D01*
X97280725Y-77866341D01*
X97271879Y-77866657D01*
X90130858Y-77866657D01*
X90063819Y-77846972D01*
X90043177Y-77830338D01*
X89674323Y-77461484D01*
X89640838Y-77400161D01*
X89645822Y-77330469D01*
X89687694Y-77274536D01*
X89753158Y-77250119D01*
X89780925Y-77252247D01*
X89780982Y-77251746D01*
X89967153Y-77272722D01*
X89967157Y-77272722D01*
X89967161Y-77272722D01*
X90146406Y-77252526D01*
X90146409Y-77252525D01*
X90146412Y-77252525D01*
X90316679Y-77192946D01*
X90401184Y-77139848D01*
X90468421Y-77120847D01*
X90533130Y-77139848D01*
X90617632Y-77192945D01*
X90787902Y-77252525D01*
X90787907Y-77252526D01*
X90967153Y-77272722D01*
X90967157Y-77272722D01*
X90967161Y-77272722D01*
X91146406Y-77252526D01*
X91146409Y-77252525D01*
X91146412Y-77252525D01*
X91316679Y-77192946D01*
X91469419Y-77096973D01*
X91596973Y-76969419D01*
X91692946Y-76816679D01*
X91752525Y-76646412D01*
X91752526Y-76646406D01*
X91772722Y-76467160D01*
X91772722Y-76467153D01*
X91752526Y-76287907D01*
X91752525Y-76287902D01*
X91692945Y-76117633D01*
X91630112Y-76017635D01*
X91596973Y-75964895D01*
X91596971Y-75964893D01*
X91596970Y-75964891D01*
X91594707Y-75962053D01*
X91593816Y-75959872D01*
X91593268Y-75958999D01*
X91593421Y-75958902D01*
X91568301Y-75897366D01*
X91567657Y-75884744D01*
X91567657Y-74049569D01*
X91587342Y-73982530D01*
X91594712Y-73972254D01*
X91596967Y-73969424D01*
X91596973Y-73969419D01*
X91692946Y-73816679D01*
X91752525Y-73646412D01*
X91765868Y-73527990D01*
X91772722Y-73467160D01*
X91772722Y-73467153D01*
X91752526Y-73287907D01*
X91752525Y-73287902D01*
X91714507Y-73179254D01*
X91692946Y-73117635D01*
X91596973Y-72964895D01*
X91469419Y-72837341D01*
X91406581Y-72797857D01*
X91316680Y-72741368D01*
X91146411Y-72681788D01*
X91146406Y-72681787D01*
X90967161Y-72661592D01*
X90967153Y-72661592D01*
X90825692Y-72677530D01*
X90756870Y-72665475D01*
X90706816Y-72620283D01*
X90629816Y-72497738D01*
X90502262Y-72370184D01*
X90349523Y-72274211D01*
X90179254Y-72214631D01*
X90179249Y-72214630D01*
X90000004Y-72194435D01*
X89999996Y-72194435D01*
X89820750Y-72214630D01*
X89820745Y-72214631D01*
X89650476Y-72274211D01*
X89497737Y-72370184D01*
X89370184Y-72497737D01*
X89274211Y-72650476D01*
X89214631Y-72820745D01*
X89214630Y-72820750D01*
X89194435Y-72999996D01*
X89194435Y-73000003D01*
X89214630Y-73179249D01*
X89214631Y-73179254D01*
X89274211Y-73349524D01*
X89347650Y-73466399D01*
X89366657Y-73532372D01*
X89366657Y-75884744D01*
X89346972Y-75951783D01*
X89339607Y-75962053D01*
X89337343Y-75964891D01*
X89241368Y-76117633D01*
X89181788Y-76287902D01*
X89181787Y-76287907D01*
X89161592Y-76467153D01*
X89161592Y-76467160D01*
X89182568Y-76653332D01*
X89180866Y-76653523D01*
X89177121Y-76714476D01*
X89135813Y-76770827D01*
X89070596Y-76795899D01*
X89002178Y-76781733D01*
X88972831Y-76759992D01*
X87318349Y-75105511D01*
X87318348Y-75105509D01*
X87199477Y-74986638D01*
X87199469Y-74986632D01*
X87097696Y-74927874D01*
X87097694Y-74927873D01*
X87062550Y-74907582D01*
X87062549Y-74907581D01*
X87011338Y-74893859D01*
X86909817Y-74866656D01*
X86751703Y-74866656D01*
X86744107Y-74866656D01*
X86744091Y-74866657D01*
X69549569Y-74866657D01*
X69482530Y-74846972D01*
X69472254Y-74839602D01*
X69469420Y-74837342D01*
X69469419Y-74837341D01*
X69394143Y-74790042D01*
X69316680Y-74741368D01*
X69146411Y-74681788D01*
X69146406Y-74681787D01*
X68967161Y-74661592D01*
X68967153Y-74661592D01*
X68787907Y-74681787D01*
X68787902Y-74681788D01*
X68617633Y-74741368D01*
X68464894Y-74837341D01*
X68337341Y-74964894D01*
X68241368Y-75117633D01*
X68181788Y-75287902D01*
X68181787Y-75287907D01*
X68161592Y-75467153D01*
X68161592Y-75467160D01*
X65067657Y-75467160D01*
X65067657Y-75049569D01*
X65087342Y-74982530D01*
X65094712Y-74972254D01*
X65096967Y-74969424D01*
X65096973Y-74969419D01*
X65192946Y-74816679D01*
X65252525Y-74646412D01*
X65252526Y-74646406D01*
X65272722Y-74467160D01*
X65272722Y-74467153D01*
X65252526Y-74287907D01*
X65252523Y-74287894D01*
X65233179Y-74232612D01*
X65229617Y-74162833D01*
X65264345Y-74102206D01*
X65326339Y-74069978D01*
X65350220Y-74067657D01*
X85380488Y-74067657D01*
X85380504Y-74067658D01*
X85388100Y-74067658D01*
X85546211Y-74067658D01*
X85546214Y-74067658D01*
X85698942Y-74026734D01*
X85749061Y-73997796D01*
X85835873Y-73947677D01*
X85947677Y-73835873D01*
X85947677Y-73835871D01*
X85957885Y-73825664D01*
X85957886Y-73825661D01*
X88679574Y-71103976D01*
X88740897Y-71070491D01*
X88767255Y-71067657D01*
X89384745Y-71067657D01*
X89451784Y-71087342D01*
X89462060Y-71094712D01*
X89464893Y-71096971D01*
X89464895Y-71096973D01*
X89617635Y-71192946D01*
X89768975Y-71245902D01*
X89787902Y-71252525D01*
X89787907Y-71252526D01*
X89967153Y-71272722D01*
X89967157Y-71272722D01*
X89967160Y-71272722D01*
X90042616Y-71264220D01*
X90111438Y-71276274D01*
X90162818Y-71323623D01*
X90179720Y-71373553D01*
X90181787Y-71391902D01*
X90241367Y-71562173D01*
X90294298Y-71646411D01*
X90337341Y-71714914D01*
X90464895Y-71842468D01*
X90516426Y-71874847D01*
X90594039Y-71923615D01*
X90617635Y-71938441D01*
X90701130Y-71967657D01*
X90787902Y-71998020D01*
X90787907Y-71998021D01*
X90967153Y-72018217D01*
X90967157Y-72018217D01*
X90967161Y-72018217D01*
X91146406Y-71998021D01*
X91146407Y-71998020D01*
X91146412Y-71998020D01*
X91259321Y-71958510D01*
X91329097Y-71954948D01*
X91366246Y-71970559D01*
X91444273Y-72019587D01*
X91444277Y-72019588D01*
X91444278Y-72019589D01*
X91614545Y-72079168D01*
X91614550Y-72079169D01*
X91793796Y-72099365D01*
X91793800Y-72099365D01*
X91793804Y-72099365D01*
X91973049Y-72079169D01*
X91973052Y-72079168D01*
X91973055Y-72079168D01*
X92143322Y-72019589D01*
X92296062Y-71923616D01*
X92423616Y-71796062D01*
X92519589Y-71643322D01*
X92579168Y-71473055D01*
X92579169Y-71473049D01*
X92599365Y-71293803D01*
X92599365Y-71293796D01*
X92579168Y-71114546D01*
X92579168Y-71114545D01*
X92574616Y-71101534D01*
X92567658Y-71060581D01*
X92567658Y-71033790D01*
X92567657Y-71033772D01*
X92567657Y-70449569D01*
X92587342Y-70382530D01*
X92594712Y-70372254D01*
X92596967Y-70369424D01*
X92596973Y-70369419D01*
X92692946Y-70216679D01*
X92752525Y-70046412D01*
X92771782Y-69875491D01*
X92798848Y-69811080D01*
X92856442Y-69771525D01*
X92908885Y-69766157D01*
X92967153Y-69772722D01*
X92967157Y-69772722D01*
X92967161Y-69772722D01*
X93146406Y-69752526D01*
X93146409Y-69752525D01*
X93146412Y-69752525D01*
X93316679Y-69692946D01*
X93469419Y-69596973D01*
X93596973Y-69469419D01*
X93692946Y-69316679D01*
X93752525Y-69146412D01*
X93752526Y-69146406D01*
X93772722Y-68967160D01*
X93772722Y-68967153D01*
X93752526Y-68787907D01*
X93752525Y-68787902D01*
X93704422Y-68650432D01*
X93692946Y-68617635D01*
X93684363Y-68603976D01*
X93635828Y-68526733D01*
X93596973Y-68464895D01*
X93469419Y-68337341D01*
X93436536Y-68316679D01*
X93312747Y-68238897D01*
X93266456Y-68186562D01*
X93255499Y-68120019D01*
X93272722Y-67967159D01*
X93272722Y-67967153D01*
X93252526Y-67787907D01*
X93252525Y-67787902D01*
X93192945Y-67617633D01*
X93110631Y-67486632D01*
X93096973Y-67464895D01*
X92969419Y-67337341D01*
X92958274Y-67330338D01*
X92816680Y-67241368D01*
X92646411Y-67181788D01*
X92646406Y-67181787D01*
X92467161Y-67161592D01*
X92467153Y-67161592D01*
X92287907Y-67181787D01*
X92287902Y-67181788D01*
X92117633Y-67241368D01*
X91964893Y-67337342D01*
X91962060Y-67339602D01*
X91959881Y-67340491D01*
X91958999Y-67341046D01*
X91958901Y-67340891D01*
X91897374Y-67366012D01*
X91884745Y-67366657D01*
X82267255Y-67366657D01*
X82200216Y-67346972D01*
X82179574Y-67330338D01*
X80856396Y-66007160D01*
X114701592Y-66007160D01*
X114721787Y-66186406D01*
X114721788Y-66186411D01*
X114781368Y-66356680D01*
X114849364Y-66464894D01*
X114877341Y-66509419D01*
X115004895Y-66636973D01*
X115157635Y-66732946D01*
X115314690Y-66787902D01*
X115327902Y-66792525D01*
X115327907Y-66792526D01*
X115507153Y-66812722D01*
X115507157Y-66812722D01*
X115507161Y-66812722D01*
X115686406Y-66792526D01*
X115686409Y-66792525D01*
X115686412Y-66792525D01*
X115856679Y-66732946D01*
X116009419Y-66636973D01*
X116136973Y-66509419D01*
X116232946Y-66356679D01*
X116292525Y-66186412D01*
X116312722Y-66007157D01*
X116308215Y-65967158D01*
X128161689Y-65967158D01*
X128181521Y-66193843D01*
X128181523Y-66193854D01*
X128240415Y-66413645D01*
X128240418Y-66413654D01*
X128336588Y-66619889D01*
X128336589Y-66619891D01*
X128467111Y-66806298D01*
X128628015Y-66967202D01*
X128628018Y-66967204D01*
X128814423Y-67097725D01*
X129020661Y-67193896D01*
X129020666Y-67193897D01*
X129020668Y-67193898D01*
X129068383Y-67206683D01*
X129240465Y-67252792D01*
X129402387Y-67266958D01*
X129467155Y-67272625D01*
X129467157Y-67272625D01*
X129467159Y-67272625D01*
X129523830Y-67267666D01*
X129693849Y-67252792D01*
X129913653Y-67193896D01*
X130119891Y-67097725D01*
X130306296Y-66967204D01*
X130467204Y-66806296D01*
X130597725Y-66619891D01*
X130693896Y-66413653D01*
X130752792Y-66193849D01*
X130772625Y-65967157D01*
X130752792Y-65740465D01*
X130693896Y-65520661D01*
X130597725Y-65314423D01*
X130467204Y-65128018D01*
X130467202Y-65128015D01*
X130306298Y-64967111D01*
X130119891Y-64836589D01*
X130119889Y-64836588D01*
X129913654Y-64740418D01*
X129913645Y-64740415D01*
X129693854Y-64681523D01*
X129693850Y-64681522D01*
X129693849Y-64681522D01*
X129693848Y-64681521D01*
X129693843Y-64681521D01*
X129467159Y-64661689D01*
X129467155Y-64661689D01*
X129240470Y-64681521D01*
X129240459Y-64681523D01*
X129020668Y-64740415D01*
X129020659Y-64740418D01*
X128814424Y-64836588D01*
X128814422Y-64836589D01*
X128628015Y-64967111D01*
X128467111Y-65128015D01*
X128336589Y-65314422D01*
X128336588Y-65314424D01*
X128240418Y-65520659D01*
X128240415Y-65520668D01*
X128181523Y-65740459D01*
X128181521Y-65740470D01*
X128161689Y-65967155D01*
X128161689Y-65967158D01*
X116308215Y-65967158D01*
X116292526Y-65827907D01*
X116292525Y-65827902D01*
X116232945Y-65657633D01*
X116199802Y-65604887D01*
X116136973Y-65504895D01*
X116136971Y-65504893D01*
X116136970Y-65504891D01*
X116134707Y-65502053D01*
X116133816Y-65499872D01*
X116133268Y-65498999D01*
X116133421Y-65498902D01*
X116108301Y-65437366D01*
X116107657Y-65424744D01*
X116107657Y-62354069D01*
X116127342Y-62287030D01*
X116180146Y-62241275D01*
X116190703Y-62237027D01*
X116216741Y-62227915D01*
X116316679Y-62192946D01*
X116469419Y-62096973D01*
X116596973Y-61969419D01*
X116692946Y-61816679D01*
X116752525Y-61646412D01*
X116752656Y-61645251D01*
X116772722Y-61467160D01*
X116772722Y-61467153D01*
X116752526Y-61287907D01*
X116752525Y-61287902D01*
X116736077Y-61240896D01*
X116692946Y-61117635D01*
X116684363Y-61103976D01*
X116603520Y-60975315D01*
X116596973Y-60964895D01*
X116469419Y-60837341D01*
X116436536Y-60816679D01*
X116316680Y-60741368D01*
X116146411Y-60681788D01*
X116146406Y-60681787D01*
X115967161Y-60661592D01*
X115967153Y-60661592D01*
X115787907Y-60681787D01*
X115787902Y-60681788D01*
X115617633Y-60741368D01*
X115464894Y-60837341D01*
X115337341Y-60964894D01*
X115241367Y-61117635D01*
X115181787Y-61287907D01*
X115171994Y-61374825D01*
X115144927Y-61439239D01*
X115136456Y-61448622D01*
X115026635Y-61558443D01*
X115003543Y-61598441D01*
X114984582Y-61631284D01*
X114976518Y-61645251D01*
X114976516Y-61645253D01*
X114947582Y-61695366D01*
X114947581Y-61695367D01*
X114932266Y-61752524D01*
X114906656Y-61848100D01*
X114906656Y-61848102D01*
X114906656Y-62016203D01*
X114906657Y-62016216D01*
X114906657Y-65424744D01*
X114886972Y-65491783D01*
X114879607Y-65502053D01*
X114877343Y-65504891D01*
X114781368Y-65657633D01*
X114721788Y-65827902D01*
X114721787Y-65827907D01*
X114701592Y-66007153D01*
X114701592Y-66007160D01*
X80856396Y-66007160D01*
X79603976Y-64754740D01*
X79570491Y-64693417D01*
X79567657Y-64667059D01*
X79567657Y-61967160D01*
X83161592Y-61967160D01*
X83181787Y-62146406D01*
X83181788Y-62146411D01*
X83241368Y-62316680D01*
X83268223Y-62359419D01*
X83337341Y-62469419D01*
X83464895Y-62596973D01*
X83617635Y-62692946D01*
X83716759Y-62727631D01*
X83787902Y-62752525D01*
X83787907Y-62752526D01*
X83967153Y-62772722D01*
X83967157Y-62772722D01*
X83967161Y-62772722D01*
X84146406Y-62752526D01*
X84146409Y-62752525D01*
X84146412Y-62752525D01*
X84316679Y-62692946D01*
X84469419Y-62596973D01*
X84469424Y-62596967D01*
X84472254Y-62594712D01*
X84474432Y-62593822D01*
X84475315Y-62593268D01*
X84475412Y-62593422D01*
X84536940Y-62568302D01*
X84549569Y-62567657D01*
X89667060Y-62567657D01*
X89734099Y-62587342D01*
X89754740Y-62603975D01*
X90598441Y-63447677D01*
X90598443Y-63447678D01*
X90598447Y-63447681D01*
X90684379Y-63497293D01*
X90735373Y-63526734D01*
X90888100Y-63567658D01*
X90888102Y-63567658D01*
X91053811Y-63567658D01*
X91053827Y-63567657D01*
X91384745Y-63567657D01*
X91451784Y-63587342D01*
X91462060Y-63594712D01*
X91464893Y-63596971D01*
X91464895Y-63596973D01*
X91617635Y-63692946D01*
X91787902Y-63752525D01*
X91787907Y-63752526D01*
X91967153Y-63772722D01*
X91967157Y-63772722D01*
X91967161Y-63772722D01*
X92146406Y-63752526D01*
X92146409Y-63752525D01*
X92146412Y-63752525D01*
X92316679Y-63692946D01*
X92469419Y-63596973D01*
X92596973Y-63469419D01*
X92692946Y-63316679D01*
X92752525Y-63146412D01*
X92752526Y-63146406D01*
X92772722Y-62967160D01*
X92772722Y-62967153D01*
X92752526Y-62787907D01*
X92752525Y-62787902D01*
X92692945Y-62617633D01*
X92619264Y-62500371D01*
X92596973Y-62464895D01*
X92469419Y-62337341D01*
X92458274Y-62330338D01*
X92316680Y-62241368D01*
X92146411Y-62181788D01*
X92146406Y-62181787D01*
X91967161Y-62161592D01*
X91967153Y-62161592D01*
X91787907Y-62181787D01*
X91787902Y-62181788D01*
X91617633Y-62241368D01*
X91464893Y-62337342D01*
X91462060Y-62339602D01*
X91459881Y-62340491D01*
X91458999Y-62341046D01*
X91458901Y-62340891D01*
X91397374Y-62366012D01*
X91384745Y-62366657D01*
X91267255Y-62366657D01*
X91200216Y-62346972D01*
X91179574Y-62330338D01*
X90454747Y-61605512D01*
X90454745Y-61605509D01*
X90335873Y-61486637D01*
X90335866Y-61486632D01*
X90234093Y-61427874D01*
X90234091Y-61427873D01*
X90198947Y-61407582D01*
X90198946Y-61407581D01*
X90186420Y-61404224D01*
X90046214Y-61366656D01*
X89888100Y-61366656D01*
X89880504Y-61366656D01*
X89880488Y-61366657D01*
X84549569Y-61366657D01*
X84482530Y-61346972D01*
X84472254Y-61339602D01*
X84469420Y-61337342D01*
X84469419Y-61337341D01*
X84412653Y-61301672D01*
X84316680Y-61241368D01*
X84146411Y-61181788D01*
X84146406Y-61181787D01*
X83967161Y-61161592D01*
X83967153Y-61161592D01*
X83787907Y-61181787D01*
X83787902Y-61181788D01*
X83617633Y-61241368D01*
X83464894Y-61337341D01*
X83337341Y-61464894D01*
X83241368Y-61617633D01*
X83181788Y-61787902D01*
X83181787Y-61787907D01*
X83161592Y-61967153D01*
X83161592Y-61967160D01*
X79567657Y-61967160D01*
X79567657Y-61049569D01*
X79587342Y-60982530D01*
X79594712Y-60972254D01*
X79596967Y-60969424D01*
X79596973Y-60969419D01*
X79598392Y-60967160D01*
X107661592Y-60967160D01*
X107681787Y-61146406D01*
X107681788Y-61146411D01*
X107741368Y-61316680D01*
X107824273Y-61448622D01*
X107837341Y-61469419D01*
X107964895Y-61596973D01*
X108117635Y-61692946D01*
X108287899Y-61752524D01*
X108287902Y-61752525D01*
X108287907Y-61752526D01*
X108467153Y-61772722D01*
X108467157Y-61772722D01*
X108467161Y-61772722D01*
X108646406Y-61752526D01*
X108646409Y-61752525D01*
X108646412Y-61752525D01*
X108816679Y-61692946D01*
X108969419Y-61596973D01*
X108969423Y-61596968D01*
X108972254Y-61594712D01*
X108974432Y-61593822D01*
X108975315Y-61593268D01*
X108975412Y-61593422D01*
X109036941Y-61568303D01*
X109044084Y-61567938D01*
X109046211Y-61567658D01*
X109046214Y-61567658D01*
X109198942Y-61526734D01*
X109268390Y-61486638D01*
X109335873Y-61447677D01*
X109447677Y-61335873D01*
X109447677Y-61335871D01*
X109457881Y-61325668D01*
X109457884Y-61325663D01*
X110646730Y-60136819D01*
X110708053Y-60103334D01*
X110734411Y-60100500D01*
X118911412Y-60100500D01*
X118978451Y-60120185D01*
X119024206Y-60172989D01*
X119034150Y-60242147D01*
X119005125Y-60305703D01*
X118977385Y-60329492D01*
X118972780Y-60332386D01*
X118964894Y-60337341D01*
X118837341Y-60464894D01*
X118741367Y-60617635D01*
X118681787Y-60787907D01*
X118671994Y-60874825D01*
X118644927Y-60939239D01*
X118636455Y-60948622D01*
X118448622Y-61136455D01*
X118387299Y-61169940D01*
X118374825Y-61171994D01*
X118287907Y-61181787D01*
X118117635Y-61241367D01*
X117964894Y-61337341D01*
X117837341Y-61464894D01*
X117741368Y-61617633D01*
X117681788Y-61787902D01*
X117681787Y-61787907D01*
X117661592Y-61967153D01*
X117661592Y-61967160D01*
X117681787Y-62146406D01*
X117681788Y-62146411D01*
X117741368Y-62316680D01*
X117768223Y-62359419D01*
X117837341Y-62469419D01*
X117964895Y-62596973D01*
X118117635Y-62692946D01*
X118216759Y-62727631D01*
X118287902Y-62752525D01*
X118287907Y-62752526D01*
X118467153Y-62772722D01*
X118467157Y-62772722D01*
X118467161Y-62772722D01*
X118646406Y-62752526D01*
X118646409Y-62752525D01*
X118646412Y-62752525D01*
X118816679Y-62692946D01*
X118969419Y-62596973D01*
X119096973Y-62469419D01*
X119192946Y-62316679D01*
X119252525Y-62146412D01*
X119262318Y-62059486D01*
X119289383Y-61995075D01*
X119297847Y-61985700D01*
X119485692Y-61797855D01*
X119547013Y-61764372D01*
X119559468Y-61762320D01*
X119646412Y-61752525D01*
X119816679Y-61692946D01*
X119969419Y-61596973D01*
X120096973Y-61469419D01*
X120192946Y-61316679D01*
X120252525Y-61146412D01*
X120253647Y-61136455D01*
X120272722Y-60967160D01*
X120272722Y-60967153D01*
X120252526Y-60787907D01*
X120252525Y-60787902D01*
X120208327Y-60661592D01*
X120192946Y-60617635D01*
X120096973Y-60464895D01*
X119969419Y-60337341D01*
X119956929Y-60329493D01*
X119910639Y-60277160D01*
X119899990Y-60208106D01*
X119928365Y-60144258D01*
X119986755Y-60105885D01*
X120022902Y-60100500D01*
X123185217Y-60100500D01*
X123252256Y-60120185D01*
X123298011Y-60172989D01*
X123307955Y-60242147D01*
X123278930Y-60305703D01*
X123272898Y-60312181D01*
X122448622Y-61136455D01*
X122387299Y-61169940D01*
X122374825Y-61171994D01*
X122287907Y-61181787D01*
X122117635Y-61241367D01*
X121964894Y-61337341D01*
X121837341Y-61464894D01*
X121741368Y-61617633D01*
X121681788Y-61787902D01*
X121681787Y-61787907D01*
X121661592Y-61967153D01*
X121661592Y-61967160D01*
X121681787Y-62146406D01*
X121681788Y-62146411D01*
X121741368Y-62316680D01*
X121768223Y-62359419D01*
X121837341Y-62469419D01*
X121964895Y-62596973D01*
X122117635Y-62692946D01*
X122216759Y-62727631D01*
X122287902Y-62752525D01*
X122287907Y-62752526D01*
X122467153Y-62772722D01*
X122467157Y-62772722D01*
X122467161Y-62772722D01*
X122646406Y-62752526D01*
X122646409Y-62752525D01*
X122646412Y-62752525D01*
X122816679Y-62692946D01*
X122969419Y-62596973D01*
X123096973Y-62469419D01*
X123192946Y-62316679D01*
X123252525Y-62146412D01*
X123262318Y-62059486D01*
X123289383Y-61995075D01*
X123297847Y-61985700D01*
X124179573Y-61103976D01*
X124240896Y-61070491D01*
X124267254Y-61067657D01*
X135167060Y-61067657D01*
X135234099Y-61087342D01*
X135254741Y-61103976D01*
X135330338Y-61179573D01*
X135363823Y-61240896D01*
X135366657Y-61267254D01*
X135366657Y-62206766D01*
X135346972Y-62273805D01*
X135294168Y-62319560D01*
X135225010Y-62329504D01*
X135166495Y-62304620D01*
X135160684Y-62300097D01*
X135040666Y-62206683D01*
X135040664Y-62206682D01*
X135040663Y-62206681D01*
X134821968Y-62088329D01*
X134821959Y-62088326D01*
X134586773Y-62007586D01*
X134341492Y-61966657D01*
X134092822Y-61966657D01*
X133847540Y-62007586D01*
X133612354Y-62088326D01*
X133612345Y-62088329D01*
X133393650Y-62206681D01*
X133197414Y-62359418D01*
X133028990Y-62542374D01*
X132892983Y-62750550D01*
X132793093Y-62978275D01*
X132732049Y-63219332D01*
X132732047Y-63219344D01*
X132711514Y-63467151D01*
X132711514Y-63467162D01*
X132732047Y-63714969D01*
X132732049Y-63714981D01*
X132793093Y-63956038D01*
X132892983Y-64183763D01*
X133028990Y-64391939D01*
X133028993Y-64391942D01*
X133197413Y-64574895D01*
X133393648Y-64727631D01*
X133612347Y-64845985D01*
X133847543Y-64926728D01*
X134092822Y-64967657D01*
X134341492Y-64967657D01*
X134586771Y-64926728D01*
X134821967Y-64845985D01*
X135040666Y-64727631D01*
X135166496Y-64629692D01*
X135231488Y-64604051D01*
X135300028Y-64617617D01*
X135350353Y-64666086D01*
X135366657Y-64727547D01*
X135366657Y-67206766D01*
X135346972Y-67273805D01*
X135294168Y-67319560D01*
X135225010Y-67329504D01*
X135166495Y-67304620D01*
X135125388Y-67272625D01*
X135040666Y-67206683D01*
X135040664Y-67206682D01*
X135040663Y-67206681D01*
X134821968Y-67088329D01*
X134821959Y-67088326D01*
X134586773Y-67007586D01*
X134341492Y-66966657D01*
X134092822Y-66966657D01*
X133847540Y-67007586D01*
X133612354Y-67088326D01*
X133612345Y-67088329D01*
X133393650Y-67206681D01*
X133197414Y-67359418D01*
X133028990Y-67542374D01*
X132892983Y-67750550D01*
X132793093Y-67978275D01*
X132732049Y-68219332D01*
X132732047Y-68219344D01*
X132711514Y-68467151D01*
X132711514Y-68467162D01*
X132732047Y-68714969D01*
X132732049Y-68714981D01*
X132793093Y-68956038D01*
X132892983Y-69183763D01*
X133028990Y-69391939D01*
X133028993Y-69391942D01*
X133197413Y-69574895D01*
X133393648Y-69727631D01*
X133435999Y-69750550D01*
X133603220Y-69841046D01*
X133612347Y-69845985D01*
X133847543Y-69926728D01*
X134092822Y-69967657D01*
X134341492Y-69967657D01*
X134586771Y-69926728D01*
X134821967Y-69845985D01*
X135040666Y-69727631D01*
X135166496Y-69629692D01*
X135231488Y-69604051D01*
X135300028Y-69617617D01*
X135350353Y-69666086D01*
X135366657Y-69727547D01*
X135366657Y-81813330D01*
X135366656Y-81813348D01*
X135366656Y-81979054D01*
X135366655Y-81979054D01*
X135407580Y-82131787D01*
X135418372Y-82150477D01*
X135418373Y-82150478D01*
X135482155Y-82260953D01*
X135486636Y-82268714D01*
X135486638Y-82268717D01*
X135605506Y-82387585D01*
X135605512Y-82387590D01*
X135736455Y-82518533D01*
X135769940Y-82579856D01*
X135771994Y-82592330D01*
X135781787Y-82679249D01*
X135841367Y-82849521D01*
X135883552Y-82916657D01*
X135937341Y-83002262D01*
X136064895Y-83129816D01*
X136217635Y-83225789D01*
X136294045Y-83252526D01*
X136387902Y-83285368D01*
X136387907Y-83285369D01*
X136567153Y-83305565D01*
X136567157Y-83305565D01*
X136567161Y-83305565D01*
X136746406Y-83285369D01*
X136746409Y-83285368D01*
X136746412Y-83285368D01*
X136916679Y-83225789D01*
X137069419Y-83129816D01*
X137196973Y-83002262D01*
X137292946Y-82849522D01*
X137352525Y-82679255D01*
X137352526Y-82679249D01*
X137372722Y-82500003D01*
X137372722Y-82499996D01*
X137352526Y-82320750D01*
X137352525Y-82320745D01*
X137334319Y-82268716D01*
X137292946Y-82150478D01*
X137287109Y-82141189D01*
X137235771Y-82059485D01*
X137196973Y-81997738D01*
X137069419Y-81870184D01*
X137019077Y-81838552D01*
X136916678Y-81774210D01*
X136746406Y-81714630D01*
X136677773Y-81706897D01*
X136613359Y-81679830D01*
X136573804Y-81622235D01*
X136567657Y-81583677D01*
X136567657Y-70467162D01*
X138961514Y-70467162D01*
X138982047Y-70714969D01*
X138982049Y-70714981D01*
X139043093Y-70956038D01*
X139142983Y-71183763D01*
X139278990Y-71391939D01*
X139278993Y-71391942D01*
X139447413Y-71574895D01*
X139643648Y-71727631D01*
X139862347Y-71845985D01*
X140097543Y-71926728D01*
X140342822Y-71967657D01*
X140591492Y-71967657D01*
X140836771Y-71926728D01*
X141071967Y-71845985D01*
X141290666Y-71727631D01*
X141486901Y-71574895D01*
X141655321Y-71391942D01*
X141791330Y-71183764D01*
X141891220Y-70956038D01*
X141952265Y-70714978D01*
X141955015Y-70681789D01*
X141972800Y-70467162D01*
X141972800Y-70467151D01*
X141952266Y-70219344D01*
X141952264Y-70219332D01*
X141891220Y-69978275D01*
X141791330Y-69750550D01*
X141655323Y-69542374D01*
X141583998Y-69464895D01*
X141486901Y-69359419D01*
X141290666Y-69206683D01*
X141290664Y-69206682D01*
X141290663Y-69206681D01*
X141071968Y-69088329D01*
X141071959Y-69088326D01*
X140836773Y-69007586D01*
X140591492Y-68966657D01*
X140342822Y-68966657D01*
X140097540Y-69007586D01*
X139862354Y-69088326D01*
X139862345Y-69088329D01*
X139643650Y-69206681D01*
X139447414Y-69359418D01*
X139278990Y-69542374D01*
X139142983Y-69750550D01*
X139043093Y-69978275D01*
X138982049Y-70219332D01*
X138982047Y-70219344D01*
X138961514Y-70467151D01*
X138961514Y-70467162D01*
X136567657Y-70467162D01*
X136567657Y-68467162D01*
X145211514Y-68467162D01*
X145232047Y-68714969D01*
X145232049Y-68714981D01*
X145293093Y-68956038D01*
X145392983Y-69183763D01*
X145528990Y-69391939D01*
X145528993Y-69391942D01*
X145697413Y-69574895D01*
X145893648Y-69727631D01*
X145935999Y-69750550D01*
X146103220Y-69841046D01*
X146112347Y-69845985D01*
X146347543Y-69926728D01*
X146592822Y-69967657D01*
X146841492Y-69967657D01*
X147086771Y-69926728D01*
X147321967Y-69845985D01*
X147540666Y-69727631D01*
X147736901Y-69574895D01*
X147905321Y-69391942D01*
X148041330Y-69183764D01*
X148141220Y-68956038D01*
X148202265Y-68714978D01*
X148204091Y-68692945D01*
X148219081Y-68512044D01*
X148236497Y-68466908D01*
X148223680Y-68446964D01*
X148219081Y-68422269D01*
X148202266Y-68219344D01*
X148202264Y-68219332D01*
X148141220Y-67978275D01*
X148041330Y-67750550D01*
X147905323Y-67542374D01*
X147833998Y-67464895D01*
X147736901Y-67359419D01*
X147540666Y-67206683D01*
X147540664Y-67206682D01*
X147540663Y-67206681D01*
X147321968Y-67088329D01*
X147321959Y-67088326D01*
X147086773Y-67007586D01*
X146841492Y-66966657D01*
X146592822Y-66966657D01*
X146347540Y-67007586D01*
X146112354Y-67088326D01*
X146112345Y-67088329D01*
X145893650Y-67206681D01*
X145697414Y-67359418D01*
X145528990Y-67542374D01*
X145392983Y-67750550D01*
X145293093Y-67978275D01*
X145232049Y-68219332D01*
X145232047Y-68219344D01*
X145211514Y-68467151D01*
X145211514Y-68467162D01*
X136567657Y-68467162D01*
X136567657Y-61716254D01*
X136587342Y-61649215D01*
X136640146Y-61603460D01*
X136709304Y-61593516D01*
X136772860Y-61622541D01*
X136779338Y-61628573D01*
X137363181Y-62212416D01*
X137396666Y-62273739D01*
X137399500Y-62300097D01*
X137399500Y-62884744D01*
X137379815Y-62951783D01*
X137372450Y-62962053D01*
X137370186Y-62964891D01*
X137274211Y-63117633D01*
X137214631Y-63287902D01*
X137214630Y-63287907D01*
X137194435Y-63467153D01*
X137194435Y-63467160D01*
X137214630Y-63646406D01*
X137214631Y-63646411D01*
X137274211Y-63816680D01*
X137361776Y-63956038D01*
X137370184Y-63969419D01*
X137497738Y-64096973D01*
X137650478Y-64192946D01*
X137820745Y-64252525D01*
X137820750Y-64252526D01*
X137999996Y-64272722D01*
X138000000Y-64272722D01*
X138000004Y-64272722D01*
X138179249Y-64252526D01*
X138179252Y-64252525D01*
X138179255Y-64252525D01*
X138349522Y-64192946D01*
X138502262Y-64096973D01*
X138629816Y-63969419D01*
X138725789Y-63816679D01*
X138785368Y-63646412D01*
X138785369Y-63646406D01*
X138805565Y-63467162D01*
X145211514Y-63467162D01*
X145232047Y-63714969D01*
X145232049Y-63714981D01*
X145293093Y-63956038D01*
X145392983Y-64183763D01*
X145528990Y-64391939D01*
X145528993Y-64391942D01*
X145697413Y-64574895D01*
X145893648Y-64727631D01*
X146112347Y-64845985D01*
X146347543Y-64926728D01*
X146592822Y-64967657D01*
X146841492Y-64967657D01*
X147086771Y-64926728D01*
X147321967Y-64845985D01*
X147540666Y-64727631D01*
X147736901Y-64574895D01*
X147905321Y-64391942D01*
X148041330Y-64183764D01*
X148141220Y-63956038D01*
X148202265Y-63714978D01*
X148207947Y-63646406D01*
X148219081Y-63512044D01*
X148236497Y-63466908D01*
X148223680Y-63446964D01*
X148219081Y-63422269D01*
X148202266Y-63219344D01*
X148202264Y-63219332D01*
X148141220Y-62978275D01*
X148041330Y-62750550D01*
X147905323Y-62542374D01*
X147833998Y-62464895D01*
X147736901Y-62359419D01*
X147540666Y-62206683D01*
X147540664Y-62206682D01*
X147540663Y-62206681D01*
X147321968Y-62088329D01*
X147321959Y-62088326D01*
X147086773Y-62007586D01*
X146841492Y-61966657D01*
X146592822Y-61966657D01*
X146347540Y-62007586D01*
X146112354Y-62088326D01*
X146112345Y-62088329D01*
X145893650Y-62206681D01*
X145697414Y-62359418D01*
X145528990Y-62542374D01*
X145392983Y-62750550D01*
X145293093Y-62978275D01*
X145232049Y-63219332D01*
X145232047Y-63219344D01*
X145211514Y-63467151D01*
X145211514Y-63467162D01*
X138805565Y-63467162D01*
X138805565Y-63467160D01*
X138805565Y-63467153D01*
X138785369Y-63287907D01*
X138785368Y-63287902D01*
X138725789Y-63117635D01*
X138629816Y-62964895D01*
X138629814Y-62964893D01*
X138629813Y-62964891D01*
X138627550Y-62962053D01*
X138626659Y-62959872D01*
X138626111Y-62958999D01*
X138626264Y-62958902D01*
X138601144Y-62897366D01*
X138600500Y-62884744D01*
X138600500Y-61920945D01*
X138600498Y-61920936D01*
X138595341Y-61901687D01*
X138559577Y-61768215D01*
X138516120Y-61692946D01*
X138480520Y-61631284D01*
X138368716Y-61519480D01*
X138368715Y-61519479D01*
X138364385Y-61515149D01*
X138364374Y-61515139D01*
X138316397Y-61467162D01*
X138961514Y-61467162D01*
X138982047Y-61714969D01*
X138982049Y-61714981D01*
X139043093Y-61956038D01*
X139142983Y-62183763D01*
X139278990Y-62391939D01*
X139278993Y-62391942D01*
X139447413Y-62574895D01*
X139643648Y-62727631D01*
X139862347Y-62845985D01*
X140097543Y-62926728D01*
X140342822Y-62967657D01*
X140591492Y-62967657D01*
X140836771Y-62926728D01*
X141071967Y-62845985D01*
X141290666Y-62727631D01*
X141486901Y-62574895D01*
X141655321Y-62391942D01*
X141791330Y-62183764D01*
X141891220Y-61956038D01*
X141952265Y-61714978D01*
X141954091Y-61692945D01*
X141972800Y-61467162D01*
X141972800Y-61467151D01*
X141952266Y-61219344D01*
X141952264Y-61219332D01*
X141891220Y-60978275D01*
X141791330Y-60750550D01*
X141655323Y-60542374D01*
X141633714Y-60518901D01*
X141486901Y-60359419D01*
X141290666Y-60206683D01*
X141290664Y-60206682D01*
X141290663Y-60206681D01*
X141071968Y-60088329D01*
X141071959Y-60088326D01*
X140836773Y-60007586D01*
X140591492Y-59966657D01*
X140342822Y-59966657D01*
X140097540Y-60007586D01*
X139862354Y-60088326D01*
X139862345Y-60088329D01*
X139643650Y-60206681D01*
X139447414Y-60359418D01*
X139278990Y-60542374D01*
X139142983Y-60750550D01*
X139043093Y-60978275D01*
X138982049Y-61219332D01*
X138982047Y-61219344D01*
X138961514Y-61467151D01*
X138961514Y-61467162D01*
X138316397Y-61467162D01*
X136728573Y-59879338D01*
X136695088Y-59818015D01*
X136700072Y-59748323D01*
X136741944Y-59692390D01*
X136807408Y-59667973D01*
X136816254Y-59667657D01*
X141041663Y-59667657D01*
X141107634Y-59686663D01*
X141117631Y-59692944D01*
X141117632Y-59692944D01*
X141117635Y-59692946D01*
X141256017Y-59741368D01*
X141287902Y-59752525D01*
X141287907Y-59752526D01*
X141467153Y-59772722D01*
X141467157Y-59772722D01*
X141467161Y-59772722D01*
X141646406Y-59752526D01*
X141646409Y-59752525D01*
X141646412Y-59752525D01*
X141816679Y-59692946D01*
X141969419Y-59596973D01*
X142096973Y-59469419D01*
X142192946Y-59316679D01*
X142252525Y-59146412D01*
X142252526Y-59146406D01*
X142272722Y-58967160D01*
X142272722Y-58967153D01*
X142252526Y-58787907D01*
X142252525Y-58787902D01*
X142240146Y-58752525D01*
X142192946Y-58617635D01*
X142096973Y-58464895D01*
X141969419Y-58337341D01*
X141905960Y-58297467D01*
X141816680Y-58241368D01*
X141646411Y-58181788D01*
X141646406Y-58181787D01*
X141467161Y-58161592D01*
X141467153Y-58161592D01*
X141287907Y-58181787D01*
X141287902Y-58181788D01*
X141117633Y-58241368D01*
X140964896Y-58337340D01*
X140871897Y-58430339D01*
X140810573Y-58463823D01*
X140784216Y-58466657D01*
X129883479Y-58466657D01*
X129816440Y-58446972D01*
X129770685Y-58394168D01*
X129760259Y-58356540D01*
X129752526Y-58287907D01*
X129752525Y-58287905D01*
X129752525Y-58287902D01*
X129692946Y-58117635D01*
X129596973Y-57964895D01*
X129469419Y-57837341D01*
X129458274Y-57830338D01*
X129316680Y-57741368D01*
X129146411Y-57681788D01*
X129146406Y-57681787D01*
X128967161Y-57661592D01*
X128967153Y-57661592D01*
X128787907Y-57681787D01*
X128787902Y-57681788D01*
X128617633Y-57741368D01*
X128464893Y-57837342D01*
X128462060Y-57839602D01*
X128459881Y-57840491D01*
X128458999Y-57841046D01*
X128458901Y-57840891D01*
X128397374Y-57866012D01*
X128384745Y-57866657D01*
X127267254Y-57866657D01*
X127200215Y-57846972D01*
X127179573Y-57830338D01*
X125454747Y-56105512D01*
X125454745Y-56105509D01*
X125404073Y-56054837D01*
X125370588Y-55993514D01*
X125375572Y-55923822D01*
X125404073Y-55879475D01*
X125621956Y-55661592D01*
X125985692Y-55297855D01*
X126047013Y-55264372D01*
X126059468Y-55262320D01*
X126146412Y-55252525D01*
X126316679Y-55192946D01*
X126469419Y-55096973D01*
X126596973Y-54969419D01*
X126692946Y-54816679D01*
X126752525Y-54646412D01*
X126765464Y-54531578D01*
X126772722Y-54467160D01*
X126772722Y-54467153D01*
X126752526Y-54287907D01*
X126752525Y-54287902D01*
X126714507Y-54179254D01*
X126692946Y-54117635D01*
X126682179Y-54100500D01*
X126596972Y-53964894D01*
X126469419Y-53837341D01*
X126316680Y-53741368D01*
X126146411Y-53681788D01*
X126146406Y-53681787D01*
X125967161Y-53661592D01*
X125967153Y-53661592D01*
X125787907Y-53681787D01*
X125787902Y-53681788D01*
X125617633Y-53741368D01*
X125464894Y-53837341D01*
X125337341Y-53964894D01*
X125241367Y-54117635D01*
X125181787Y-54287907D01*
X125171994Y-54374825D01*
X125144927Y-54439239D01*
X125136455Y-54448622D01*
X124559805Y-55025273D01*
X124498482Y-55058758D01*
X124472124Y-55061592D01*
X124467153Y-55061592D01*
X124287903Y-55081788D01*
X124287902Y-55081788D01*
X124232610Y-55101135D01*
X124162831Y-55104696D01*
X124102204Y-55069966D01*
X124069978Y-55007972D01*
X124067657Y-54984093D01*
X124067657Y-54582412D01*
X124087342Y-54515373D01*
X124094712Y-54505097D01*
X124096967Y-54502267D01*
X124096973Y-54502262D01*
X124192946Y-54349522D01*
X124252525Y-54179255D01*
X124259468Y-54117633D01*
X124272722Y-54000003D01*
X124272722Y-53999996D01*
X124252526Y-53820750D01*
X124252525Y-53820745D01*
X124192945Y-53650476D01*
X124096972Y-53497737D01*
X123969419Y-53370184D01*
X123816680Y-53274211D01*
X123646411Y-53214631D01*
X123646406Y-53214630D01*
X123467161Y-53194435D01*
X123467153Y-53194435D01*
X123287907Y-53214630D01*
X123287894Y-53214633D01*
X123117636Y-53274209D01*
X123049549Y-53316991D01*
X122982312Y-53335991D01*
X122917606Y-53316991D01*
X122849523Y-53274211D01*
X122679254Y-53214631D01*
X122679249Y-53214630D01*
X122500004Y-53194435D01*
X122499996Y-53194435D01*
X122320750Y-53214630D01*
X122320745Y-53214631D01*
X122150476Y-53274211D01*
X121997737Y-53370184D01*
X121870184Y-53497737D01*
X121774211Y-53650476D01*
X121714631Y-53820745D01*
X121714630Y-53820750D01*
X121694435Y-53999996D01*
X121694435Y-54000003D01*
X121714630Y-54179249D01*
X121714631Y-54179254D01*
X121774211Y-54349523D01*
X121870184Y-54502262D01*
X121930338Y-54562416D01*
X121963823Y-54623739D01*
X121966657Y-54650097D01*
X121966657Y-54984744D01*
X121946972Y-55051783D01*
X121939607Y-55062053D01*
X121937343Y-55064891D01*
X121841368Y-55217633D01*
X121781788Y-55387902D01*
X121781787Y-55387907D01*
X121761592Y-55567153D01*
X121761592Y-55567160D01*
X121779801Y-55728774D01*
X121767746Y-55797596D01*
X121720397Y-55848975D01*
X121656581Y-55866657D01*
X112549569Y-55866657D01*
X112482530Y-55846972D01*
X112472254Y-55839602D01*
X112469420Y-55837342D01*
X112469419Y-55837341D01*
X112406165Y-55797596D01*
X112316680Y-55741368D01*
X112146411Y-55681788D01*
X112146406Y-55681787D01*
X111967161Y-55661592D01*
X111967153Y-55661592D01*
X111787907Y-55681787D01*
X111787902Y-55681788D01*
X111617633Y-55741368D01*
X111464894Y-55837341D01*
X111337341Y-55964894D01*
X111241368Y-56117633D01*
X111181788Y-56287902D01*
X111181787Y-56287907D01*
X111161592Y-56467153D01*
X111161592Y-56467160D01*
X111181787Y-56646406D01*
X111181788Y-56646411D01*
X111241368Y-56816680D01*
X111337341Y-56969419D01*
X111464895Y-57096973D01*
X111555237Y-57153739D01*
X111599878Y-57181789D01*
X111617635Y-57192946D01*
X111756017Y-57241368D01*
X111787902Y-57252525D01*
X111787907Y-57252526D01*
X111967153Y-57272722D01*
X111967157Y-57272722D01*
X111967161Y-57272722D01*
X112146406Y-57252526D01*
X112146409Y-57252525D01*
X112146412Y-57252525D01*
X112316679Y-57192946D01*
X112469419Y-57096973D01*
X112469424Y-57096967D01*
X112472254Y-57094712D01*
X112474432Y-57093822D01*
X112475315Y-57093268D01*
X112475412Y-57093422D01*
X112536940Y-57068302D01*
X112549569Y-57067657D01*
X124667060Y-57067657D01*
X124734099Y-57087342D01*
X124754741Y-57103976D01*
X125693281Y-58042516D01*
X125726766Y-58103839D01*
X125722641Y-58171152D01*
X125698308Y-58240691D01*
X125657587Y-58297467D01*
X125622223Y-58316777D01*
X125551946Y-58341368D01*
X125551945Y-58341369D01*
X125399207Y-58437341D01*
X125271654Y-58564894D01*
X125175680Y-58717635D01*
X125141103Y-58816454D01*
X125100381Y-58873230D01*
X125035429Y-58898978D01*
X125024061Y-58899500D01*
X110355255Y-58899500D01*
X110314804Y-58910338D01*
X110314805Y-58910339D01*
X110202528Y-58940423D01*
X110202523Y-58940426D01*
X110065604Y-59019475D01*
X110065596Y-59019481D01*
X109953792Y-59131286D01*
X108891797Y-60193280D01*
X108830474Y-60226765D01*
X108763162Y-60222641D01*
X108646414Y-60181789D01*
X108646406Y-60181787D01*
X108467161Y-60161592D01*
X108467153Y-60161592D01*
X108287907Y-60181787D01*
X108287902Y-60181788D01*
X108117633Y-60241368D01*
X107964894Y-60337341D01*
X107837341Y-60464894D01*
X107741368Y-60617633D01*
X107681788Y-60787902D01*
X107681787Y-60787907D01*
X107661592Y-60967153D01*
X107661592Y-60967160D01*
X79598392Y-60967160D01*
X79692946Y-60816679D01*
X79752525Y-60646412D01*
X79752526Y-60646406D01*
X79772722Y-60467160D01*
X79772722Y-60467153D01*
X79752526Y-60287907D01*
X79752525Y-60287902D01*
X79724105Y-60206683D01*
X79692946Y-60117635D01*
X79682179Y-60100500D01*
X79653739Y-60055237D01*
X79596973Y-59964895D01*
X79469419Y-59837341D01*
X79366579Y-59772722D01*
X79316680Y-59741368D01*
X79146411Y-59681788D01*
X79146406Y-59681787D01*
X78967161Y-59661592D01*
X78967153Y-59661592D01*
X78787907Y-59681787D01*
X78787902Y-59681788D01*
X78617633Y-59741368D01*
X78464894Y-59837341D01*
X78337341Y-59964894D01*
X78241368Y-60117633D01*
X78181788Y-60287902D01*
X78181787Y-60287907D01*
X78161592Y-60467153D01*
X78161592Y-60467160D01*
X78181787Y-60646406D01*
X78181788Y-60646411D01*
X78241368Y-60816680D01*
X78301672Y-60912653D01*
X78335917Y-60967153D01*
X78337342Y-60969420D01*
X78339602Y-60972254D01*
X78340491Y-60974432D01*
X78341046Y-60975315D01*
X78340891Y-60975412D01*
X78366012Y-61036940D01*
X78366657Y-61049569D01*
X78366657Y-64880487D01*
X78366656Y-64880505D01*
X78366656Y-65046211D01*
X78366655Y-65046211D01*
X78366656Y-65046214D01*
X78407580Y-65198942D01*
X78407581Y-65198943D01*
X78420770Y-65221789D01*
X78420771Y-65221790D01*
X78486632Y-65335866D01*
X78486638Y-65335874D01*
X78605506Y-65454742D01*
X78605511Y-65454746D01*
X81598441Y-68447677D01*
X81598443Y-68447678D01*
X81598447Y-68447681D01*
X81684379Y-68497293D01*
X81735373Y-68526734D01*
X81888100Y-68567658D01*
X81888102Y-68567658D01*
X82053811Y-68567658D01*
X82053827Y-68567657D01*
X85218059Y-68567657D01*
X85285098Y-68587342D01*
X85330853Y-68640146D01*
X85340797Y-68709304D01*
X85311772Y-68772860D01*
X85305740Y-68779338D01*
X83448622Y-70636455D01*
X83387299Y-70669940D01*
X83374825Y-70671994D01*
X83287907Y-70681787D01*
X83117635Y-70741367D01*
X82964894Y-70837341D01*
X82837341Y-70964894D01*
X82741368Y-71117633D01*
X82681788Y-71287902D01*
X82681787Y-71287907D01*
X82661592Y-71467153D01*
X82661592Y-71467160D01*
X82681787Y-71646406D01*
X82681788Y-71646411D01*
X82741368Y-71816680D01*
X82817876Y-71938441D01*
X82837341Y-71969419D01*
X82964895Y-72096973D01*
X83117635Y-72192946D01*
X83216702Y-72227611D01*
X83287902Y-72252525D01*
X83287907Y-72252526D01*
X83467153Y-72272722D01*
X83467157Y-72272722D01*
X83467161Y-72272722D01*
X83646406Y-72252526D01*
X83646409Y-72252525D01*
X83646412Y-72252525D01*
X83816679Y-72192946D01*
X83969419Y-72096973D01*
X84096973Y-71969419D01*
X84192946Y-71816679D01*
X84252525Y-71646412D01*
X84262318Y-71559486D01*
X84289383Y-71495075D01*
X84297847Y-71485700D01*
X86179573Y-69603976D01*
X86240896Y-69570491D01*
X86267254Y-69567657D01*
X89463681Y-69567657D01*
X89530720Y-69587342D01*
X89576475Y-69640146D01*
X89586419Y-69709304D01*
X89557394Y-69772860D01*
X89529653Y-69796651D01*
X89464893Y-69837342D01*
X89462060Y-69839602D01*
X89459881Y-69840491D01*
X89458999Y-69841046D01*
X89458901Y-69840891D01*
X89397374Y-69866012D01*
X89384745Y-69866657D01*
X88553827Y-69866657D01*
X88553811Y-69866656D01*
X88546215Y-69866656D01*
X88388100Y-69866656D01*
X88311736Y-69887118D01*
X88235371Y-69907580D01*
X88235366Y-69907583D01*
X88098447Y-69986632D01*
X88098439Y-69986638D01*
X85254741Y-72830338D01*
X85193418Y-72863823D01*
X85167060Y-72866657D01*
X64767254Y-72866657D01*
X64700215Y-72846972D01*
X64679573Y-72830338D01*
X62741032Y-70891797D01*
X62707547Y-70830474D01*
X62711671Y-70763163D01*
X62741694Y-70677362D01*
X62752524Y-70646416D01*
X62752526Y-70646406D01*
X62758075Y-70597159D01*
X74136908Y-70597159D01*
X74155842Y-70765213D01*
X74211702Y-70924851D01*
X74211704Y-70924854D01*
X74301675Y-71068041D01*
X74301680Y-71068047D01*
X74421266Y-71187633D01*
X74421272Y-71187638D01*
X74564459Y-71277609D01*
X74564465Y-71277612D01*
X74564467Y-71277613D01*
X74593886Y-71287907D01*
X74642195Y-71304811D01*
X74698971Y-71345533D01*
X74724719Y-71410486D01*
X74724461Y-71435736D01*
X74711908Y-71547152D01*
X74711908Y-71547159D01*
X74730842Y-71715213D01*
X74786702Y-71874851D01*
X74786704Y-71874854D01*
X74876675Y-72018041D01*
X74876680Y-72018047D01*
X74996266Y-72137633D01*
X74996272Y-72137638D01*
X75139459Y-72227609D01*
X75139462Y-72227611D01*
X75139466Y-72227612D01*
X75139467Y-72227613D01*
X75210662Y-72252525D01*
X75299100Y-72283471D01*
X75467154Y-72302406D01*
X75467157Y-72302406D01*
X75467160Y-72302406D01*
X75635213Y-72283471D01*
X75635216Y-72283470D01*
X75794847Y-72227613D01*
X75794849Y-72227611D01*
X75794851Y-72227611D01*
X75794854Y-72227609D01*
X75938041Y-72137638D01*
X75938042Y-72137637D01*
X75938047Y-72137634D01*
X76057634Y-72018047D01*
X76088189Y-71969419D01*
X76147609Y-71874854D01*
X76147611Y-71874851D01*
X76147611Y-71874849D01*
X76147613Y-71874847D01*
X76203470Y-71715216D01*
X76203470Y-71715215D01*
X76203471Y-71715213D01*
X76222406Y-71547159D01*
X76222406Y-71547154D01*
X76209852Y-71435737D01*
X76221906Y-71366915D01*
X76269255Y-71315535D01*
X76292114Y-71304812D01*
X76369847Y-71277613D01*
X76369849Y-71277612D01*
X76369854Y-71277609D01*
X76513041Y-71187638D01*
X76513042Y-71187637D01*
X76513047Y-71187634D01*
X76632634Y-71068047D01*
X76632638Y-71068041D01*
X76722609Y-70924854D01*
X76722611Y-70924851D01*
X76722611Y-70924849D01*
X76722613Y-70924847D01*
X76778470Y-70765216D01*
X76778470Y-70765215D01*
X76778471Y-70765213D01*
X76797406Y-70597159D01*
X76797406Y-70597154D01*
X76778471Y-70429100D01*
X76729065Y-70287907D01*
X76722613Y-70269467D01*
X76722612Y-70269466D01*
X76722611Y-70269462D01*
X76722609Y-70269459D01*
X76632638Y-70126272D01*
X76632633Y-70126266D01*
X76513047Y-70006680D01*
X76513041Y-70006675D01*
X76497898Y-69997160D01*
X77031592Y-69997160D01*
X77051787Y-70176406D01*
X77051788Y-70176411D01*
X77111368Y-70346680D01*
X77188491Y-70469419D01*
X77207341Y-70499419D01*
X77334895Y-70626973D01*
X77487635Y-70722946D01*
X77657902Y-70782525D01*
X77744826Y-70792318D01*
X77809237Y-70819383D01*
X77818622Y-70827857D01*
X78151806Y-71161041D01*
X78185291Y-71222364D01*
X78181718Y-71280740D01*
X78183339Y-71281110D01*
X78181787Y-71287907D01*
X78161592Y-71467153D01*
X78161592Y-71467160D01*
X78181787Y-71646406D01*
X78181788Y-71646411D01*
X78241368Y-71816680D01*
X78317876Y-71938441D01*
X78337341Y-71969419D01*
X78464895Y-72096973D01*
X78617635Y-72192946D01*
X78716702Y-72227611D01*
X78787902Y-72252525D01*
X78787907Y-72252526D01*
X78967153Y-72272722D01*
X78967157Y-72272722D01*
X78967161Y-72272722D01*
X79146406Y-72252526D01*
X79146409Y-72252525D01*
X79146412Y-72252525D01*
X79316679Y-72192946D01*
X79469419Y-72096973D01*
X79596973Y-71969419D01*
X79692946Y-71816679D01*
X79752525Y-71646412D01*
X79752873Y-71643322D01*
X79772722Y-71467160D01*
X79772722Y-71467153D01*
X79752526Y-71287907D01*
X79752525Y-71287902D01*
X79740146Y-71252525D01*
X79692946Y-71117635D01*
X79691004Y-71114545D01*
X79645032Y-71041381D01*
X79596973Y-70964895D01*
X79537297Y-70905219D01*
X79517593Y-70879541D01*
X79447677Y-70758441D01*
X79335873Y-70646637D01*
X79335872Y-70646636D01*
X79331542Y-70642306D01*
X79331531Y-70642296D01*
X78667857Y-69978622D01*
X78634372Y-69917299D01*
X78632320Y-69904843D01*
X78622525Y-69817902D01*
X78562946Y-69647635D01*
X78466973Y-69494895D01*
X78339419Y-69367341D01*
X78291676Y-69337342D01*
X78186680Y-69271368D01*
X78016411Y-69211788D01*
X78016406Y-69211787D01*
X77837161Y-69191592D01*
X77837153Y-69191592D01*
X77657907Y-69211787D01*
X77657902Y-69211788D01*
X77487633Y-69271368D01*
X77334894Y-69367341D01*
X77207341Y-69494894D01*
X77111368Y-69647633D01*
X77051788Y-69817902D01*
X77051787Y-69817907D01*
X77031592Y-69997153D01*
X77031592Y-69997160D01*
X76497898Y-69997160D01*
X76369854Y-69916704D01*
X76369843Y-69916699D01*
X76292117Y-69889501D01*
X76235341Y-69848779D01*
X76209594Y-69783827D01*
X76209852Y-69758576D01*
X76222406Y-69647159D01*
X76222406Y-69647154D01*
X76203471Y-69479100D01*
X76155164Y-69341046D01*
X76147613Y-69319467D01*
X76147612Y-69319466D01*
X76147611Y-69319462D01*
X76147609Y-69319459D01*
X76057638Y-69176272D01*
X76057633Y-69176266D01*
X75938047Y-69056680D01*
X75938041Y-69056675D01*
X75794854Y-68966704D01*
X75794851Y-68966702D01*
X75635213Y-68910842D01*
X75467160Y-68891908D01*
X75467154Y-68891908D01*
X75299100Y-68910842D01*
X75139462Y-68966702D01*
X75139459Y-68966704D01*
X74996272Y-69056675D01*
X74996266Y-69056680D01*
X74876680Y-69176266D01*
X74876675Y-69176272D01*
X74786704Y-69319459D01*
X74786702Y-69319462D01*
X74730842Y-69479100D01*
X74711908Y-69647154D01*
X74711908Y-69647161D01*
X74724461Y-69758578D01*
X74712406Y-69827400D01*
X74665057Y-69878779D01*
X74642195Y-69889503D01*
X74564465Y-69916701D01*
X74564459Y-69916704D01*
X74421272Y-70006675D01*
X74421266Y-70006680D01*
X74301680Y-70126266D01*
X74301675Y-70126272D01*
X74211704Y-70269459D01*
X74211702Y-70269462D01*
X74155842Y-70429100D01*
X74136908Y-70597154D01*
X74136908Y-70597159D01*
X62758075Y-70597159D01*
X62772722Y-70467160D01*
X62772722Y-70467153D01*
X62752526Y-70287907D01*
X62752525Y-70287902D01*
X62746073Y-70269462D01*
X62692946Y-70117635D01*
X62596973Y-69964895D01*
X62469419Y-69837341D01*
X62438479Y-69817900D01*
X62316680Y-69741368D01*
X62146411Y-69681788D01*
X62146406Y-69681787D01*
X61967161Y-69661592D01*
X61967153Y-69661592D01*
X61787907Y-69681787D01*
X61787902Y-69681788D01*
X61617633Y-69741368D01*
X61464894Y-69837341D01*
X61337341Y-69964894D01*
X61241368Y-70117633D01*
X61181788Y-70287902D01*
X61181787Y-70287907D01*
X61161592Y-70467153D01*
X61161592Y-70467160D01*
X55467657Y-70467160D01*
X55467657Y-65967158D01*
X58161689Y-65967158D01*
X58181521Y-66193843D01*
X58181523Y-66193854D01*
X58240415Y-66413645D01*
X58240418Y-66413654D01*
X58336588Y-66619889D01*
X58336589Y-66619891D01*
X58467111Y-66806298D01*
X58628015Y-66967202D01*
X58628018Y-66967204D01*
X58814423Y-67097725D01*
X59020661Y-67193896D01*
X59020666Y-67193897D01*
X59020668Y-67193898D01*
X59068383Y-67206683D01*
X59240465Y-67252792D01*
X59402387Y-67266958D01*
X59467155Y-67272625D01*
X59467157Y-67272625D01*
X59467159Y-67272625D01*
X59523830Y-67267666D01*
X59693849Y-67252792D01*
X59913653Y-67193896D01*
X60119891Y-67097725D01*
X60306296Y-66967204D01*
X60467204Y-66806296D01*
X60597725Y-66619891D01*
X60693896Y-66413653D01*
X60752792Y-66193849D01*
X60772625Y-65967157D01*
X60752792Y-65740465D01*
X60693896Y-65520661D01*
X60597725Y-65314423D01*
X60467204Y-65128018D01*
X60467202Y-65128015D01*
X60306298Y-64967111D01*
X60119891Y-64836589D01*
X60119889Y-64836588D01*
X59913654Y-64740418D01*
X59913645Y-64740415D01*
X59693854Y-64681523D01*
X59693850Y-64681522D01*
X59693849Y-64681522D01*
X59693848Y-64681521D01*
X59693843Y-64681521D01*
X59467159Y-64661689D01*
X59467155Y-64661689D01*
X59240470Y-64681521D01*
X59240459Y-64681523D01*
X59020668Y-64740415D01*
X59020659Y-64740418D01*
X58814424Y-64836588D01*
X58814422Y-64836589D01*
X58628015Y-64967111D01*
X58467111Y-65128015D01*
X58336589Y-65314422D01*
X58336588Y-65314424D01*
X58240418Y-65520659D01*
X58240415Y-65520668D01*
X58181523Y-65740459D01*
X58181521Y-65740470D01*
X58161689Y-65967155D01*
X58161689Y-65967158D01*
X55467657Y-65967158D01*
X55467657Y-57967160D01*
X85661592Y-57967160D01*
X85681787Y-58146406D01*
X85681788Y-58146411D01*
X85741368Y-58316680D01*
X85812785Y-58430339D01*
X85837341Y-58469419D01*
X85964895Y-58596973D01*
X86117635Y-58692946D01*
X86287902Y-58752525D01*
X86287907Y-58752526D01*
X86467153Y-58772722D01*
X86467157Y-58772722D01*
X86467161Y-58772722D01*
X86646406Y-58752526D01*
X86646409Y-58752525D01*
X86646412Y-58752525D01*
X86816679Y-58692946D01*
X86969419Y-58596973D01*
X86969424Y-58596967D01*
X86972254Y-58594712D01*
X86974432Y-58593822D01*
X86975315Y-58593268D01*
X86975412Y-58593422D01*
X87036940Y-58568302D01*
X87049569Y-58567657D01*
X91884745Y-58567657D01*
X91951784Y-58587342D01*
X91962060Y-58594712D01*
X91964893Y-58596971D01*
X91964895Y-58596973D01*
X92117635Y-58692946D01*
X92287902Y-58752525D01*
X92287907Y-58752526D01*
X92467153Y-58772722D01*
X92467157Y-58772722D01*
X92467161Y-58772722D01*
X92646406Y-58752526D01*
X92646409Y-58752525D01*
X92646412Y-58752525D01*
X92816679Y-58692946D01*
X92969419Y-58596973D01*
X93096973Y-58469419D01*
X93192946Y-58316679D01*
X93252525Y-58146412D01*
X93252526Y-58146406D01*
X93272722Y-57967160D01*
X93272722Y-57967153D01*
X93252526Y-57787907D01*
X93252525Y-57787902D01*
X93192945Y-57617633D01*
X93096972Y-57464894D01*
X92969419Y-57337341D01*
X92816680Y-57241368D01*
X92646411Y-57181788D01*
X92646406Y-57181787D01*
X92467161Y-57161592D01*
X92467153Y-57161592D01*
X92287907Y-57181787D01*
X92287902Y-57181788D01*
X92117633Y-57241368D01*
X91964893Y-57337342D01*
X91962060Y-57339602D01*
X91959881Y-57340491D01*
X91958999Y-57341046D01*
X91958901Y-57340891D01*
X91897374Y-57366012D01*
X91884745Y-57366657D01*
X87049569Y-57366657D01*
X86982530Y-57346972D01*
X86972254Y-57339602D01*
X86969420Y-57337342D01*
X86969419Y-57337341D01*
X86866579Y-57272722D01*
X86816680Y-57241368D01*
X86646411Y-57181788D01*
X86646406Y-57181787D01*
X86467161Y-57161592D01*
X86467153Y-57161592D01*
X86287907Y-57181787D01*
X86287902Y-57181788D01*
X86117633Y-57241368D01*
X85964894Y-57337341D01*
X85837341Y-57464894D01*
X85741368Y-57617633D01*
X85681788Y-57787902D01*
X85681787Y-57787907D01*
X85661592Y-57967153D01*
X85661592Y-57967160D01*
X55467657Y-57967160D01*
X55467657Y-52967160D01*
X85661592Y-52967160D01*
X85681787Y-53146406D01*
X85681788Y-53146411D01*
X85741368Y-53316680D01*
X85774987Y-53370184D01*
X85837341Y-53469419D01*
X85964895Y-53596973D01*
X86117635Y-53692946D01*
X86287902Y-53752525D01*
X86374826Y-53762318D01*
X86439237Y-53789383D01*
X86448620Y-53797855D01*
X86631284Y-53980520D01*
X86665030Y-54000003D01*
X86768211Y-54059575D01*
X86768212Y-54059575D01*
X86768215Y-54059577D01*
X86920943Y-54100501D01*
X86920946Y-54100501D01*
X87086654Y-54100501D01*
X87086670Y-54100500D01*
X89913331Y-54100500D01*
X89913347Y-54100501D01*
X89920943Y-54100501D01*
X90079054Y-54100501D01*
X90079057Y-54100501D01*
X90231785Y-54059577D01*
X90281904Y-54030639D01*
X90368716Y-53980520D01*
X90480520Y-53868716D01*
X90480520Y-53868714D01*
X90490728Y-53858507D01*
X90490730Y-53858504D01*
X92059718Y-52289515D01*
X92121039Y-52256032D01*
X92133506Y-52253979D01*
X92146412Y-52252525D01*
X92316679Y-52192946D01*
X92469419Y-52096973D01*
X92596973Y-51969419D01*
X92692946Y-51816679D01*
X92752525Y-51646412D01*
X92752526Y-51646406D01*
X92772722Y-51467160D01*
X92772722Y-51467153D01*
X92752526Y-51287907D01*
X92752525Y-51287902D01*
X92692945Y-51117633D01*
X92596972Y-50964894D01*
X92469419Y-50837341D01*
X92438708Y-50818044D01*
X92392418Y-50765710D01*
X92381770Y-50696657D01*
X92410145Y-50632808D01*
X92468534Y-50594436D01*
X92487791Y-50590206D01*
X92645515Y-50568528D01*
X92922215Y-50491001D01*
X93064309Y-50429281D01*
X93185774Y-50376522D01*
X93185777Y-50376520D01*
X93185782Y-50376518D01*
X93431304Y-50227212D01*
X93654210Y-50045865D01*
X93850346Y-49835855D01*
X94016058Y-49601093D01*
X94148261Y-49345954D01*
X94244491Y-49075189D01*
X94302955Y-48793843D01*
X94322565Y-48507157D01*
X94302955Y-48220471D01*
X94244491Y-47939125D01*
X94148262Y-47668363D01*
X94148263Y-47668363D01*
X94016058Y-47413221D01*
X93850344Y-47178456D01*
X93771711Y-47094262D01*
X93654210Y-46968449D01*
X93431304Y-46787102D01*
X93431303Y-46787101D01*
X93185774Y-46637791D01*
X92922220Y-46523315D01*
X92922218Y-46523314D01*
X92922215Y-46523313D01*
X92792735Y-46487034D01*
X92645521Y-46445787D01*
X92645516Y-46445786D01*
X92645515Y-46445786D01*
X92503175Y-46426221D01*
X92360836Y-46406657D01*
X92360835Y-46406657D01*
X92073479Y-46406657D01*
X92073478Y-46406657D01*
X91788799Y-46445786D01*
X91788792Y-46445787D01*
X91581018Y-46504002D01*
X91512099Y-46523313D01*
X91512096Y-46523313D01*
X91512093Y-46523315D01*
X91512092Y-46523315D01*
X91248539Y-46637791D01*
X91003010Y-46787101D01*
X90780107Y-46968446D01*
X90583969Y-47178456D01*
X90418255Y-47413221D01*
X90286051Y-47668363D01*
X90189824Y-47939119D01*
X90189823Y-47939122D01*
X90131358Y-48220476D01*
X90111749Y-48507157D01*
X90131358Y-48793837D01*
X90131358Y-48793841D01*
X90131359Y-48793843D01*
X90150646Y-48886657D01*
X90189823Y-49075191D01*
X90189824Y-49075194D01*
X90286051Y-49345950D01*
X90286050Y-49345950D01*
X90418255Y-49601092D01*
X90583969Y-49835857D01*
X90632013Y-49887299D01*
X90780104Y-50045865D01*
X91003010Y-50227212D01*
X91150131Y-50316679D01*
X91248539Y-50376522D01*
X91512092Y-50490998D01*
X91512096Y-50491000D01*
X91512097Y-50491000D01*
X91512099Y-50491001D01*
X91591218Y-50513169D01*
X91650460Y-50550209D01*
X91680272Y-50613399D01*
X91671189Y-50682676D01*
X91626093Y-50736044D01*
X91623457Y-50737545D01*
X91623531Y-50737663D01*
X91464894Y-50837341D01*
X91337341Y-50964894D01*
X91241368Y-51117633D01*
X91181788Y-51287902D01*
X91181787Y-51287907D01*
X91163654Y-51448850D01*
X91136588Y-51513264D01*
X91128115Y-51522648D01*
X89787584Y-52863181D01*
X89726261Y-52896666D01*
X89699903Y-52899500D01*
X87375913Y-52899500D01*
X87308874Y-52879815D01*
X87263119Y-52827011D01*
X87254156Y-52794670D01*
X87254074Y-52794689D01*
X87253665Y-52792899D01*
X87252693Y-52789390D01*
X87252566Y-52788270D01*
X87252525Y-52787902D01*
X87192946Y-52617635D01*
X87096973Y-52464895D01*
X86969419Y-52337341D01*
X86893308Y-52289517D01*
X86816680Y-52241368D01*
X86646411Y-52181788D01*
X86646406Y-52181787D01*
X86467161Y-52161592D01*
X86467153Y-52161592D01*
X86287907Y-52181787D01*
X86287902Y-52181788D01*
X86117633Y-52241368D01*
X85964894Y-52337341D01*
X85837341Y-52464894D01*
X85741368Y-52617633D01*
X85681788Y-52787902D01*
X85681787Y-52787907D01*
X85661592Y-52967153D01*
X85661592Y-52967160D01*
X55467657Y-52967160D01*
X55467657Y-51190777D01*
X58936657Y-51190777D01*
X58973182Y-51374400D01*
X58973184Y-51374408D01*
X59044833Y-51547385D01*
X59044838Y-51547394D01*
X59148854Y-51703064D01*
X59148857Y-51703068D01*
X59281245Y-51835456D01*
X59281249Y-51835459D01*
X59436919Y-51939475D01*
X59436925Y-51939478D01*
X59436926Y-51939479D01*
X59609906Y-52011130D01*
X59790303Y-52047013D01*
X59793536Y-52047656D01*
X59793540Y-52047657D01*
X59793541Y-52047657D01*
X60880774Y-52047657D01*
X60880775Y-52047656D01*
X61064408Y-52011130D01*
X61237388Y-51939479D01*
X61393065Y-51835459D01*
X61525459Y-51703065D01*
X61629479Y-51547388D01*
X61701130Y-51374408D01*
X61737657Y-51190773D01*
X61737657Y-51003541D01*
X61701130Y-50819906D01*
X61629479Y-50646926D01*
X61629478Y-50646925D01*
X61629475Y-50646919D01*
X61555393Y-50536048D01*
X61534515Y-50469371D01*
X61552999Y-50401990D01*
X61555393Y-50398266D01*
X61629475Y-50287394D01*
X61629475Y-50287393D01*
X61629479Y-50287388D01*
X61701130Y-50114408D01*
X61737657Y-49930773D01*
X61737657Y-49743541D01*
X61701130Y-49559906D01*
X61662714Y-49467163D01*
X65561857Y-49467163D01*
X65581021Y-49698454D01*
X65581023Y-49698465D01*
X65637999Y-49923457D01*
X65731232Y-50136005D01*
X65858173Y-50330304D01*
X65858176Y-50330308D01*
X65858178Y-50330310D01*
X66015373Y-50501070D01*
X66015376Y-50501072D01*
X66015379Y-50501075D01*
X66198522Y-50643621D01*
X66198528Y-50643625D01*
X66198531Y-50643627D01*
X66296522Y-50696657D01*
X66399756Y-50752525D01*
X66402654Y-50754093D01*
X66505450Y-50789383D01*
X66622172Y-50829454D01*
X66622174Y-50829454D01*
X66622176Y-50829455D01*
X66851108Y-50867657D01*
X66851109Y-50867657D01*
X67083205Y-50867657D01*
X67083206Y-50867657D01*
X67312138Y-50829455D01*
X67531660Y-50754093D01*
X67735783Y-50643627D01*
X67749684Y-50632808D01*
X67804419Y-50590206D01*
X67918941Y-50501070D01*
X68076136Y-50330310D01*
X68203081Y-50136006D01*
X68296314Y-49923457D01*
X68353291Y-49698462D01*
X68353292Y-49698454D01*
X68372457Y-49467163D01*
X70561857Y-49467163D01*
X70581021Y-49698454D01*
X70581023Y-49698465D01*
X70637999Y-49923457D01*
X70731232Y-50136005D01*
X70858173Y-50330304D01*
X70858176Y-50330308D01*
X70858178Y-50330310D01*
X71015373Y-50501070D01*
X71015376Y-50501072D01*
X71015379Y-50501075D01*
X71198522Y-50643621D01*
X71198528Y-50643625D01*
X71198531Y-50643627D01*
X71296522Y-50696657D01*
X71399756Y-50752525D01*
X71402654Y-50754093D01*
X71505450Y-50789383D01*
X71622172Y-50829454D01*
X71622174Y-50829454D01*
X71622176Y-50829455D01*
X71851108Y-50867657D01*
X71851109Y-50867657D01*
X72083205Y-50867657D01*
X72083206Y-50867657D01*
X72312138Y-50829455D01*
X72531660Y-50754093D01*
X72735783Y-50643627D01*
X72749684Y-50632808D01*
X72804419Y-50590206D01*
X72918941Y-50501070D01*
X73076136Y-50330310D01*
X73203081Y-50136006D01*
X73296314Y-49923457D01*
X73353291Y-49698462D01*
X73353292Y-49698454D01*
X73372457Y-49467163D01*
X73372457Y-49467150D01*
X73353292Y-49235859D01*
X73353290Y-49235848D01*
X73296314Y-49010856D01*
X73203081Y-48798308D01*
X73076140Y-48604009D01*
X73076137Y-48604006D01*
X73076136Y-48604004D01*
X72986982Y-48507157D01*
X78071749Y-48507157D01*
X78091358Y-48793837D01*
X78091358Y-48793841D01*
X78091359Y-48793843D01*
X78110646Y-48886657D01*
X78149823Y-49075191D01*
X78149824Y-49075194D01*
X78246051Y-49345950D01*
X78246050Y-49345950D01*
X78378255Y-49601092D01*
X78543969Y-49835857D01*
X78592013Y-49887299D01*
X78740104Y-50045865D01*
X78963010Y-50227212D01*
X79110131Y-50316679D01*
X79208539Y-50376522D01*
X79361739Y-50443065D01*
X79472099Y-50491001D01*
X79748799Y-50568528D01*
X79999077Y-50602928D01*
X80033478Y-50607657D01*
X80033479Y-50607657D01*
X80320836Y-50607657D01*
X80351527Y-50603438D01*
X80605515Y-50568528D01*
X80882215Y-50491001D01*
X81024309Y-50429281D01*
X81145774Y-50376522D01*
X81145777Y-50376520D01*
X81145782Y-50376518D01*
X81391304Y-50227212D01*
X81614210Y-50045865D01*
X81810346Y-49835855D01*
X81976058Y-49601093D01*
X82045458Y-49467157D01*
X83721514Y-49467157D01*
X83742041Y-49688692D01*
X83742042Y-49688694D01*
X83802926Y-49902680D01*
X83802932Y-49902695D01*
X83902095Y-50101840D01*
X83902100Y-50101848D01*
X84036177Y-50279395D01*
X84200594Y-50429280D01*
X84200596Y-50429282D01*
X84389752Y-50546402D01*
X84389753Y-50546402D01*
X84389756Y-50546404D01*
X84597217Y-50626775D01*
X84815914Y-50667657D01*
X84815916Y-50667657D01*
X85038398Y-50667657D01*
X85038400Y-50667657D01*
X85257097Y-50626775D01*
X85464558Y-50546404D01*
X85653719Y-50429281D01*
X85818138Y-50279393D01*
X85952215Y-50101846D01*
X86051386Y-49902685D01*
X86077891Y-49809528D01*
X86115170Y-49750435D01*
X86178480Y-49720878D01*
X86247719Y-49730240D01*
X86300906Y-49775550D01*
X86316423Y-49809529D01*
X86342926Y-49902680D01*
X86342932Y-49902695D01*
X86442095Y-50101840D01*
X86442100Y-50101848D01*
X86576177Y-50279395D01*
X86740594Y-50429280D01*
X86740596Y-50429282D01*
X86929752Y-50546402D01*
X86929753Y-50546402D01*
X86929756Y-50546404D01*
X87137217Y-50626775D01*
X87355914Y-50667657D01*
X87355916Y-50667657D01*
X87578398Y-50667657D01*
X87578400Y-50667657D01*
X87797097Y-50626775D01*
X88004558Y-50546404D01*
X88193719Y-50429281D01*
X88358138Y-50279393D01*
X88492215Y-50101846D01*
X88591386Y-49902685D01*
X88652272Y-49688693D01*
X88672800Y-49467157D01*
X88652272Y-49245621D01*
X88591386Y-49031629D01*
X88581043Y-49010857D01*
X88492218Y-48832473D01*
X88492213Y-48832465D01*
X88358136Y-48654918D01*
X88193719Y-48505033D01*
X88193717Y-48505031D01*
X88004561Y-48387911D01*
X88004555Y-48387909D01*
X87797097Y-48307539D01*
X87578400Y-48266657D01*
X87355914Y-48266657D01*
X87137217Y-48307539D01*
X87006021Y-48358364D01*
X86929758Y-48387909D01*
X86929752Y-48387911D01*
X86740596Y-48505031D01*
X86740594Y-48505033D01*
X86576177Y-48654918D01*
X86442100Y-48832465D01*
X86442095Y-48832473D01*
X86342932Y-49031618D01*
X86342926Y-49031633D01*
X86316423Y-49124784D01*
X86279144Y-49183878D01*
X86215834Y-49213435D01*
X86146595Y-49204073D01*
X86093408Y-49158763D01*
X86077891Y-49124784D01*
X86051387Y-49031633D01*
X86051386Y-49031629D01*
X86041043Y-49010857D01*
X85952218Y-48832473D01*
X85952213Y-48832465D01*
X85818136Y-48654918D01*
X85653719Y-48505033D01*
X85653717Y-48505031D01*
X85464561Y-48387911D01*
X85464555Y-48387909D01*
X85257097Y-48307539D01*
X85038400Y-48266657D01*
X84815914Y-48266657D01*
X84597217Y-48307539D01*
X84466021Y-48358364D01*
X84389758Y-48387909D01*
X84389752Y-48387911D01*
X84200596Y-48505031D01*
X84200594Y-48505033D01*
X84036177Y-48654918D01*
X83902100Y-48832465D01*
X83902095Y-48832473D01*
X83802932Y-49031618D01*
X83802926Y-49031633D01*
X83742042Y-49245619D01*
X83742041Y-49245621D01*
X83721514Y-49467156D01*
X83721514Y-49467157D01*
X82045458Y-49467157D01*
X82108261Y-49345954D01*
X82204491Y-49075189D01*
X82262955Y-48793843D01*
X82282565Y-48507157D01*
X82262955Y-48220471D01*
X82204491Y-47939125D01*
X82108262Y-47668363D01*
X82108263Y-47668363D01*
X81976058Y-47413221D01*
X81810344Y-47178456D01*
X81731711Y-47094262D01*
X81614210Y-46968449D01*
X81391304Y-46787102D01*
X81391303Y-46787101D01*
X81145774Y-46637791D01*
X80882220Y-46523315D01*
X80882218Y-46523314D01*
X80882215Y-46523313D01*
X80752735Y-46487034D01*
X80605521Y-46445787D01*
X80605516Y-46445786D01*
X80605515Y-46445786D01*
X80463175Y-46426221D01*
X80320836Y-46406657D01*
X80320835Y-46406657D01*
X80033479Y-46406657D01*
X80033478Y-46406657D01*
X79748799Y-46445786D01*
X79748792Y-46445787D01*
X79541018Y-46504002D01*
X79472099Y-46523313D01*
X79472096Y-46523313D01*
X79472093Y-46523315D01*
X79472092Y-46523315D01*
X79208539Y-46637791D01*
X78963010Y-46787101D01*
X78740107Y-46968446D01*
X78543969Y-47178456D01*
X78378255Y-47413221D01*
X78246051Y-47668363D01*
X78149824Y-47939119D01*
X78149823Y-47939122D01*
X78091358Y-48220476D01*
X78071749Y-48507157D01*
X72986982Y-48507157D01*
X72918941Y-48433244D01*
X72918936Y-48433240D01*
X72918934Y-48433238D01*
X72735791Y-48290692D01*
X72735785Y-48290688D01*
X72531661Y-48180221D01*
X72531652Y-48180218D01*
X72312141Y-48104859D01*
X72140439Y-48076207D01*
X72083206Y-48066657D01*
X71851108Y-48066657D01*
X71805321Y-48074297D01*
X71622172Y-48104859D01*
X71402661Y-48180218D01*
X71402652Y-48180221D01*
X71198528Y-48290688D01*
X71198522Y-48290692D01*
X71015379Y-48433238D01*
X71015376Y-48433241D01*
X70858173Y-48604009D01*
X70731232Y-48798308D01*
X70637999Y-49010856D01*
X70581023Y-49235848D01*
X70581021Y-49235859D01*
X70561857Y-49467150D01*
X70561857Y-49467163D01*
X68372457Y-49467163D01*
X68372457Y-49467150D01*
X68353292Y-49235859D01*
X68353290Y-49235848D01*
X68296314Y-49010856D01*
X68203081Y-48798308D01*
X68076140Y-48604009D01*
X68076137Y-48604006D01*
X68076136Y-48604004D01*
X67918941Y-48433244D01*
X67918936Y-48433240D01*
X67918934Y-48433238D01*
X67735791Y-48290692D01*
X67735785Y-48290688D01*
X67531661Y-48180221D01*
X67531652Y-48180218D01*
X67312141Y-48104859D01*
X67140439Y-48076207D01*
X67083206Y-48066657D01*
X66851108Y-48066657D01*
X66805321Y-48074297D01*
X66622172Y-48104859D01*
X66402661Y-48180218D01*
X66402652Y-48180221D01*
X66198528Y-48290688D01*
X66198522Y-48290692D01*
X66015379Y-48433238D01*
X66015376Y-48433241D01*
X65858173Y-48604009D01*
X65731232Y-48798308D01*
X65637999Y-49010856D01*
X65581023Y-49235848D01*
X65581021Y-49235859D01*
X65561857Y-49467150D01*
X65561857Y-49467163D01*
X61662714Y-49467163D01*
X61629479Y-49386926D01*
X61629478Y-49386925D01*
X61629475Y-49386919D01*
X61525459Y-49231249D01*
X61525456Y-49231245D01*
X61393068Y-49098857D01*
X61393064Y-49098854D01*
X61237394Y-48994838D01*
X61237385Y-48994833D01*
X61064408Y-48923184D01*
X61064400Y-48923182D01*
X60880777Y-48886657D01*
X60880773Y-48886657D01*
X59793541Y-48886657D01*
X59793536Y-48886657D01*
X59609913Y-48923182D01*
X59609905Y-48923184D01*
X59436928Y-48994833D01*
X59436919Y-48994838D01*
X59281249Y-49098854D01*
X59281245Y-49098857D01*
X59148857Y-49231245D01*
X59148854Y-49231249D01*
X59044838Y-49386919D01*
X59044833Y-49386928D01*
X58973184Y-49559905D01*
X58973182Y-49559913D01*
X58936657Y-49743536D01*
X58936657Y-49930777D01*
X58973182Y-50114400D01*
X58973184Y-50114408D01*
X59044833Y-50287385D01*
X59044841Y-50287399D01*
X59118920Y-50398267D01*
X59139798Y-50464944D01*
X59121313Y-50532324D01*
X59118920Y-50536047D01*
X59044841Y-50646914D01*
X59044833Y-50646928D01*
X58973184Y-50819905D01*
X58973182Y-50819913D01*
X58936657Y-51003536D01*
X58936657Y-51190777D01*
X55467657Y-51190777D01*
X55467657Y-46828356D01*
X55487342Y-46761317D01*
X55540146Y-46715562D01*
X55609304Y-46705618D01*
X55672860Y-46734643D01*
X55694290Y-46758769D01*
X55835790Y-46967466D01*
X55835798Y-46967476D01*
X56015009Y-47178459D01*
X56067489Y-47240243D01*
X56327320Y-47486368D01*
X56612238Y-47702957D01*
X56918904Y-47887472D01*
X56918906Y-47887473D01*
X56918908Y-47887474D01*
X56918912Y-47887476D01*
X57099547Y-47971046D01*
X57243722Y-48037748D01*
X57582883Y-48152025D01*
X57932411Y-48228962D01*
X58288209Y-48267657D01*
X58288215Y-48267657D01*
X58646099Y-48267657D01*
X58646105Y-48267657D01*
X59001903Y-48228962D01*
X59351431Y-48152025D01*
X59690592Y-48037748D01*
X60015410Y-47887472D01*
X60322076Y-47702957D01*
X60606994Y-47486368D01*
X60866825Y-47240243D01*
X61098522Y-46967468D01*
X61299368Y-46671242D01*
X61467010Y-46355037D01*
X61525931Y-46207157D01*
X83721514Y-46207157D01*
X83742041Y-46428692D01*
X83742042Y-46428694D01*
X83802926Y-46642680D01*
X83802932Y-46642695D01*
X83902095Y-46841840D01*
X83902100Y-46841848D01*
X84036177Y-47019395D01*
X84200594Y-47169280D01*
X84200596Y-47169282D01*
X84389752Y-47286402D01*
X84389753Y-47286402D01*
X84389756Y-47286404D01*
X84597217Y-47366775D01*
X84815914Y-47407657D01*
X84815916Y-47407657D01*
X85038398Y-47407657D01*
X85038400Y-47407657D01*
X85257097Y-47366775D01*
X85464558Y-47286404D01*
X85653719Y-47169281D01*
X85818138Y-47019393D01*
X85952215Y-46841846D01*
X86051386Y-46642685D01*
X86077891Y-46549528D01*
X86115170Y-46490435D01*
X86178480Y-46460878D01*
X86247719Y-46470240D01*
X86300906Y-46515550D01*
X86316423Y-46549529D01*
X86342926Y-46642680D01*
X86342932Y-46642695D01*
X86442095Y-46841840D01*
X86442100Y-46841848D01*
X86576177Y-47019395D01*
X86740594Y-47169280D01*
X86740596Y-47169282D01*
X86929752Y-47286402D01*
X86929753Y-47286402D01*
X86929756Y-47286404D01*
X87137217Y-47366775D01*
X87355914Y-47407657D01*
X87355916Y-47407657D01*
X87578398Y-47407657D01*
X87578400Y-47407657D01*
X87797097Y-47366775D01*
X88004558Y-47286404D01*
X88193719Y-47169281D01*
X88358138Y-47019393D01*
X88492215Y-46841846D01*
X88591386Y-46642685D01*
X88652272Y-46428693D01*
X88672800Y-46207157D01*
X88652272Y-45985621D01*
X88591386Y-45771629D01*
X88544626Y-45677722D01*
X88492218Y-45572473D01*
X88492213Y-45572465D01*
X88358136Y-45394918D01*
X88193719Y-45245033D01*
X88193717Y-45245031D01*
X88004561Y-45127911D01*
X88004555Y-45127909D01*
X87797097Y-45047539D01*
X87578400Y-45006657D01*
X87355914Y-45006657D01*
X87137217Y-45047539D01*
X87006021Y-45098364D01*
X86929758Y-45127909D01*
X86929752Y-45127911D01*
X86740596Y-45245031D01*
X86740594Y-45245033D01*
X86576177Y-45394918D01*
X86442100Y-45572465D01*
X86442095Y-45572473D01*
X86342932Y-45771618D01*
X86342926Y-45771633D01*
X86316423Y-45864784D01*
X86279144Y-45923878D01*
X86215834Y-45953435D01*
X86146595Y-45944073D01*
X86093408Y-45898763D01*
X86077891Y-45864784D01*
X86051387Y-45771633D01*
X86051386Y-45771629D01*
X86004626Y-45677722D01*
X85952218Y-45572473D01*
X85952213Y-45572465D01*
X85818136Y-45394918D01*
X85653719Y-45245033D01*
X85653717Y-45245031D01*
X85464561Y-45127911D01*
X85464555Y-45127909D01*
X85257097Y-45047539D01*
X85038400Y-45006657D01*
X84815914Y-45006657D01*
X84597217Y-45047539D01*
X84466021Y-45098364D01*
X84389758Y-45127909D01*
X84389752Y-45127911D01*
X84200596Y-45245031D01*
X84200594Y-45245033D01*
X84036177Y-45394918D01*
X83902100Y-45572465D01*
X83902095Y-45572473D01*
X83802932Y-45771618D01*
X83802926Y-45771633D01*
X83742042Y-45985619D01*
X83742041Y-45985621D01*
X83721514Y-46207156D01*
X83721514Y-46207157D01*
X61525931Y-46207157D01*
X61599481Y-46022560D01*
X61695228Y-45677709D01*
X61753129Y-45324528D01*
X61772505Y-44967157D01*
X61753129Y-44609786D01*
X61695228Y-44256605D01*
X61599481Y-43911754D01*
X61467010Y-43579277D01*
X61299368Y-43263072D01*
X61098522Y-42966846D01*
X61098518Y-42966841D01*
X61098515Y-42966837D01*
X60866825Y-42694071D01*
X60786130Y-42617633D01*
X60606994Y-42447946D01*
X60606987Y-42447940D01*
X60606984Y-42447938D01*
X60539402Y-42396564D01*
X60322076Y-42231357D01*
X60266480Y-42197906D01*
X60219187Y-42146478D01*
X60207204Y-42077643D01*
X60234339Y-42013258D01*
X60291976Y-41973764D01*
X60330410Y-41967657D01*
X96170043Y-41967657D01*
X96237082Y-41987342D01*
G37*
%TD.AperFunction*%
%TD*%
M02*
