%TF.GenerationSoftware,KiCad,Pcbnew,8.0.1*%
%TF.CreationDate,2024-04-01T02:15:42+02:00*%
%TF.ProjectId,ef_hbmob,65665f68-626d-46f6-922e-6b696361645f,rev?*%
%TF.SameCoordinates,Original*%
%TF.FileFunction,Soldermask,Top*%
%TF.FilePolarity,Negative*%
%FSLAX46Y46*%
G04 Gerber Fmt 4.6, Leading zero omitted, Abs format (unit mm)*
G04 Created by KiCad (PCBNEW 8.0.1) date 2024-04-01 02:15:42*
%MOMM*%
%LPD*%
G01*
G04 APERTURE LIST*
G04 Aperture macros list*
%AMRoundRect*
0 Rectangle with rounded corners*
0 $1 Rounding radius*
0 $2 $3 $4 $5 $6 $7 $8 $9 X,Y pos of 4 corners*
0 Add a 4 corners polygon primitive as box body*
4,1,4,$2,$3,$4,$5,$6,$7,$8,$9,$2,$3,0*
0 Add four circle primitives for the rounded corners*
1,1,$1+$1,$2,$3*
1,1,$1+$1,$4,$5*
1,1,$1+$1,$6,$7*
1,1,$1+$1,$8,$9*
0 Add four rect primitives between the rounded corners*
20,1,$1+$1,$2,$3,$4,$5,0*
20,1,$1+$1,$4,$5,$6,$7,0*
20,1,$1+$1,$6,$7,$8,$9,0*
20,1,$1+$1,$8,$9,$2,$3,0*%
%AMFreePoly0*
4,1,21,-0.125000,1.200000,0.125000,1.200000,0.125000,1.700000,0.375000,1.700000,0.375000,1.200000,0.825000,1.200000,0.825000,-1.200000,0.375000,-1.200000,0.375000,-1.700000,0.125000,-1.700000,0.125000,-1.200000,-0.125000,-1.200000,-0.125000,-1.700000,-0.375000,-1.700000,-0.375000,-1.200000,-0.825000,-1.200000,-0.825000,1.200000,-0.375000,1.200000,-0.375000,1.700000,-0.125000,1.700000,
-0.125000,1.200000,-0.125000,1.200000,$1*%
G04 Aperture macros list end*
%ADD10C,2.000000*%
%ADD11C,3.600000*%
%ADD12C,5.600000*%
%ADD13R,1.210000X1.700000*%
%ADD14R,1.490000X1.730000*%
%ADD15R,1.790000X2.200000*%
%ADD16R,1.700000X1.210000*%
%ADD17R,1.250000X0.700000*%
%ADD18RoundRect,0.060000X-0.240000X-0.060000X0.240000X-0.060000X0.240000X0.060000X-0.240000X0.060000X0*%
%ADD19FreePoly0,0.000000*%
%ADD20O,1.000000X1.000000*%
%ADD21R,1.190000X1.730000*%
%ADD22R,0.280000X0.660000*%
%ADD23R,0.660000X0.280000*%
%ADD24R,2.700000X2.700000*%
%ADD25R,1.570000X1.700000*%
%ADD26C,1.700000*%
%ADD27O,1.820000X0.720000*%
%ADD28O,0.720000X1.820000*%
%ADD29R,1.630000X1.600000*%
%ADD30R,2.000000X2.200000*%
%ADD31C,2.200000*%
%ADD32C,1.800000*%
%ADD33O,1.800000X0.900000*%
%ADD34R,1.700000X1.700000*%
%ADD35C,3.200000*%
%ADD36C,1.400000*%
%ADD37O,2.900000X1.700000*%
%ADD38C,1.600000*%
G04 APERTURE END LIST*
D10*
%TO.C,SW2*%
X140467157Y-61467157D03*
X140467157Y-70467157D03*
X146717157Y-68467157D03*
X134217157Y-68467157D03*
X146717157Y-63467157D03*
X134217157Y-63467157D03*
%TD*%
D11*
%TO.C,H1*%
X58467157Y-44967157D03*
D12*
X58467157Y-44967157D03*
%TD*%
D13*
%TO.C,R11*%
X95507157Y-55967157D03*
X98467157Y-55967157D03*
%TD*%
%TO.C,R18*%
X80507157Y-64467157D03*
X83467157Y-64467157D03*
%TD*%
%TO.C,R8*%
X127507157Y-68967157D03*
X130467157Y-68967157D03*
%TD*%
D14*
%TO.C,C9*%
X66467157Y-69467157D03*
X69647157Y-69467157D03*
%TD*%
D15*
%TO.C,D1*%
X64787157Y-56467157D03*
X67467157Y-56467157D03*
%TD*%
D16*
%TO.C,R17*%
X145467157Y-80797157D03*
X145467157Y-77837157D03*
%TD*%
D13*
%TO.C,R7*%
X130927157Y-45967157D03*
X127967157Y-45967157D03*
%TD*%
%TO.C,R5*%
X121507157Y-63967157D03*
X124467157Y-63967157D03*
%TD*%
D17*
%TO.C,Q3*%
X80967157Y-56967157D03*
X80967157Y-58867157D03*
X82967157Y-57917157D03*
%TD*%
D14*
%TO.C,C8*%
X69467157Y-77467157D03*
X66287157Y-77467157D03*
%TD*%
D18*
%TO.C,U2*%
X74067157Y-69597157D03*
X74067157Y-70097157D03*
X74067157Y-70597157D03*
X74067157Y-71097157D03*
X74067157Y-71597157D03*
X76867157Y-71597157D03*
X76867157Y-71097157D03*
X76867157Y-70597157D03*
X76867157Y-70097157D03*
X76867157Y-69597157D03*
D19*
X75467157Y-70597157D03*
%TD*%
D14*
%TO.C,C5*%
X113787157Y-63967157D03*
X116967157Y-63967157D03*
%TD*%
D20*
%TO.C,D3*%
X137457157Y-85967157D03*
X136207157Y-85967157D03*
X138717157Y-85967157D03*
X139967157Y-85967157D03*
%TD*%
D13*
%TO.C,R1*%
X60007157Y-80967157D03*
X62967157Y-80967157D03*
%TD*%
D14*
%TO.C,C2*%
X127787157Y-50467157D03*
X130967157Y-50467157D03*
%TD*%
D11*
%TO.C,H3*%
X58467157Y-87967157D03*
D12*
X58467157Y-87967157D03*
%TD*%
D14*
%TO.C,C11*%
X114287157Y-54467157D03*
X117467157Y-54467157D03*
%TD*%
%TO.C,C10*%
X73787157Y-64467157D03*
X76967157Y-64467157D03*
%TD*%
D11*
%TO.C,H2*%
X145467157Y-44967157D03*
D12*
X145467157Y-44967157D03*
%TD*%
D15*
%TO.C,D2*%
X75967157Y-58467157D03*
X73287157Y-58467157D03*
%TD*%
D21*
%TO.C,F1*%
X130467157Y-61967157D03*
X127567157Y-61967157D03*
%TD*%
D14*
%TO.C,C3*%
X101787157Y-65467157D03*
X104967157Y-65467157D03*
%TD*%
D13*
%TO.C,R3*%
X114007157Y-58967157D03*
X116967157Y-58967157D03*
%TD*%
D17*
%TO.C,Q1*%
X61967157Y-60567157D03*
X61967157Y-62467157D03*
X63967157Y-61517157D03*
%TD*%
D14*
%TO.C,C6*%
X92287157Y-65467157D03*
X95467157Y-65467157D03*
%TD*%
%TO.C,C1*%
X66320000Y-64467157D03*
X69500000Y-64467157D03*
%TD*%
D16*
%TO.C,R16*%
X140967157Y-80797157D03*
X140967157Y-77837157D03*
%TD*%
D13*
%TO.C,R14*%
X139967157Y-51467157D03*
X137007157Y-51467157D03*
%TD*%
%TO.C,R10*%
X73967157Y-77467157D03*
X76927157Y-77467157D03*
%TD*%
D22*
%TO.C,BT2*%
X121967157Y-60377157D03*
X122467157Y-60377157D03*
X122967157Y-60377157D03*
X123467157Y-60377157D03*
X123967157Y-60377157D03*
D23*
X124877157Y-59467157D03*
X124877157Y-58967157D03*
X124877157Y-58467157D03*
X124877157Y-57967157D03*
X124877157Y-57467157D03*
D22*
X123967157Y-56557157D03*
X123467157Y-56557157D03*
X122967157Y-56557157D03*
X122467157Y-56557157D03*
X121967157Y-56557157D03*
D23*
X121057157Y-57467157D03*
X121057157Y-57967157D03*
X121057157Y-58467157D03*
X121057157Y-58967157D03*
X121057157Y-59467157D03*
D24*
X122967157Y-58467157D03*
%TD*%
D14*
%TO.C,C4*%
X127787157Y-55467157D03*
X130967157Y-55467157D03*
%TD*%
D25*
%TO.C,J3*%
X132507157Y-80967157D03*
D26*
X129967157Y-80967157D03*
X127427157Y-80967157D03*
X124887157Y-80967157D03*
X122347157Y-80967157D03*
X119807157Y-80967157D03*
X117267157Y-80967157D03*
X114727157Y-80967157D03*
X112187157Y-80967157D03*
X109647157Y-80967157D03*
%TD*%
D27*
%TO.C,U1*%
X105467157Y-80967157D03*
X105467157Y-80116834D03*
X105467157Y-79266543D03*
X105467157Y-78416253D03*
X105467157Y-77565962D03*
X105467157Y-76715672D03*
X105467157Y-75865382D03*
X105467157Y-75015091D03*
X105467157Y-74164801D03*
X105467157Y-73314510D03*
X105467157Y-72464220D03*
X105467157Y-71607730D03*
D28*
X104561442Y-69157717D03*
X101163348Y-69157717D03*
X100313825Y-69157717D03*
X99464302Y-69157717D03*
X98614778Y-69157717D03*
X97765255Y-69157717D03*
X94366687Y-69157717D03*
D27*
X93467158Y-71613930D03*
X93467158Y-72464223D03*
X93467158Y-73314516D03*
X93467158Y-74164809D03*
X93467158Y-75015101D03*
X93467158Y-75865394D03*
X93467158Y-76715687D03*
X93467158Y-77565980D03*
X93467158Y-78416273D03*
X93467158Y-79266566D03*
X93467158Y-80116859D03*
X93467158Y-80967152D03*
X93467158Y-81817445D03*
X93467158Y-82667738D03*
%TD*%
D13*
%TO.C,R9*%
X124427157Y-72967157D03*
X121467157Y-72967157D03*
%TD*%
D14*
%TO.C,L1*%
X66287157Y-73467157D03*
X69467157Y-73467157D03*
%TD*%
D11*
%TO.C,H4*%
X145467157Y-87967157D03*
D12*
X145467157Y-87967157D03*
%TD*%
D29*
%TO.C,D6*%
X146967157Y-51467157D03*
X143927157Y-51467157D03*
%TD*%
D13*
%TO.C,R13*%
X124427157Y-67967157D03*
X121467157Y-67967157D03*
%TD*%
D14*
%TO.C,C7*%
X80467157Y-68967157D03*
X83647157Y-68967157D03*
%TD*%
D16*
%TO.C,R15*%
X136967157Y-80797157D03*
X136967157Y-77837157D03*
%TD*%
D13*
%TO.C,R6*%
X114507157Y-48967157D03*
X117467157Y-48967157D03*
%TD*%
%TO.C,R4*%
X115507157Y-67967157D03*
X118467157Y-67967157D03*
%TD*%
%TO.C,R2*%
X60007157Y-75467157D03*
X62967157Y-75467157D03*
%TD*%
%TO.C,R12*%
X104927157Y-60967157D03*
X101967157Y-60967157D03*
%TD*%
D30*
%TO.C,CN1*%
X106777157Y-48467157D03*
D31*
X104237157Y-48467157D03*
X101697157Y-48467157D03*
X99157157Y-48467157D03*
%TD*%
D32*
%TO.C,BZ1*%
X71967157Y-49467157D03*
X66967157Y-49467157D03*
%TD*%
D33*
%TO.C,M1*%
X60337157Y-51097157D03*
X60337157Y-49837157D03*
%TD*%
D34*
%TO.C,J2*%
X86547157Y-80467157D03*
D26*
X84007157Y-80467157D03*
X81467157Y-80467157D03*
X78927157Y-80467157D03*
%TD*%
D35*
%TO.C,USB1*%
X92217157Y-48507157D03*
X80177157Y-48507157D03*
D36*
X84927157Y-46207157D03*
X87467157Y-46207157D03*
X87467157Y-49467157D03*
X84927157Y-49467157D03*
%TD*%
D37*
%TO.C,SW1*%
X71967157Y-79467157D03*
X71967157Y-84267157D03*
X71967157Y-89067157D03*
%TD*%
D38*
%TO.C,BT1*%
X129467157Y-65967157D03*
X59467157Y-65967157D03*
%TD*%
M02*
